%TF.GenerationSoftware,KiCad,Pcbnew,7.0.10*%
%TF.CreationDate,2024-03-11T15:02:14-04:00*%
%TF.ProjectId,bitaxeUltra,62697461-7865-4556-9c74-72612e6b6963,rev?*%
%TF.SameCoordinates,Original*%
%TF.FileFunction,Paste,Top*%
%TF.FilePolarity,Positive*%
%FSLAX46Y46*%
G04 Gerber Fmt 4.6, Leading zero omitted, Abs format (unit mm)*
G04 Created by KiCad (PCBNEW 7.0.10) date 2024-03-11 15:02:14*
%MOMM*%
%LPD*%
G01*
G04 APERTURE LIST*
G04 Aperture macros list*
%AMRoundRect*
0 Rectangle with rounded corners*
0 $1 Rounding radius*
0 $2 $3 $4 $5 $6 $7 $8 $9 X,Y pos of 4 corners*
0 Add a 4 corners polygon primitive as box body*
4,1,4,$2,$3,$4,$5,$6,$7,$8,$9,$2,$3,0*
0 Add four circle primitives for the rounded corners*
1,1,$1+$1,$2,$3*
1,1,$1+$1,$4,$5*
1,1,$1+$1,$6,$7*
1,1,$1+$1,$8,$9*
0 Add four rect primitives between the rounded corners*
20,1,$1+$1,$2,$3,$4,$5,0*
20,1,$1+$1,$4,$5,$6,$7,0*
20,1,$1+$1,$6,$7,$8,$9,0*
20,1,$1+$1,$8,$9,$2,$3,0*%
G04 Aperture macros list end*
%ADD10RoundRect,0.225000X-0.225000X-0.250000X0.225000X-0.250000X0.225000X0.250000X-0.225000X0.250000X0*%
%ADD11RoundRect,0.140000X0.140000X0.170000X-0.140000X0.170000X-0.140000X-0.170000X0.140000X-0.170000X0*%
%ADD12RoundRect,0.250000X-0.475000X0.250000X-0.475000X-0.250000X0.475000X-0.250000X0.475000X0.250000X0*%
%ADD13RoundRect,0.100000X-0.637500X-0.100000X0.637500X-0.100000X0.637500X0.100000X-0.637500X0.100000X0*%
%ADD14RoundRect,0.140000X-0.170000X0.140000X-0.170000X-0.140000X0.170000X-0.140000X0.170000X0.140000X0*%
%ADD15RoundRect,0.135000X0.135000X0.185000X-0.135000X0.185000X-0.135000X-0.185000X0.135000X-0.185000X0*%
%ADD16RoundRect,0.140000X-0.140000X-0.170000X0.140000X-0.170000X0.140000X0.170000X-0.140000X0.170000X0*%
%ADD17RoundRect,0.250000X-0.325000X-0.650000X0.325000X-0.650000X0.325000X0.650000X-0.325000X0.650000X0*%
%ADD18RoundRect,0.135000X-0.185000X0.135000X-0.185000X-0.135000X0.185000X-0.135000X0.185000X0.135000X0*%
%ADD19RoundRect,0.225000X0.225000X0.250000X-0.225000X0.250000X-0.225000X-0.250000X0.225000X-0.250000X0*%
%ADD20RoundRect,0.225000X-0.250000X0.225000X-0.250000X-0.225000X0.250000X-0.225000X0.250000X0.225000X0*%
%ADD21R,1.168400X1.600200*%
%ADD22RoundRect,0.150000X-0.512500X-0.150000X0.512500X-0.150000X0.512500X0.150000X-0.512500X0.150000X0*%
%ADD23RoundRect,0.250000X-0.250000X-0.475000X0.250000X-0.475000X0.250000X0.475000X-0.250000X0.475000X0*%
%ADD24R,0.400000X1.100000*%
%ADD25RoundRect,0.140000X0.170000X-0.140000X0.170000X0.140000X-0.170000X0.140000X-0.170000X-0.140000X0*%
%ADD26RoundRect,0.020500X-0.764500X-0.184500X0.764500X-0.184500X0.764500X0.184500X-0.764500X0.184500X0*%
%ADD27R,2.400000X3.000000*%
%ADD28R,1.500000X4.000000*%
%ADD29RoundRect,0.135000X-0.135000X-0.185000X0.135000X-0.185000X0.135000X0.185000X-0.135000X0.185000X0*%
%ADD30R,1.100000X0.400000*%
%ADD31R,1.219200X3.048000*%
%ADD32RoundRect,0.200000X0.200000X-0.250000X0.200000X0.250000X-0.200000X0.250000X-0.200000X-0.250000X0*%
%ADD33RoundRect,0.250000X0.475000X-0.250000X0.475000X0.250000X-0.475000X0.250000X-0.475000X-0.250000X0*%
%ADD34RoundRect,0.135000X0.185000X-0.135000X0.185000X0.135000X-0.185000X0.135000X-0.185000X-0.135000X0*%
%ADD35R,0.650000X0.400000*%
%ADD36RoundRect,0.225000X0.250000X-0.225000X0.250000X0.225000X-0.250000X0.225000X-0.250000X-0.225000X0*%
%ADD37R,0.300000X0.550000*%
%ADD38R,0.450000X0.300000*%
%ADD39R,0.280000X2.350000*%
%ADD40R,0.730000X0.300000*%
%ADD41R,0.300000X0.725000*%
%ADD42R,0.725000X0.300000*%
%ADD43R,1.050000X1.575000*%
%ADD44R,1.050000X1.150000*%
%ADD45R,1.200000X2.175000*%
%ADD46R,0.455000X0.650000*%
%ADD47R,0.380000X0.580000*%
%ADD48R,1.300000X1.100000*%
%ADD49R,0.901700X0.508000*%
G04 APERTURE END LIST*
D10*
%TO.C,C43*%
X97878600Y-85801200D03*
X99428600Y-85801200D03*
%TD*%
D11*
%TO.C,C19*%
X122044400Y-125526800D03*
X121084400Y-125526800D03*
%TD*%
D12*
%TO.C,C50*%
X95605600Y-62753200D03*
X95605600Y-64653200D03*
%TD*%
D13*
%TO.C,U8*%
X80433300Y-66152600D03*
X80433300Y-66802600D03*
X80433300Y-67452600D03*
X80433300Y-68102600D03*
X80433300Y-68752600D03*
X80433300Y-69402600D03*
X80433300Y-70052600D03*
X80433300Y-70702600D03*
X86158300Y-70702600D03*
X86158300Y-70052600D03*
X86158300Y-69402600D03*
X86158300Y-68752600D03*
X86158300Y-68102600D03*
X86158300Y-67452600D03*
X86158300Y-66802600D03*
X86158300Y-66152600D03*
%TD*%
D14*
%TO.C,C7*%
X112471200Y-114277200D03*
X112471200Y-115237200D03*
%TD*%
D15*
%TO.C,R13*%
X94083600Y-87569200D03*
X93063600Y-87569200D03*
%TD*%
%TO.C,R6*%
X122717000Y-115554000D03*
X121697000Y-115554000D03*
%TD*%
D16*
%TO.C,C1*%
X127958210Y-131272390D03*
X128918210Y-131272390D03*
%TD*%
D17*
%TO.C,C41*%
X111809000Y-92913200D03*
X114759000Y-92913200D03*
%TD*%
D18*
%TO.C,R8*%
X113770000Y-69930000D03*
X113770000Y-70950000D03*
%TD*%
D19*
%TO.C,C3*%
X115215000Y-107790000D03*
X113665000Y-107790000D03*
%TD*%
D17*
%TO.C,C38*%
X111809000Y-88087200D03*
X114759000Y-88087200D03*
%TD*%
D20*
%TO.C,C25*%
X105540000Y-129465000D03*
X105540000Y-131015000D03*
%TD*%
D11*
%TO.C,C45*%
X94053600Y-89969200D03*
X93093600Y-89969200D03*
%TD*%
D21*
%TO.C,Y1*%
X124017400Y-78349000D03*
X121172600Y-78349000D03*
%TD*%
D22*
%TO.C,U5*%
X92486900Y-128358000D03*
X92486900Y-129308000D03*
X92486900Y-130258000D03*
X94761900Y-130258000D03*
X94761900Y-128358000D03*
%TD*%
D23*
%TO.C,C51*%
X127929600Y-84531200D03*
X129829600Y-84531200D03*
%TD*%
D22*
%TO.C,U6*%
X101182500Y-129290000D03*
X101182500Y-130240000D03*
X101182500Y-131190000D03*
X103457500Y-131190000D03*
X103457500Y-129290000D03*
%TD*%
D10*
%TO.C,C4*%
X109054600Y-120091200D03*
X110604600Y-120091200D03*
%TD*%
D24*
%TO.C,U7*%
X102371800Y-113877200D03*
X101721800Y-113877200D03*
X101071800Y-113877200D03*
X100421800Y-113877200D03*
X100421800Y-118177200D03*
X101071800Y-118177200D03*
X101721800Y-118177200D03*
X102371800Y-118177200D03*
%TD*%
D19*
%TO.C,C12*%
X100075000Y-104240000D03*
X98525000Y-104240000D03*
%TD*%
D16*
%TO.C,C52*%
X128399600Y-86141200D03*
X129359600Y-86141200D03*
%TD*%
D15*
%TO.C,R1*%
X127347000Y-101658000D03*
X126327000Y-101658000D03*
%TD*%
D25*
%TO.C,C30*%
X124043000Y-76576000D03*
X124043000Y-75616000D03*
%TD*%
D26*
%TO.C,U2*%
X117729200Y-126706200D03*
X117729200Y-127356200D03*
X117729200Y-128006200D03*
X117729200Y-128656200D03*
X117729200Y-129306200D03*
X117729200Y-129956200D03*
X117729200Y-130606200D03*
X117729200Y-131256200D03*
X123469200Y-131256200D03*
X123469200Y-130606200D03*
X123469200Y-129956200D03*
X123469200Y-129306200D03*
X123469200Y-128656200D03*
X123469200Y-128006200D03*
X123469200Y-127356200D03*
X123469200Y-126706200D03*
%TD*%
D15*
%TO.C,R10*%
X96725200Y-86055200D03*
X95705200Y-86055200D03*
%TD*%
D27*
%TO.C,L1*%
X105613200Y-87795600D03*
X105613200Y-95795600D03*
%TD*%
D14*
%TO.C,C53*%
X97006800Y-80456803D03*
X97006800Y-81416803D03*
%TD*%
D15*
%TO.C,R15*%
X94083600Y-91069200D03*
X93063600Y-91069200D03*
%TD*%
D28*
%TO.C,L2*%
X100612800Y-75692000D03*
X104212800Y-75692000D03*
%TD*%
D19*
%TO.C,C15*%
X98785000Y-106040000D03*
X97235000Y-106040000D03*
%TD*%
D29*
%TO.C,R16*%
X116330000Y-57110000D03*
X117350000Y-57110000D03*
%TD*%
D10*
%TO.C,C16*%
X103568200Y-122174000D03*
X105118200Y-122174000D03*
%TD*%
D11*
%TO.C,C49*%
X91462800Y-64160400D03*
X90502800Y-64160400D03*
%TD*%
D19*
%TO.C,C18*%
X96434000Y-109681000D03*
X94884000Y-109681000D03*
%TD*%
D17*
%TO.C,C40*%
X111809000Y-90525600D03*
X114759000Y-90525600D03*
%TD*%
D30*
%TO.C,U10*%
X112380000Y-59065000D03*
X112380000Y-58415000D03*
X112380000Y-57765000D03*
X112380000Y-57115000D03*
X108080000Y-57115000D03*
X108080000Y-57765000D03*
X108080000Y-58415000D03*
X108080000Y-59065000D03*
%TD*%
D17*
%TO.C,C39*%
X111825000Y-85600000D03*
X114775000Y-85600000D03*
%TD*%
D25*
%TO.C,C31*%
X121159000Y-76585000D03*
X121159000Y-75625000D03*
%TD*%
D15*
%TO.C,R19*%
X129846800Y-125984000D03*
X128826800Y-125984000D03*
%TD*%
D31*
%TO.C,C54*%
X92400000Y-97164650D03*
X92400000Y-102625650D03*
%TD*%
D20*
%TO.C,C35*%
X89204800Y-68465400D03*
X89204800Y-70015400D03*
%TD*%
%TO.C,C10*%
X108610400Y-114033000D03*
X108610400Y-115583000D03*
%TD*%
D32*
%TO.C,U13*%
X91455200Y-62366400D03*
X93355200Y-62366400D03*
X92405200Y-60366400D03*
%TD*%
D20*
%TO.C,C11*%
X111252000Y-113982200D03*
X111252000Y-115532200D03*
%TD*%
D15*
%TO.C,R14*%
X110847600Y-79451200D03*
X109827600Y-79451200D03*
%TD*%
D10*
%TO.C,C14*%
X103568200Y-120650000D03*
X105118200Y-120650000D03*
%TD*%
D17*
%TO.C,C13*%
X108725000Y-112100000D03*
X111675000Y-112100000D03*
%TD*%
D33*
%TO.C,C48*%
X106680000Y-72273200D03*
X106680000Y-70373200D03*
%TD*%
D25*
%TO.C,C33*%
X101590000Y-111050000D03*
X101590000Y-110090000D03*
%TD*%
D34*
%TO.C,R2*%
X95808800Y-120448800D03*
X95808800Y-119428800D03*
%TD*%
D35*
%TO.C,U15*%
X93306800Y-80485600D03*
X93306800Y-81135600D03*
X93306800Y-81785600D03*
X95206800Y-81785600D03*
X95206800Y-80485600D03*
%TD*%
D19*
%TO.C,C28*%
X87135000Y-143510000D03*
X85585000Y-143510000D03*
%TD*%
D36*
%TO.C,C44*%
X105156000Y-59195000D03*
X105156000Y-57645000D03*
%TD*%
D37*
%TO.C,U9*%
X97422200Y-91644200D03*
X97872200Y-91644200D03*
X98772200Y-91644200D03*
X99222200Y-91644200D03*
D38*
X100322200Y-91094200D03*
X100322200Y-90644200D03*
X100322200Y-90194200D03*
X100322200Y-89494200D03*
X100322200Y-89044200D03*
D39*
X99957200Y-90069200D03*
D40*
X100182200Y-88594200D03*
D41*
X99672200Y-87681700D03*
X99222200Y-87681700D03*
X98772200Y-87681700D03*
X98322200Y-87681700D03*
X97872200Y-87681700D03*
X97422200Y-87681700D03*
X96972200Y-87681700D03*
D42*
X96309700Y-88144200D03*
X96309700Y-88594200D03*
X96309700Y-89044200D03*
X96309700Y-89494200D03*
X96309700Y-90194200D03*
X96309700Y-90644200D03*
X96309700Y-91094200D03*
D43*
X97497200Y-89131700D03*
D44*
X97497200Y-90794200D03*
D45*
X98922200Y-90281700D03*
D46*
X98549700Y-88869200D03*
D47*
X99237200Y-88634200D03*
%TD*%
D36*
%TO.C,C22*%
X90728800Y-127876600D03*
X90728800Y-126326600D03*
%TD*%
D19*
%TO.C,C32*%
X99397200Y-94526003D03*
X97847200Y-94526003D03*
%TD*%
%TO.C,C21*%
X124665000Y-101660000D03*
X123115000Y-101660000D03*
%TD*%
%TO.C,C6*%
X113915000Y-106030000D03*
X112365000Y-106030000D03*
%TD*%
D14*
%TO.C,C46*%
X98412800Y-74712000D03*
X98412800Y-75672000D03*
%TD*%
D33*
%TO.C,C42*%
X101041200Y-84211200D03*
X101041200Y-82311200D03*
%TD*%
D20*
%TO.C,C34*%
X91412800Y-76417000D03*
X91412800Y-77967000D03*
%TD*%
D48*
%TO.C,U1*%
X128978610Y-127934790D03*
X126678610Y-127934790D03*
X126678610Y-129834790D03*
X128978610Y-129834790D03*
%TD*%
D29*
%TO.C,R12*%
X93063600Y-88669200D03*
X94083600Y-88669200D03*
%TD*%
D15*
%TO.C,R4*%
X104904000Y-84988400D03*
X103884000Y-84988400D03*
%TD*%
D19*
%TO.C,C2*%
X116315000Y-109624000D03*
X114765000Y-109624000D03*
%TD*%
D18*
%TO.C,R7*%
X103276400Y-80973200D03*
X103276400Y-81993200D03*
%TD*%
D36*
%TO.C,C23*%
X100736400Y-127571800D03*
X100736400Y-126021800D03*
%TD*%
D19*
%TO.C,C5*%
X113715000Y-120090000D03*
X112165000Y-120090000D03*
%TD*%
D34*
%TO.C,R9*%
X100460000Y-112090000D03*
X100460000Y-111070000D03*
%TD*%
D19*
%TO.C,C17*%
X97505000Y-107780000D03*
X95955000Y-107780000D03*
%TD*%
%TO.C,C8*%
X112585000Y-104240000D03*
X111035000Y-104240000D03*
%TD*%
D11*
%TO.C,C29*%
X86840000Y-144780000D03*
X85880000Y-144780000D03*
%TD*%
D25*
%TO.C,C27*%
X92812800Y-77872000D03*
X92812800Y-76912000D03*
%TD*%
%TO.C,C20*%
X123190000Y-124533600D03*
X123190000Y-123573600D03*
%TD*%
D12*
%TO.C,C47*%
X106578400Y-78044000D03*
X106578400Y-79944000D03*
%TD*%
D20*
%TO.C,C24*%
X96418400Y-128307800D03*
X96418400Y-129857800D03*
%TD*%
D17*
%TO.C,C36*%
X108725000Y-109700000D03*
X111675000Y-109700000D03*
%TD*%
D14*
%TO.C,C9*%
X109982000Y-114277200D03*
X109982000Y-115237200D03*
%TD*%
D49*
%TO.C,U11*%
X94209300Y-74691998D03*
X94209300Y-75641999D03*
X94209300Y-76592000D03*
X96812800Y-76592000D03*
X96812800Y-75641999D03*
X96812800Y-74691998D03*
%TD*%
D16*
%TO.C,C37*%
X97564000Y-93218000D03*
X98524000Y-93218000D03*
%TD*%
M02*
