%TF.GenerationSoftware,KiCad,Pcbnew,7.0.10*%
%TF.CreationDate,2024-03-11T15:02:14-04:00*%
%TF.ProjectId,bitaxeUltra,62697461-7865-4556-9c74-72612e6b6963,rev?*%
%TF.SameCoordinates,Original*%
%TF.FileFunction,Paste,Bot*%
%TF.FilePolarity,Positive*%
%FSLAX46Y46*%
G04 Gerber Fmt 4.6, Leading zero omitted, Abs format (unit mm)*
G04 Created by KiCad (PCBNEW 7.0.10) date 2024-03-11 15:02:14*
%MOMM*%
%LPD*%
G01*
G04 APERTURE LIST*
G04 Aperture macros list*
%AMRoundRect*
0 Rectangle with rounded corners*
0 $1 Rounding radius*
0 $2 $3 $4 $5 $6 $7 $8 $9 X,Y pos of 4 corners*
0 Add a 4 corners polygon primitive as box body*
4,1,4,$2,$3,$4,$5,$6,$7,$8,$9,$2,$3,0*
0 Add four circle primitives for the rounded corners*
1,1,$1+$1,$2,$3*
1,1,$1+$1,$4,$5*
1,1,$1+$1,$6,$7*
1,1,$1+$1,$8,$9*
0 Add four rect primitives between the rounded corners*
20,1,$1+$1,$2,$3,$4,$5,0*
20,1,$1+$1,$4,$5,$6,$7,0*
20,1,$1+$1,$6,$7,$8,$9,0*
20,1,$1+$1,$8,$9,$2,$3,0*%
G04 Aperture macros list end*
%ADD10C,0.001000*%
%ADD11RoundRect,0.135000X0.135000X0.185000X-0.135000X0.185000X-0.135000X-0.185000X0.135000X-0.185000X0*%
%ADD12RoundRect,0.150000X0.425000X-0.150000X0.425000X0.150000X-0.425000X0.150000X-0.425000X-0.150000X0*%
%ADD13RoundRect,0.075000X0.500000X-0.075000X0.500000X0.075000X-0.500000X0.075000X-0.500000X-0.075000X0*%
%ADD14O,1.800000X1.000000*%
%ADD15O,2.100000X1.000000*%
%ADD16R,0.900000X1.500000*%
%ADD17R,1.500000X0.900000*%
%ADD18R,0.900000X0.900000*%
%ADD19RoundRect,0.135000X-0.185000X0.135000X-0.185000X-0.135000X0.185000X-0.135000X0.185000X0.135000X0*%
%ADD20O,0.600000X1.400000*%
%ADD21RoundRect,0.230000X1.370000X-0.920000X1.370000X0.920000X-1.370000X0.920000X-1.370000X-0.920000X0*%
%ADD22R,0.792000X0.221000*%
%ADD23R,0.900000X1.800000*%
%ADD24RoundRect,0.200000X-0.250000X-0.200000X0.250000X-0.200000X0.250000X0.200000X-0.250000X0.200000X0*%
%ADD25RoundRect,0.225000X-0.225000X-0.250000X0.225000X-0.250000X0.225000X0.250000X-0.225000X0.250000X0*%
%ADD26RoundRect,0.135000X0.185000X-0.135000X0.185000X0.135000X-0.185000X0.135000X-0.185000X-0.135000X0*%
G04 APERTURE END LIST*
D10*
%TO.C,U14*%
X107242000Y-118273000D02*
X106042000Y-118273000D01*
X106042000Y-118273000D02*
X106042000Y-119063000D01*
X106042000Y-119063000D02*
X107242000Y-119063000D01*
X107242000Y-119063000D02*
X107242000Y-118273000D01*
G36*
X107242000Y-118273000D02*
G01*
X106042000Y-118273000D01*
X106042000Y-119063000D01*
X107242000Y-119063000D01*
X107242000Y-118273000D01*
G37*
X107242000Y-115243000D02*
X106042000Y-115243000D01*
X106042000Y-115243000D02*
X106042000Y-116033000D01*
X106042000Y-116033000D02*
X107242000Y-116033000D01*
X107242000Y-116033000D02*
X107242000Y-115243000D01*
G36*
X107242000Y-115243000D02*
G01*
X106042000Y-115243000D01*
X106042000Y-116033000D01*
X107242000Y-116033000D01*
X107242000Y-115243000D01*
G37*
X107222000Y-116833000D02*
X106022000Y-116833000D01*
X106022000Y-116833000D02*
X106022000Y-117623000D01*
X106022000Y-117623000D02*
X107222000Y-117623000D01*
X107222000Y-117623000D02*
X107222000Y-116833000D01*
G36*
X107222000Y-116833000D02*
G01*
X106022000Y-116833000D01*
X106022000Y-117623000D01*
X107222000Y-117623000D01*
X107222000Y-116833000D01*
G37*
X107192000Y-113163000D02*
X105992000Y-113163000D01*
X105992000Y-113163000D02*
X105992000Y-113953000D01*
X105992000Y-113953000D02*
X107192000Y-113953000D01*
X107192000Y-113953000D02*
X107192000Y-113163000D01*
G36*
X107192000Y-113163000D02*
G01*
X105992000Y-113163000D01*
X105992000Y-113953000D01*
X107192000Y-113953000D01*
X107192000Y-113163000D01*
G37*
X105112000Y-118268000D02*
X103912000Y-118268000D01*
X103912000Y-118268000D02*
X103912000Y-119058000D01*
X103912000Y-119058000D02*
X105112000Y-119058000D01*
X105112000Y-119058000D02*
X105112000Y-118268000D01*
G36*
X105112000Y-118268000D02*
G01*
X103912000Y-118268000D01*
X103912000Y-119058000D01*
X105112000Y-119058000D01*
X105112000Y-118268000D01*
G37*
X105112000Y-115238000D02*
X103912000Y-115238000D01*
X103912000Y-115238000D02*
X103912000Y-116028000D01*
X103912000Y-116028000D02*
X105112000Y-116028000D01*
X105112000Y-116028000D02*
X105112000Y-115238000D01*
G36*
X105112000Y-115238000D02*
G01*
X103912000Y-115238000D01*
X103912000Y-116028000D01*
X105112000Y-116028000D01*
X105112000Y-115238000D01*
G37*
X105092000Y-116828000D02*
X103892000Y-116828000D01*
X103892000Y-116828000D02*
X103892000Y-117618000D01*
X103892000Y-117618000D02*
X105092000Y-117618000D01*
X105092000Y-117618000D02*
X105092000Y-116828000D01*
G36*
X105092000Y-116828000D02*
G01*
X103892000Y-116828000D01*
X103892000Y-117618000D01*
X105092000Y-117618000D01*
X105092000Y-116828000D01*
G37*
X105062000Y-113158000D02*
X103862000Y-113158000D01*
X103862000Y-113158000D02*
X103862000Y-113948000D01*
X103862000Y-113948000D02*
X105062000Y-113948000D01*
X105062000Y-113948000D02*
X105062000Y-113158000D01*
G36*
X105062000Y-113158000D02*
G01*
X103862000Y-113158000D01*
X103862000Y-113948000D01*
X105062000Y-113948000D01*
X105062000Y-113158000D01*
G37*
%TD*%
D11*
%TO.C,R18*%
X99282000Y-73200000D03*
X98262000Y-73200000D03*
%TD*%
%TO.C,R5*%
X90182000Y-80900000D03*
X89162000Y-80900000D03*
%TD*%
D12*
%TO.C,J8*%
X84545000Y-86460000D03*
X84545000Y-85660000D03*
D13*
X84545000Y-84510000D03*
X84545000Y-83510000D03*
X84545000Y-83010000D03*
X84545000Y-82010000D03*
D12*
X84545000Y-80060000D03*
X84545000Y-80860000D03*
D13*
X84545000Y-81510000D03*
X84545000Y-82510000D03*
X84545000Y-84010000D03*
X84545000Y-85010000D03*
D14*
X79790000Y-87580000D03*
D15*
X83970000Y-87580000D03*
D14*
X79790000Y-78940000D03*
D15*
X83970000Y-78940000D03*
%TD*%
D16*
%TO.C,U12*%
X125690000Y-81360000D03*
X124420000Y-81360000D03*
X123150000Y-81360000D03*
X121880000Y-81360000D03*
X120610000Y-81360000D03*
X119340000Y-81360000D03*
X118070000Y-81360000D03*
X116800000Y-81360000D03*
X115530000Y-81360000D03*
X114260000Y-81360000D03*
X112990000Y-81360000D03*
X111720000Y-81360000D03*
X110450000Y-81360000D03*
X109180000Y-81360000D03*
D17*
X107930000Y-79595000D03*
X107930000Y-78325000D03*
X107930000Y-77055000D03*
X107930000Y-75785000D03*
X107930000Y-74515000D03*
X107930000Y-73245000D03*
X107930000Y-71975000D03*
X107930000Y-70705000D03*
X107930000Y-69435000D03*
X107930000Y-68165000D03*
X107930000Y-66895000D03*
X107930000Y-65625000D03*
D16*
X109180000Y-63860000D03*
X110450000Y-63860000D03*
X111720000Y-63860000D03*
X112990000Y-63860000D03*
X114260000Y-63860000D03*
X115530000Y-63860000D03*
X116800000Y-63860000D03*
X118070000Y-63860000D03*
X119340000Y-63860000D03*
X120610000Y-63860000D03*
X121880000Y-63860000D03*
X123150000Y-63860000D03*
X124420000Y-63860000D03*
X125690000Y-63860000D03*
D18*
X116570000Y-75510000D03*
X117970000Y-75510000D03*
X119370000Y-75510000D03*
X116570000Y-74110000D03*
X117970000Y-74110000D03*
X119370000Y-74110000D03*
X116570000Y-72710000D03*
X117970000Y-72710000D03*
X119370000Y-72710000D03*
%TD*%
D19*
%TO.C,R11*%
X95472000Y-74090000D03*
X95472000Y-75110000D03*
%TD*%
D20*
%TO.C,U4*%
X95472000Y-82400000D03*
X94472000Y-82400000D03*
X93472000Y-82400000D03*
X92472000Y-82400000D03*
X91472000Y-82400000D03*
X91472000Y-76700000D03*
X92472000Y-76700000D03*
X93472000Y-76700000D03*
X94472000Y-76700000D03*
X95472000Y-76700000D03*
D21*
X93472000Y-79550000D03*
%TD*%
D22*
%TO.C,U14*%
X108528000Y-112805000D03*
X108528000Y-113307000D03*
X108528000Y-113809000D03*
X108528000Y-114311000D03*
X108528000Y-114813000D03*
X108528000Y-115315000D03*
X108528000Y-115817000D03*
X108528000Y-116319000D03*
X108528000Y-116821000D03*
X108528000Y-117323000D03*
X108528000Y-117825000D03*
X108528000Y-118327000D03*
X108528000Y-118829000D03*
X108528000Y-119331000D03*
X102696000Y-119318000D03*
X102696000Y-118818000D03*
X102696000Y-118318000D03*
X102696000Y-117818000D03*
X102696000Y-117318000D03*
X102696000Y-116821000D03*
X102696000Y-116318000D03*
X102696000Y-115817000D03*
X102696000Y-115315000D03*
X102696000Y-114813000D03*
X102696000Y-114311000D03*
X102696000Y-113818000D03*
X102696000Y-113307000D03*
X102696000Y-112818000D03*
%TD*%
D11*
%TO.C,R17*%
X97690400Y-83058000D03*
X96670400Y-83058000D03*
%TD*%
D23*
%TO.C,SW1*%
X132246000Y-104448000D03*
X128136000Y-104448000D03*
%TD*%
D24*
%TO.C,Q1*%
X97272000Y-76650000D03*
X97272000Y-74750000D03*
X99272000Y-75700000D03*
%TD*%
D25*
%TO.C,C26*%
X97597000Y-81400000D03*
X99147000Y-81400000D03*
%TD*%
D23*
%TO.C,SW2*%
X132142000Y-113155000D03*
X128032000Y-113155000D03*
%TD*%
D26*
%TO.C,R3*%
X89172000Y-77920000D03*
X89172000Y-76900000D03*
%TD*%
M02*
