%TF.GenerationSoftware,KiCad,Pcbnew,7.0.10*%
%TF.CreationDate,2024-03-11T15:02:14-04:00*%
%TF.ProjectId,bitaxeUltra,62697461-7865-4556-9c74-72612e6b6963,rev?*%
%TF.SameCoordinates,Original*%
%TF.FileFunction,Copper,L2,Inr*%
%TF.FilePolarity,Positive*%
%FSLAX46Y46*%
G04 Gerber Fmt 4.6, Leading zero omitted, Abs format (unit mm)*
G04 Created by KiCad (PCBNEW 7.0.10) date 2024-03-11 15:02:14*
%MOMM*%
%LPD*%
G01*
G04 APERTURE LIST*
%TA.AperFunction,ComponentPad*%
%ADD10C,0.800000*%
%TD*%
%TA.AperFunction,ComponentPad*%
%ADD11C,6.000000*%
%TD*%
%TA.AperFunction,ComponentPad*%
%ADD12R,1.700000X1.700000*%
%TD*%
%TA.AperFunction,ComponentPad*%
%ADD13O,1.700000X1.700000*%
%TD*%
%TA.AperFunction,ComponentPad*%
%ADD14C,1.574800*%
%TD*%
%TA.AperFunction,ComponentPad*%
%ADD15C,1.700000*%
%TD*%
%TA.AperFunction,ComponentPad*%
%ADD16O,1.800000X1.000000*%
%TD*%
%TA.AperFunction,ComponentPad*%
%ADD17O,2.100000X1.000000*%
%TD*%
%TA.AperFunction,ViaPad*%
%ADD18C,0.800000*%
%TD*%
%TA.AperFunction,ViaPad*%
%ADD19C,1.000000*%
%TD*%
%TA.AperFunction,ViaPad*%
%ADD20C,1.200000*%
%TD*%
G04 APERTURE END LIST*
D10*
%TO.N,GND*%
%TO.C,H7*%
X127985010Y-51120990D03*
X128644020Y-49530000D03*
X128644020Y-52711980D03*
X130235010Y-48870990D03*
D11*
X130235010Y-51120990D03*
D10*
X130235010Y-53370990D03*
X131826000Y-49530000D03*
X131826000Y-52711980D03*
X132485010Y-51120990D03*
%TD*%
%TO.N,GND*%
%TO.C,H9*%
X128052000Y-143728000D03*
X128711010Y-142137010D03*
X128711010Y-145318990D03*
X130302000Y-141478000D03*
D11*
X130302000Y-143728000D03*
D10*
X130302000Y-145978000D03*
X131892990Y-142137010D03*
X131892990Y-145318990D03*
X132552000Y-143728000D03*
%TD*%
D12*
%TO.N,+5V*%
%TO.C,J6*%
X99171505Y-51054000D03*
D13*
%TO.N,GND*%
X101711505Y-51054000D03*
%TO.N,Net-(J6-Pin_3)*%
X104251505Y-51054000D03*
%TO.N,Net-(J6-Pin_4)*%
X106791505Y-51054000D03*
%TO.N,Net-(J6-Pin_5)*%
X109331505Y-51054000D03*
%TO.N,Net-(J6-Pin_6)*%
X111871505Y-51054000D03*
%TD*%
D10*
%TO.N,GND*%
%TO.C,H10*%
X78455010Y-143830990D03*
X79114020Y-142240000D03*
X79114020Y-145421980D03*
X80705010Y-141580990D03*
D11*
X80705010Y-143830990D03*
D10*
X80705010Y-146080990D03*
X82296000Y-142240000D03*
X82296000Y-145421980D03*
X82955010Y-143830990D03*
%TD*%
%TO.N,GND*%
%TO.C,H8*%
X78558000Y-51054000D03*
X79217010Y-49463010D03*
X79217010Y-52644990D03*
X80808000Y-48804000D03*
D11*
X80808000Y-51054000D03*
D10*
X80808000Y-53304000D03*
X82398990Y-49463010D03*
X82398990Y-52644990D03*
X83058000Y-51054000D03*
%TD*%
D14*
%TO.N,GND*%
%TO.C,J4*%
X89621000Y-143622000D03*
%TO.N,+12V*%
X92161000Y-143622000D03*
%TO.N,/Fan and Screen/FAN_TACH*%
X94701000Y-143622000D03*
%TO.N,/Fan and Screen/FAN_PWM*%
X97241000Y-143622000D03*
%TD*%
D15*
%TO.N,GND*%
%TO.C,J9*%
X87005000Y-50292000D03*
D13*
%TO.N,+3V3*%
X87405000Y-52832000D03*
%TO.N,/SCL*%
X87005000Y-55372000D03*
%TO.N,/SDA*%
X87405000Y-57912000D03*
%TD*%
D16*
%TO.N,GND*%
%TO.C,J8*%
X79790000Y-87580000D03*
D17*
X83970000Y-87580000D03*
D16*
X79790000Y-78940000D03*
D17*
X83970000Y-78940000D03*
%TD*%
D18*
%TO.N,GND*%
X101193600Y-102311200D03*
X97078800Y-101955600D03*
X93776800Y-104140000D03*
X90119200Y-104292400D03*
%TO.N,/BM1366/RO*%
X119278400Y-116332000D03*
%TO.N,GND*%
X103784400Y-57861200D03*
X90779600Y-125171200D03*
X119126000Y-127610200D03*
X83972400Y-89154000D03*
X105156000Y-70408800D03*
X100685600Y-124409200D03*
X116179600Y-130606800D03*
X78486000Y-68783200D03*
X115874800Y-95656400D03*
X86360000Y-72948800D03*
D19*
X116261692Y-70202599D03*
D18*
X91846400Y-58420000D03*
X99009200Y-77266800D03*
X92557600Y-79146400D03*
X125600000Y-65940000D03*
X91622978Y-75417778D03*
X96600000Y-112710000D03*
X90373200Y-65328800D03*
X100533200Y-97637600D03*
X126847600Y-126695200D03*
X106396000Y-118533000D03*
X111140000Y-118640000D03*
X118430000Y-57150000D03*
X104082000Y-115436000D03*
X98530000Y-118780000D03*
X99314000Y-97688400D03*
X85598000Y-142240000D03*
X106408000Y-116351000D03*
X128120000Y-55550000D03*
X90424000Y-68834000D03*
X122072400Y-123444000D03*
X100584000Y-81330800D03*
X116382800Y-94488000D03*
X95808800Y-66192400D03*
X105673000Y-117442000D03*
X130505200Y-86106000D03*
X123818122Y-115423758D03*
D19*
X117910000Y-70950000D03*
D18*
X125222000Y-130860800D03*
X100330000Y-95910400D03*
X104855000Y-118563000D03*
X104132000Y-117472000D03*
X121210000Y-74547000D03*
X94972892Y-85342466D03*
X99517200Y-79959200D03*
X79756000Y-89154000D03*
X85902800Y-145948400D03*
X107144000Y-117442000D03*
X78435200Y-70053200D03*
X98247200Y-72186800D03*
X90897000Y-129309000D03*
X105156000Y-80346500D03*
X114140000Y-95310000D03*
X120802400Y-124561600D03*
X114096800Y-82956400D03*
X105623000Y-115406000D03*
X104867000Y-116381000D03*
D19*
X119454234Y-70914234D03*
D18*
X105330000Y-132320000D03*
X104430000Y-130240000D03*
X127101600Y-131216400D03*
X114030000Y-57490000D03*
D19*
X126380000Y-83110000D03*
D18*
X130962400Y-84531200D03*
X122620000Y-100670000D03*
X78435200Y-71170800D03*
X82448400Y-68935600D03*
X101570000Y-108460000D03*
X93573600Y-79146400D03*
X132297000Y-108743000D03*
X99161600Y-95910400D03*
X100431600Y-85445600D03*
X110185200Y-108356400D03*
X96763000Y-131278000D03*
X107094000Y-115406000D03*
X115099642Y-112550642D03*
%TO.N,/BM1366/INV_CLKO*%
X92430600Y-118795800D03*
%TO.N,/VDD*%
X103000000Y-104240000D03*
X105152000Y-113890000D03*
X94734104Y-86309946D03*
D20*
X106685000Y-103175000D03*
X106725000Y-105305000D03*
D18*
X104126000Y-113110000D03*
X108330000Y-104270000D03*
X105765600Y-84226400D03*
X120650000Y-65633600D03*
X107204000Y-113920000D03*
D20*
X106725000Y-107275000D03*
D18*
X106178000Y-113110000D03*
D20*
X104695000Y-103175000D03*
X104695000Y-101135000D03*
X106665000Y-101155000D03*
X104745000Y-107305000D03*
X104715000Y-105285000D03*
D18*
%TO.N,/ESP32/EN*%
X126293000Y-104178000D03*
X125650000Y-67760000D03*
X122101300Y-70905000D03*
%TO.N,/TX*%
X114330000Y-79470000D03*
%TO.N,/RX*%
X113000000Y-79462500D03*
%TO.N,/BM1366/VDD3_0*%
X115070000Y-111160000D03*
%TO.N,/BM1366/VDD2_0*%
X112530000Y-107800000D03*
%TO.N,/RST*%
X121437000Y-70037900D03*
%TO.N,/BM1366/PIN_MODE*%
X91480645Y-121097045D03*
%TO.N,/SCL*%
X82042000Y-116840000D03*
X106516574Y-59789722D03*
X97680000Y-121690000D03*
%TO.N,+0V8*%
X110180000Y-121260000D03*
X103530000Y-127490000D03*
%TO.N,/BM1366/VDD1_0*%
X111250000Y-106010000D03*
%TO.N,/BM1366/VDD1_1*%
X98602800Y-107213400D03*
%TO.N,/BM1366/VDD2_1*%
X97409000Y-108966000D03*
%TO.N,/BM1366/VDD3_1*%
X96130000Y-110920000D03*
%TO.N,/BM1366/CI*%
X117871000Y-117255777D03*
X121259600Y-103174800D03*
%TO.N,/BM1366/RST_N*%
X116605410Y-113775410D03*
%TO.N,/BM1366/RI*%
X95070000Y-114990000D03*
%TO.N,+3V3*%
X101915300Y-59537600D03*
X95453200Y-73050400D03*
X103835200Y-78638400D03*
X110642400Y-74930000D03*
X127766000Y-100521000D03*
X129610000Y-55490000D03*
X102158800Y-126441200D03*
X130251200Y-131318000D03*
D19*
X126000000Y-84500000D03*
D18*
X111658400Y-73914000D03*
X123394000Y-86260000D03*
X110947200Y-77978000D03*
D20*
X100736400Y-57861200D03*
D18*
X111658400Y-74980800D03*
X88442800Y-71577200D03*
X101600000Y-112115600D03*
X124206000Y-124155200D03*
X110591600Y-73964800D03*
X110591600Y-72948800D03*
X89408000Y-128016000D03*
X113750000Y-68810000D03*
X111556800Y-55473600D03*
X111658400Y-72898000D03*
%TO.N,/BM1366/CLKI*%
X115560005Y-116182943D03*
%TO.N,/BM1366/NRSTO*%
X95050000Y-112699800D03*
%TO.N,/BM1366/BO*%
X95030000Y-113880000D03*
%TO.N,/BM1366/CLKO*%
X95030000Y-116240000D03*
%TO.N,/BM1366/CO*%
X94996000Y-117551200D03*
%TO.N,/ESP32/P_TX*%
X125466555Y-60033445D03*
%TO.N,/ESP32/P_RX*%
X123040000Y-59730000D03*
%TO.N,/ESP32/IO0*%
X124830000Y-55100000D03*
X121828800Y-67530000D03*
X123719000Y-98362000D03*
%TO.N,/ESP32/XIN32*%
X122670000Y-78400000D03*
%TO.N,/BM1366/ADDR0*%
X120680000Y-118590000D03*
%TO.N,/ESP32/XOUT32*%
X119801400Y-78360000D03*
%TO.N,/ESP32/PWR_EN*%
X102158800Y-80873600D03*
%TO.N,/SDA*%
X81178400Y-116078000D03*
X95850000Y-121520000D03*
X103670000Y-60270000D03*
%TO.N,/BM1366/BI*%
X117348000Y-115112800D03*
%TO.N,/BM1366/ADDR1*%
X120500000Y-120710000D03*
%TO.N,Net-(U14-VDDIO_18_1)*%
X102550000Y-120650000D03*
%TO.N,Net-(U14-VDDIO_08_1)*%
X102590000Y-121850000D03*
%TO.N,+5V*%
X98044000Y-66294000D03*
X100177600Y-66294000D03*
X100787200Y-94284800D03*
X100279200Y-63347600D03*
X94691200Y-119481600D03*
X98602800Y-64820800D03*
X98602800Y-63195200D03*
X100431600Y-65074800D03*
X99872800Y-106476800D03*
X98247200Y-61772800D03*
X100076000Y-61772800D03*
%TO.N,IN+*%
X82245200Y-65532000D03*
X84683600Y-68681600D03*
X78536800Y-64820800D03*
X82753200Y-67056000D03*
X80670400Y-64719200D03*
X78536800Y-63652400D03*
X81330800Y-63601600D03*
X79908400Y-63601600D03*
%TO.N,Net-(Q1-D)*%
X96367600Y-78486000D03*
%TO.N,/Power/VDD_FB*%
X96012000Y-85185100D03*
X103149714Y-83352300D03*
X101396800Y-69392800D03*
X102143310Y-85338862D03*
%TO.N,/ESP32/PLUG_SENSE*%
X113800000Y-71990000D03*
%TO.N,/ESP32/PGOOD*%
X109474000Y-78333600D03*
%TO.N,/Power/ASIC_EN*%
X99720400Y-130505200D03*
X89611200Y-130556000D03*
X93717500Y-86292326D03*
X83921600Y-130149600D03*
X83718400Y-106222800D03*
X92964000Y-85074780D03*
%TO.N,Net-(J8-CC1)*%
X89851400Y-78841600D03*
X88950800Y-83552400D03*
%TO.N,Net-(J8-CC2)*%
X89997622Y-81770532D03*
X92557600Y-74625200D03*
%TO.N,+1V2*%
X108407200Y-123088400D03*
%TD*%
%TA.AperFunction,Conductor*%
%TO.N,GND*%
G36*
X129221941Y-47542502D02*
G01*
X129268434Y-47596158D01*
X129278538Y-47666432D01*
X129249044Y-47731012D01*
X129189318Y-47769396D01*
X129186431Y-47770207D01*
X129149499Y-47780102D01*
X129149486Y-47780106D01*
X128806229Y-47911870D01*
X128806221Y-47911874D01*
X128478612Y-48078799D01*
X128478606Y-48078802D01*
X128170237Y-48279058D01*
X128170232Y-48279062D01*
X127939297Y-48466068D01*
X128820430Y-49347201D01*
X128741565Y-49294505D01*
X128668644Y-49280000D01*
X128619396Y-49280000D01*
X128546475Y-49294505D01*
X128463780Y-49349760D01*
X128408525Y-49432455D01*
X128389122Y-49530000D01*
X128408525Y-49627545D01*
X128461220Y-49706409D01*
X127580088Y-48825277D01*
X127393082Y-49056212D01*
X127393078Y-49056217D01*
X127192822Y-49364586D01*
X127192819Y-49364592D01*
X127025894Y-49692201D01*
X127025890Y-49692209D01*
X126894126Y-50035466D01*
X126894122Y-50035479D01*
X126798958Y-50390636D01*
X126741438Y-50753807D01*
X126722196Y-51120982D01*
X126722196Y-51120997D01*
X126741438Y-51488172D01*
X126798958Y-51851343D01*
X126894122Y-52206500D01*
X126894126Y-52206513D01*
X127025890Y-52549770D01*
X127025894Y-52549778D01*
X127192819Y-52877387D01*
X127192822Y-52877393D01*
X127393087Y-53185774D01*
X127393091Y-53185779D01*
X127580087Y-53416700D01*
X127580088Y-53416701D01*
X128461223Y-52535565D01*
X128408525Y-52614435D01*
X128389122Y-52711980D01*
X128408525Y-52809525D01*
X128463780Y-52892220D01*
X128546475Y-52947475D01*
X128619396Y-52961980D01*
X128668644Y-52961980D01*
X128741565Y-52947475D01*
X128820425Y-52894781D01*
X127939297Y-53775910D01*
X127939298Y-53775911D01*
X128170220Y-53962908D01*
X128170225Y-53962912D01*
X128478606Y-54163177D01*
X128478612Y-54163180D01*
X128806221Y-54330105D01*
X128806229Y-54330109D01*
X129152571Y-54463057D01*
X129152036Y-54464449D01*
X129205783Y-54501149D01*
X129233462Y-54566528D01*
X129221401Y-54636492D01*
X129173429Y-54688830D01*
X129159550Y-54696075D01*
X129153253Y-54698878D01*
X129153248Y-54698882D01*
X128998744Y-54811135D01*
X128870965Y-54953048D01*
X128870958Y-54953058D01*
X128775476Y-55118438D01*
X128775473Y-55118445D01*
X128716457Y-55300072D01*
X128696496Y-55490000D01*
X128716457Y-55679927D01*
X128742374Y-55759688D01*
X128775473Y-55861556D01*
X128775476Y-55861561D01*
X128870958Y-56026941D01*
X128870965Y-56026951D01*
X128998744Y-56168864D01*
X128998747Y-56168866D01*
X129153248Y-56281118D01*
X129327712Y-56358794D01*
X129514513Y-56398500D01*
X129705487Y-56398500D01*
X129892288Y-56358794D01*
X130066752Y-56281118D01*
X130221253Y-56168866D01*
X130236020Y-56152466D01*
X130349034Y-56026951D01*
X130349035Y-56026949D01*
X130349040Y-56026944D01*
X130444527Y-55861556D01*
X130503542Y-55679928D01*
X130523504Y-55490000D01*
X130503542Y-55300072D01*
X130444527Y-55118444D01*
X130349040Y-54953056D01*
X130349038Y-54953054D01*
X130349034Y-54953048D01*
X130246160Y-54838795D01*
X130215442Y-54774788D01*
X130224207Y-54704334D01*
X130269670Y-54649803D01*
X130333202Y-54628658D01*
X130602192Y-54614561D01*
X130965363Y-54557041D01*
X131320520Y-54461877D01*
X131320533Y-54461873D01*
X131663790Y-54330109D01*
X131663798Y-54330105D01*
X131991407Y-54163180D01*
X131991413Y-54163177D01*
X132299792Y-53962914D01*
X132530721Y-53775910D01*
X131649590Y-52894779D01*
X131728455Y-52947475D01*
X131801376Y-52961980D01*
X131850624Y-52961980D01*
X131923545Y-52947475D01*
X132006240Y-52892220D01*
X132061495Y-52809525D01*
X132080898Y-52711980D01*
X132061495Y-52614435D01*
X132008798Y-52535569D01*
X132889930Y-53416701D01*
X133076934Y-53185772D01*
X133277197Y-52877393D01*
X133277200Y-52877387D01*
X133444125Y-52549778D01*
X133444129Y-52549770D01*
X133487869Y-52435824D01*
X133530954Y-52379396D01*
X133597708Y-52355219D01*
X133666935Y-52370970D01*
X133716657Y-52421648D01*
X133731500Y-52480978D01*
X133731500Y-62672099D01*
X133711498Y-62740220D01*
X133657842Y-62786713D01*
X133606121Y-62798097D01*
X127129999Y-62829999D01*
X127239999Y-82460000D01*
X127240000Y-82460000D01*
X133604886Y-82428836D01*
X133673101Y-82448504D01*
X133719856Y-82501931D01*
X133731500Y-82554834D01*
X133731500Y-142206911D01*
X133711498Y-142275032D01*
X133657842Y-142321525D01*
X133587568Y-142331629D01*
X133522988Y-142302135D01*
X133493233Y-142264114D01*
X133344191Y-141971602D01*
X133344187Y-141971596D01*
X133143922Y-141663215D01*
X133143918Y-141663210D01*
X132956921Y-141432288D01*
X132956920Y-141432287D01*
X132075791Y-142313416D01*
X132128485Y-142234555D01*
X132147888Y-142137010D01*
X132128485Y-142039465D01*
X132073230Y-141956770D01*
X131990535Y-141901515D01*
X131917614Y-141887010D01*
X131868366Y-141887010D01*
X131795445Y-141901515D01*
X131716576Y-141954213D01*
X132597711Y-141073078D01*
X132597710Y-141073077D01*
X132366789Y-140886081D01*
X132366784Y-140886077D01*
X132058403Y-140685812D01*
X132058397Y-140685809D01*
X131730788Y-140518884D01*
X131730780Y-140518880D01*
X131387523Y-140387116D01*
X131387510Y-140387112D01*
X131032353Y-140291948D01*
X130669182Y-140234428D01*
X130302007Y-140215186D01*
X130301993Y-140215186D01*
X129934817Y-140234428D01*
X129571646Y-140291948D01*
X129216489Y-140387112D01*
X129216476Y-140387116D01*
X128873219Y-140518880D01*
X128873211Y-140518884D01*
X128545602Y-140685809D01*
X128545596Y-140685812D01*
X128237227Y-140886068D01*
X128237222Y-140886072D01*
X128006287Y-141073078D01*
X128887419Y-141954210D01*
X128808555Y-141901515D01*
X128735634Y-141887010D01*
X128686386Y-141887010D01*
X128613465Y-141901515D01*
X128530770Y-141956770D01*
X128475515Y-142039465D01*
X128456112Y-142137010D01*
X128475515Y-142234555D01*
X128528210Y-142313419D01*
X127647078Y-141432287D01*
X127460072Y-141663222D01*
X127460068Y-141663227D01*
X127259812Y-141971596D01*
X127259809Y-141971602D01*
X127092884Y-142299211D01*
X127092880Y-142299219D01*
X126961116Y-142642476D01*
X126961112Y-142642489D01*
X126865948Y-142997646D01*
X126808428Y-143360817D01*
X126789186Y-143727992D01*
X126789186Y-143728007D01*
X126808428Y-144095182D01*
X126865948Y-144458353D01*
X126961112Y-144813510D01*
X126961116Y-144813523D01*
X127092880Y-145156780D01*
X127092884Y-145156788D01*
X127259809Y-145484397D01*
X127259812Y-145484403D01*
X127460077Y-145792784D01*
X127460081Y-145792789D01*
X127647077Y-146023710D01*
X127647078Y-146023711D01*
X128528213Y-145142575D01*
X128475515Y-145221445D01*
X128456112Y-145318990D01*
X128475515Y-145416535D01*
X128530770Y-145499230D01*
X128613465Y-145554485D01*
X128686386Y-145568990D01*
X128735634Y-145568990D01*
X128808555Y-145554485D01*
X128887417Y-145501791D01*
X128006287Y-146382920D01*
X128006288Y-146382921D01*
X128237210Y-146569918D01*
X128237215Y-146569922D01*
X128545596Y-146770187D01*
X128545602Y-146770190D01*
X128873211Y-146937115D01*
X128873219Y-146937119D01*
X129140892Y-147039869D01*
X129197320Y-147082955D01*
X129221497Y-147149708D01*
X129205746Y-147218935D01*
X129155068Y-147268657D01*
X129095738Y-147283500D01*
X82252860Y-147283500D01*
X82184739Y-147263498D01*
X82168504Y-147251095D01*
X82142528Y-147227682D01*
X82105319Y-147167220D01*
X82106705Y-147096237D01*
X82146248Y-147037271D01*
X82169682Y-147021822D01*
X82461407Y-146873180D01*
X82461413Y-146873177D01*
X82769792Y-146672914D01*
X83000721Y-146485910D01*
X82119589Y-145604778D01*
X82198455Y-145657475D01*
X82271376Y-145671980D01*
X82320624Y-145671980D01*
X82393545Y-145657475D01*
X82476240Y-145602220D01*
X82531495Y-145519525D01*
X82550898Y-145421980D01*
X82531495Y-145324435D01*
X82478799Y-145245570D01*
X83359930Y-146126701D01*
X83546934Y-145895772D01*
X83747197Y-145587393D01*
X83747200Y-145587387D01*
X83914125Y-145259778D01*
X83914129Y-145259770D01*
X84045893Y-144916513D01*
X84045897Y-144916500D01*
X84141061Y-144561343D01*
X84198581Y-144198172D01*
X84217824Y-143830997D01*
X84217824Y-143830982D01*
X84206872Y-143622000D01*
X88320652Y-143622000D01*
X88340407Y-143847802D01*
X88399072Y-144066742D01*
X88399074Y-144066747D01*
X88494867Y-144272175D01*
X88542947Y-144340841D01*
X89108134Y-143775653D01*
X89113673Y-143802304D01*
X89181131Y-143932493D01*
X89281213Y-144039655D01*
X89406495Y-144115840D01*
X89468887Y-144133321D01*
X88902157Y-144700051D01*
X88902157Y-144700053D01*
X88970822Y-144748132D01*
X89176251Y-144843925D01*
X89176257Y-144843927D01*
X89395197Y-144902592D01*
X89621000Y-144922347D01*
X89846802Y-144902592D01*
X90065742Y-144843927D01*
X90065748Y-144843925D01*
X90271169Y-144748136D01*
X90339841Y-144700051D01*
X90339841Y-144700050D01*
X89776007Y-144136216D01*
X89900752Y-144082032D01*
X90014493Y-143989497D01*
X90099051Y-143869706D01*
X90132840Y-143774631D01*
X90699050Y-144340841D01*
X90699051Y-144340841D01*
X90747138Y-144272166D01*
X90747139Y-144272164D01*
X90776528Y-144209138D01*
X90823444Y-144155852D01*
X90891721Y-144136390D01*
X90959681Y-144156931D01*
X91004917Y-144209135D01*
X91034429Y-144272423D01*
X91082336Y-144340841D01*
X91164491Y-144458170D01*
X91324830Y-144618509D01*
X91510575Y-144748569D01*
X91716083Y-144844399D01*
X91935110Y-144903087D01*
X92161000Y-144922850D01*
X92386890Y-144903087D01*
X92605917Y-144844399D01*
X92811425Y-144748569D01*
X92997170Y-144618509D01*
X93157509Y-144458170D01*
X93287569Y-144272425D01*
X93316805Y-144209727D01*
X93363722Y-144156443D01*
X93431999Y-144136982D01*
X93499959Y-144157524D01*
X93545194Y-144209727D01*
X93574431Y-144272425D01*
X93704491Y-144458170D01*
X93864830Y-144618509D01*
X94050575Y-144748569D01*
X94187459Y-144812399D01*
X94240743Y-144859315D01*
X94260204Y-144927592D01*
X94239662Y-144995552D01*
X94197210Y-145035711D01*
X94170143Y-145051339D01*
X94170142Y-145051340D01*
X94170141Y-145051340D01*
X94029829Y-145177677D01*
X93918853Y-145330422D01*
X93842055Y-145502912D01*
X93825087Y-145582744D01*
X93802800Y-145687596D01*
X93802800Y-145876406D01*
X93842055Y-146061089D01*
X93871267Y-146126701D01*
X93918853Y-146233579D01*
X94027356Y-146382920D01*
X94029830Y-146386325D01*
X94170143Y-146512663D01*
X94170145Y-146512664D01*
X94333655Y-146607067D01*
X94333662Y-146607070D01*
X94513225Y-146665413D01*
X94513222Y-146665413D01*
X94578015Y-146672222D01*
X94653923Y-146680201D01*
X94653926Y-146680201D01*
X94748074Y-146680201D01*
X94748077Y-146680201D01*
X94888775Y-146665413D01*
X95068343Y-146607068D01*
X95231857Y-146512663D01*
X95372170Y-146386325D01*
X95483149Y-146233575D01*
X95559945Y-146061089D01*
X95599200Y-145876406D01*
X95599200Y-145687596D01*
X95559945Y-145502913D01*
X95483149Y-145330427D01*
X95483147Y-145330424D01*
X95483146Y-145330422D01*
X95372170Y-145177677D01*
X95231858Y-145051340D01*
X95231850Y-145051334D01*
X95204790Y-145035711D01*
X95155797Y-144984328D01*
X95142362Y-144914614D01*
X95168749Y-144848704D01*
X95214540Y-144812399D01*
X95351425Y-144748569D01*
X95537170Y-144618509D01*
X95697509Y-144458170D01*
X95827569Y-144272425D01*
X95856805Y-144209727D01*
X95903722Y-144156443D01*
X95971999Y-144136982D01*
X96039959Y-144157524D01*
X96085194Y-144209727D01*
X96114431Y-144272425D01*
X96244491Y-144458170D01*
X96404830Y-144618509D01*
X96590575Y-144748569D01*
X96796083Y-144844399D01*
X97015110Y-144903087D01*
X97241000Y-144922850D01*
X97466890Y-144903087D01*
X97685917Y-144844399D01*
X97891425Y-144748569D01*
X98077170Y-144618509D01*
X98237509Y-144458170D01*
X98367569Y-144272425D01*
X98463399Y-144066917D01*
X98522087Y-143847890D01*
X98541850Y-143622000D01*
X98522087Y-143396110D01*
X98463399Y-143177083D01*
X98367569Y-142971575D01*
X98237509Y-142785830D01*
X98077170Y-142625491D01*
X97955407Y-142540232D01*
X97891425Y-142495431D01*
X97685920Y-142399602D01*
X97685915Y-142399600D01*
X97584264Y-142372363D01*
X97466890Y-142340913D01*
X97241000Y-142321150D01*
X97015110Y-142340913D01*
X96956423Y-142356638D01*
X96796084Y-142399600D01*
X96796079Y-142399602D01*
X96590574Y-142495431D01*
X96404833Y-142625488D01*
X96404827Y-142625493D01*
X96244493Y-142785827D01*
X96244488Y-142785833D01*
X96114431Y-142971574D01*
X96085195Y-143034271D01*
X96038277Y-143087556D01*
X95970000Y-143107017D01*
X95902040Y-143086475D01*
X95856805Y-143034271D01*
X95839726Y-142997646D01*
X95827569Y-142971575D01*
X95697509Y-142785830D01*
X95537170Y-142625491D01*
X95415407Y-142540232D01*
X95351425Y-142495431D01*
X95145920Y-142399602D01*
X95145915Y-142399600D01*
X95044264Y-142372363D01*
X94926890Y-142340913D01*
X94701000Y-142321150D01*
X94475110Y-142340913D01*
X94416423Y-142356638D01*
X94256084Y-142399600D01*
X94256079Y-142399602D01*
X94050574Y-142495431D01*
X93864833Y-142625488D01*
X93864827Y-142625493D01*
X93704493Y-142785827D01*
X93704488Y-142785833D01*
X93574431Y-142971574D01*
X93545195Y-143034271D01*
X93498277Y-143087556D01*
X93430000Y-143107017D01*
X93362040Y-143086475D01*
X93316805Y-143034271D01*
X93299726Y-142997646D01*
X93287569Y-142971575D01*
X93157509Y-142785830D01*
X92997170Y-142625491D01*
X92875407Y-142540232D01*
X92811425Y-142495431D01*
X92605920Y-142399602D01*
X92605915Y-142399600D01*
X92504264Y-142372363D01*
X92386890Y-142340913D01*
X92161000Y-142321150D01*
X91935110Y-142340913D01*
X91876423Y-142356638D01*
X91716084Y-142399600D01*
X91716079Y-142399602D01*
X91510574Y-142495431D01*
X91324833Y-142625488D01*
X91324827Y-142625493D01*
X91164493Y-142785827D01*
X91164488Y-142785833D01*
X91034430Y-142971575D01*
X91004917Y-143034865D01*
X90957999Y-143088149D01*
X90889721Y-143107609D01*
X90821762Y-143087066D01*
X90776528Y-143034862D01*
X90747134Y-142971825D01*
X90747132Y-142971822D01*
X90699053Y-142903157D01*
X90699051Y-142903157D01*
X90133864Y-143468344D01*
X90128327Y-143441696D01*
X90060869Y-143311507D01*
X89960787Y-143204345D01*
X89835505Y-143128160D01*
X89773111Y-143110678D01*
X90339841Y-142543947D01*
X90271175Y-142495867D01*
X90065747Y-142400074D01*
X90065742Y-142400072D01*
X89846802Y-142341407D01*
X89621000Y-142321652D01*
X89395197Y-142341407D01*
X89176257Y-142400072D01*
X89176252Y-142400074D01*
X88970824Y-142495867D01*
X88902156Y-142543947D01*
X89465992Y-143107783D01*
X89341248Y-143161968D01*
X89227507Y-143254503D01*
X89142949Y-143374294D01*
X89109159Y-143469368D01*
X88542947Y-142903156D01*
X88494867Y-142971824D01*
X88399074Y-143177252D01*
X88399072Y-143177257D01*
X88340407Y-143396197D01*
X88320652Y-143622000D01*
X84206872Y-143622000D01*
X84198581Y-143463807D01*
X84141061Y-143100636D01*
X84045897Y-142745479D01*
X84045893Y-142745466D01*
X83914129Y-142402209D01*
X83914125Y-142402201D01*
X83747200Y-142074592D01*
X83747197Y-142074586D01*
X83546932Y-141766205D01*
X83546928Y-141766200D01*
X83359931Y-141535278D01*
X83359930Y-141535277D01*
X82478802Y-142416404D01*
X82531495Y-142337545D01*
X82550898Y-142240000D01*
X82531495Y-142142455D01*
X82476240Y-142059760D01*
X82393545Y-142004505D01*
X82320624Y-141990000D01*
X82271376Y-141990000D01*
X82198455Y-142004505D01*
X82119586Y-142057203D01*
X83000721Y-141176068D01*
X83000720Y-141176067D01*
X82769799Y-140989071D01*
X82769794Y-140989067D01*
X82461413Y-140788802D01*
X82461407Y-140788799D01*
X82133798Y-140621874D01*
X82133790Y-140621870D01*
X81790533Y-140490106D01*
X81790520Y-140490102D01*
X81435363Y-140394938D01*
X81072192Y-140337418D01*
X80705017Y-140318176D01*
X80705003Y-140318176D01*
X80337827Y-140337418D01*
X79974656Y-140394938D01*
X79619499Y-140490102D01*
X79619486Y-140490106D01*
X79276229Y-140621870D01*
X79276221Y-140621874D01*
X78948612Y-140788799D01*
X78948606Y-140788802D01*
X78640237Y-140989058D01*
X78640232Y-140989062D01*
X78409297Y-141176068D01*
X79290429Y-142057200D01*
X79211565Y-142004505D01*
X79138644Y-141990000D01*
X79089396Y-141990000D01*
X79016475Y-142004505D01*
X78933780Y-142059760D01*
X78878525Y-142142455D01*
X78859122Y-142240000D01*
X78878525Y-142337545D01*
X78931221Y-142416410D01*
X78050088Y-141535277D01*
X77863082Y-141766212D01*
X77863078Y-141766217D01*
X77662822Y-142074586D01*
X77662819Y-142074592D01*
X77495894Y-142402201D01*
X77495890Y-142402209D01*
X77433131Y-142565704D01*
X77390045Y-142622132D01*
X77323292Y-142646309D01*
X77254065Y-142630558D01*
X77204343Y-142579880D01*
X77189500Y-142520550D01*
X77189500Y-136360000D01*
X82704390Y-136360000D01*
X82724803Y-136645424D01*
X82785631Y-136925046D01*
X82885632Y-137193160D01*
X82885637Y-137193170D01*
X83022768Y-137444307D01*
X83022772Y-137444312D01*
X83022774Y-137444315D01*
X83166869Y-137636804D01*
X83194262Y-137673396D01*
X83194270Y-137673405D01*
X83396594Y-137875729D01*
X83396603Y-137875737D01*
X83396605Y-137875739D01*
X83625685Y-138047226D01*
X83625687Y-138047227D01*
X83625692Y-138047231D01*
X83876829Y-138184362D01*
X83876839Y-138184367D01*
X84144954Y-138284369D01*
X84424572Y-138345196D01*
X84638552Y-138360500D01*
X84638558Y-138360500D01*
X84781442Y-138360500D01*
X84781448Y-138360500D01*
X84995428Y-138345196D01*
X85275046Y-138284369D01*
X85543161Y-138184367D01*
X85573144Y-138167994D01*
X85794307Y-138047231D01*
X85794309Y-138047229D01*
X85794315Y-138047226D01*
X86023395Y-137875739D01*
X86225739Y-137673395D01*
X86397226Y-137444315D01*
X86397229Y-137444309D01*
X86397231Y-137444307D01*
X86534362Y-137193170D01*
X86534367Y-137193161D01*
X86634369Y-136925046D01*
X86695196Y-136645428D01*
X86706943Y-136481182D01*
X124379500Y-136481182D01*
X124401224Y-136625311D01*
X124418604Y-136740619D01*
X124495933Y-136991314D01*
X124495938Y-136991327D01*
X124609773Y-137227706D01*
X124609777Y-137227713D01*
X124757450Y-137444307D01*
X124757567Y-137444479D01*
X124936019Y-137636805D01*
X125141143Y-137800386D01*
X125141146Y-137800388D01*
X125368352Y-137931566D01*
X125368356Y-137931567D01*
X125368357Y-137931568D01*
X125612584Y-138027420D01*
X125868370Y-138085802D01*
X126064506Y-138100500D01*
X126064507Y-138100500D01*
X126195493Y-138100500D01*
X126195494Y-138100500D01*
X126391630Y-138085802D01*
X126647416Y-138027420D01*
X126891643Y-137931568D01*
X126891645Y-137931566D01*
X126891647Y-137931566D01*
X127005250Y-137865977D01*
X127118857Y-137800386D01*
X127323981Y-137636805D01*
X127502433Y-137444479D01*
X127650228Y-137227704D01*
X127764063Y-136991323D01*
X127841396Y-136740615D01*
X127880500Y-136481182D01*
X127880500Y-136218818D01*
X127841396Y-135959385D01*
X127841395Y-135959383D01*
X127841395Y-135959380D01*
X127764066Y-135708685D01*
X127764061Y-135708672D01*
X127715854Y-135608570D01*
X127650228Y-135472296D01*
X127650226Y-135472293D01*
X127650222Y-135472286D01*
X127502437Y-135255527D01*
X127502433Y-135255521D01*
X127323981Y-135063195D01*
X127118857Y-134899614D01*
X127118852Y-134899611D01*
X127118853Y-134899611D01*
X126891647Y-134768433D01*
X126891639Y-134768430D01*
X126647419Y-134672581D01*
X126647417Y-134672580D01*
X126391633Y-134614198D01*
X126244528Y-134603174D01*
X126195494Y-134599500D01*
X126064506Y-134599500D01*
X126025278Y-134602439D01*
X125868366Y-134614198D01*
X125612582Y-134672580D01*
X125612580Y-134672581D01*
X125368360Y-134768430D01*
X125368352Y-134768433D01*
X125141146Y-134899611D01*
X124936018Y-135063195D01*
X124757566Y-135255522D01*
X124757562Y-135255527D01*
X124609777Y-135472286D01*
X124609773Y-135472293D01*
X124495938Y-135708672D01*
X124495933Y-135708685D01*
X124418604Y-135959380D01*
X124396879Y-136103514D01*
X124379500Y-136218818D01*
X124379500Y-136481182D01*
X86706943Y-136481182D01*
X86715610Y-136360000D01*
X86695196Y-136074572D01*
X86634369Y-135794954D01*
X86534367Y-135526839D01*
X86534362Y-135526829D01*
X86397231Y-135275692D01*
X86397227Y-135275687D01*
X86397226Y-135275685D01*
X86225739Y-135046605D01*
X86225737Y-135046603D01*
X86225729Y-135046594D01*
X86023405Y-134844270D01*
X86023396Y-134844262D01*
X85922100Y-134768433D01*
X85794315Y-134672774D01*
X85794313Y-134672773D01*
X85794312Y-134672772D01*
X85794307Y-134672768D01*
X85543170Y-134535637D01*
X85543160Y-134535632D01*
X85275046Y-134435631D01*
X84995424Y-134374803D01*
X84861775Y-134365245D01*
X84781448Y-134359500D01*
X84638552Y-134359500D01*
X84562954Y-134364906D01*
X84424575Y-134374803D01*
X84144953Y-134435631D01*
X83876839Y-134535632D01*
X83876829Y-134535637D01*
X83625692Y-134672768D01*
X83625687Y-134672772D01*
X83396603Y-134844262D01*
X83396594Y-134844270D01*
X83194270Y-135046594D01*
X83194262Y-135046603D01*
X83022772Y-135275687D01*
X83022768Y-135275692D01*
X82885637Y-135526829D01*
X82885632Y-135526839D01*
X82785631Y-135794953D01*
X82724803Y-136074575D01*
X82704390Y-136360000D01*
X77189500Y-136360000D01*
X77189500Y-130149600D01*
X83008096Y-130149600D01*
X83028057Y-130339527D01*
X83050793Y-130409500D01*
X83087073Y-130521156D01*
X83087076Y-130521161D01*
X83182558Y-130686541D01*
X83182565Y-130686551D01*
X83310344Y-130828464D01*
X83310347Y-130828466D01*
X83464848Y-130940718D01*
X83639312Y-131018394D01*
X83826113Y-131058100D01*
X84017087Y-131058100D01*
X84203888Y-131018394D01*
X84378352Y-130940718D01*
X84532853Y-130828466D01*
X84532855Y-130828464D01*
X84660634Y-130686551D01*
X84660635Y-130686549D01*
X84660640Y-130686544D01*
X84736010Y-130556000D01*
X88697696Y-130556000D01*
X88717657Y-130745927D01*
X88744476Y-130828464D01*
X88776673Y-130927556D01*
X88776676Y-130927561D01*
X88872158Y-131092941D01*
X88872165Y-131092951D01*
X88999944Y-131234864D01*
X88999947Y-131234866D01*
X89154448Y-131347118D01*
X89328912Y-131424794D01*
X89515713Y-131464500D01*
X89706687Y-131464500D01*
X89893488Y-131424794D01*
X90067952Y-131347118D01*
X90222453Y-131234866D01*
X90222455Y-131234864D01*
X90350234Y-131092951D01*
X90350235Y-131092949D01*
X90350240Y-131092944D01*
X90445727Y-130927556D01*
X90504742Y-130745928D01*
X90524704Y-130556000D01*
X90519365Y-130505200D01*
X98806896Y-130505200D01*
X98826857Y-130695127D01*
X98843364Y-130745928D01*
X98885873Y-130876756D01*
X98885876Y-130876761D01*
X98981358Y-131042141D01*
X98981365Y-131042151D01*
X99109144Y-131184064D01*
X99109147Y-131184066D01*
X99263648Y-131296318D01*
X99438112Y-131373994D01*
X99624913Y-131413700D01*
X99815887Y-131413700D01*
X100002688Y-131373994D01*
X100128453Y-131318000D01*
X129337696Y-131318000D01*
X129357657Y-131507927D01*
X129387726Y-131600470D01*
X129416673Y-131689556D01*
X129416676Y-131689561D01*
X129512158Y-131854941D01*
X129512165Y-131854951D01*
X129639944Y-131996864D01*
X129639947Y-131996866D01*
X129794448Y-132109118D01*
X129968912Y-132186794D01*
X130155713Y-132226500D01*
X130346687Y-132226500D01*
X130533488Y-132186794D01*
X130707952Y-132109118D01*
X130862453Y-131996866D01*
X130990240Y-131854944D01*
X131085727Y-131689556D01*
X131144742Y-131507928D01*
X131164704Y-131318000D01*
X131144742Y-131128072D01*
X131085727Y-130946444D01*
X130990240Y-130781056D01*
X130990238Y-130781054D01*
X130990234Y-130781048D01*
X130862455Y-130639135D01*
X130707952Y-130526882D01*
X130533488Y-130449206D01*
X130346687Y-130409500D01*
X130155713Y-130409500D01*
X129968911Y-130449206D01*
X129794447Y-130526882D01*
X129639944Y-130639135D01*
X129512165Y-130781048D01*
X129512158Y-130781058D01*
X129416676Y-130946438D01*
X129416673Y-130946445D01*
X129357657Y-131128072D01*
X129337696Y-131318000D01*
X100128453Y-131318000D01*
X100177152Y-131296318D01*
X100331653Y-131184066D01*
X100459440Y-131042144D01*
X100554927Y-130876756D01*
X100613942Y-130695128D01*
X100633904Y-130505200D01*
X100613942Y-130315272D01*
X100554927Y-130133644D01*
X100459440Y-129968256D01*
X100459438Y-129968254D01*
X100459434Y-129968248D01*
X100331655Y-129826335D01*
X100177152Y-129714082D01*
X100002688Y-129636406D01*
X99815887Y-129596700D01*
X99624913Y-129596700D01*
X99438111Y-129636406D01*
X99263647Y-129714082D01*
X99109144Y-129826335D01*
X98981365Y-129968248D01*
X98981358Y-129968258D01*
X98885876Y-130133638D01*
X98885873Y-130133645D01*
X98826857Y-130315272D01*
X98806896Y-130505200D01*
X90519365Y-130505200D01*
X90504742Y-130366072D01*
X90445727Y-130184444D01*
X90350240Y-130019056D01*
X90350238Y-130019054D01*
X90350234Y-130019048D01*
X90222455Y-129877135D01*
X90067952Y-129764882D01*
X89893488Y-129687206D01*
X89706687Y-129647500D01*
X89515713Y-129647500D01*
X89328911Y-129687206D01*
X89154447Y-129764882D01*
X88999944Y-129877135D01*
X88872165Y-130019048D01*
X88872158Y-130019058D01*
X88776676Y-130184438D01*
X88776673Y-130184445D01*
X88717657Y-130366072D01*
X88697696Y-130556000D01*
X84736010Y-130556000D01*
X84756127Y-130521156D01*
X84815142Y-130339528D01*
X84835104Y-130149600D01*
X84815142Y-129959672D01*
X84756127Y-129778044D01*
X84660640Y-129612656D01*
X84660638Y-129612654D01*
X84660634Y-129612648D01*
X84532855Y-129470735D01*
X84378352Y-129358482D01*
X84203888Y-129280806D01*
X84017087Y-129241100D01*
X83826113Y-129241100D01*
X83639311Y-129280806D01*
X83464847Y-129358482D01*
X83310344Y-129470735D01*
X83182565Y-129612648D01*
X83182558Y-129612658D01*
X83087076Y-129778038D01*
X83087073Y-129778045D01*
X83028057Y-129959672D01*
X83008096Y-130149600D01*
X77189500Y-130149600D01*
X77189500Y-128016000D01*
X88494496Y-128016000D01*
X88514457Y-128205927D01*
X88538889Y-128281118D01*
X88573473Y-128387556D01*
X88573476Y-128387561D01*
X88668958Y-128552941D01*
X88668965Y-128552951D01*
X88796744Y-128694864D01*
X88796747Y-128694866D01*
X88951248Y-128807118D01*
X89125712Y-128884794D01*
X89312513Y-128924500D01*
X89503487Y-128924500D01*
X89690288Y-128884794D01*
X89864752Y-128807118D01*
X90019253Y-128694866D01*
X90147040Y-128552944D01*
X90242527Y-128387556D01*
X90301542Y-128205928D01*
X90321504Y-128016000D01*
X90301542Y-127826072D01*
X90242527Y-127644444D01*
X90147040Y-127479056D01*
X90147038Y-127479054D01*
X90147034Y-127479048D01*
X90019255Y-127337135D01*
X89864752Y-127224882D01*
X89690288Y-127147206D01*
X89503487Y-127107500D01*
X89312513Y-127107500D01*
X89125711Y-127147206D01*
X88951247Y-127224882D01*
X88796744Y-127337135D01*
X88668965Y-127479048D01*
X88668958Y-127479058D01*
X88662641Y-127490000D01*
X88573473Y-127644444D01*
X88558999Y-127688986D01*
X88514457Y-127826072D01*
X88494496Y-128016000D01*
X77189500Y-128016000D01*
X77189500Y-126441200D01*
X101245296Y-126441200D01*
X101265257Y-126631127D01*
X101287273Y-126698882D01*
X101324273Y-126812756D01*
X101324276Y-126812761D01*
X101419758Y-126978141D01*
X101419765Y-126978151D01*
X101547544Y-127120064D01*
X101547547Y-127120066D01*
X101702048Y-127232318D01*
X101876512Y-127309994D01*
X102063313Y-127349700D01*
X102254287Y-127349700D01*
X102441088Y-127309994D01*
X102445582Y-127307992D01*
X102515949Y-127298558D01*
X102580247Y-127328663D01*
X102618061Y-127388751D01*
X102622143Y-127436268D01*
X102616496Y-127489999D01*
X102636457Y-127679927D01*
X102666526Y-127772470D01*
X102695473Y-127861556D01*
X102695476Y-127861561D01*
X102790958Y-128026941D01*
X102790965Y-128026951D01*
X102918744Y-128168864D01*
X102918747Y-128168866D01*
X103073248Y-128281118D01*
X103247712Y-128358794D01*
X103434513Y-128398500D01*
X103625487Y-128398500D01*
X103812288Y-128358794D01*
X103986752Y-128281118D01*
X104141253Y-128168866D01*
X104269040Y-128026944D01*
X104364527Y-127861556D01*
X104423542Y-127679928D01*
X104443504Y-127490000D01*
X104423542Y-127300072D01*
X104364527Y-127118444D01*
X104269040Y-126953056D01*
X104269038Y-126953054D01*
X104269034Y-126953048D01*
X104141255Y-126811135D01*
X103986752Y-126698882D01*
X103812288Y-126621206D01*
X103625487Y-126581500D01*
X103434513Y-126581500D01*
X103247707Y-126621207D01*
X103243203Y-126623212D01*
X103172835Y-126632639D01*
X103108541Y-126602526D01*
X103070734Y-126542434D01*
X103066656Y-126494933D01*
X103072304Y-126441200D01*
X103052342Y-126251272D01*
X102993327Y-126069644D01*
X102897840Y-125904256D01*
X102897838Y-125904254D01*
X102897834Y-125904248D01*
X102770055Y-125762335D01*
X102615552Y-125650082D01*
X102441088Y-125572406D01*
X102254287Y-125532700D01*
X102063313Y-125532700D01*
X101876511Y-125572406D01*
X101702047Y-125650082D01*
X101547544Y-125762335D01*
X101419765Y-125904248D01*
X101419758Y-125904258D01*
X101324276Y-126069638D01*
X101324273Y-126069645D01*
X101265257Y-126251272D01*
X101245296Y-126441200D01*
X77189500Y-126441200D01*
X77189500Y-124155200D01*
X123292496Y-124155200D01*
X123312457Y-124345127D01*
X123342526Y-124437670D01*
X123371473Y-124526756D01*
X123371476Y-124526761D01*
X123466958Y-124692141D01*
X123466965Y-124692151D01*
X123594744Y-124834064D01*
X123594747Y-124834066D01*
X123749248Y-124946318D01*
X123923712Y-125023994D01*
X124110513Y-125063700D01*
X124301487Y-125063700D01*
X124488288Y-125023994D01*
X124662752Y-124946318D01*
X124817253Y-124834066D01*
X124945040Y-124692144D01*
X125040527Y-124526756D01*
X125099542Y-124345128D01*
X125119504Y-124155200D01*
X125099542Y-123965272D01*
X125040527Y-123783644D01*
X124945040Y-123618256D01*
X124945038Y-123618254D01*
X124945034Y-123618248D01*
X124817255Y-123476335D01*
X124662752Y-123364082D01*
X124488288Y-123286406D01*
X124301487Y-123246700D01*
X124110513Y-123246700D01*
X123923711Y-123286406D01*
X123749247Y-123364082D01*
X123594744Y-123476335D01*
X123466965Y-123618248D01*
X123466958Y-123618258D01*
X123371476Y-123783638D01*
X123371473Y-123783645D01*
X123312457Y-123965272D01*
X123292496Y-124155200D01*
X77189500Y-124155200D01*
X77189500Y-123088400D01*
X107493696Y-123088400D01*
X107513657Y-123278327D01*
X107541521Y-123364082D01*
X107572673Y-123459956D01*
X107601041Y-123509091D01*
X107668158Y-123625341D01*
X107668165Y-123625351D01*
X107795944Y-123767264D01*
X107795947Y-123767266D01*
X107950448Y-123879518D01*
X108124912Y-123957194D01*
X108311713Y-123996900D01*
X108502687Y-123996900D01*
X108689488Y-123957194D01*
X108863952Y-123879518D01*
X109018453Y-123767266D01*
X109146240Y-123625344D01*
X109241727Y-123459956D01*
X109300742Y-123278328D01*
X109320704Y-123088400D01*
X109300742Y-122898472D01*
X109241727Y-122716844D01*
X109146240Y-122551456D01*
X109146238Y-122551454D01*
X109146234Y-122551448D01*
X109018455Y-122409535D01*
X108863952Y-122297282D01*
X108689488Y-122219606D01*
X108502687Y-122179900D01*
X108311713Y-122179900D01*
X108124911Y-122219606D01*
X107950447Y-122297282D01*
X107795944Y-122409535D01*
X107668165Y-122551448D01*
X107668158Y-122551458D01*
X107572676Y-122716838D01*
X107572673Y-122716844D01*
X107559138Y-122758500D01*
X107513657Y-122898472D01*
X107493696Y-123088400D01*
X77189500Y-123088400D01*
X77189500Y-121097045D01*
X90567141Y-121097045D01*
X90587102Y-121286972D01*
X90605165Y-121342563D01*
X90646118Y-121468601D01*
X90664288Y-121500072D01*
X90741603Y-121633986D01*
X90741610Y-121633996D01*
X90869389Y-121775909D01*
X90869392Y-121775911D01*
X91023893Y-121888163D01*
X91198357Y-121965839D01*
X91385158Y-122005545D01*
X91576132Y-122005545D01*
X91762933Y-121965839D01*
X91937397Y-121888163D01*
X92091898Y-121775911D01*
X92091900Y-121775909D01*
X92219679Y-121633996D01*
X92219680Y-121633994D01*
X92219685Y-121633989D01*
X92285497Y-121520000D01*
X94936496Y-121520000D01*
X94956457Y-121709927D01*
X94977897Y-121775909D01*
X95015473Y-121891556D01*
X95043841Y-121940691D01*
X95110958Y-122056941D01*
X95110965Y-122056951D01*
X95238744Y-122198864D01*
X95299999Y-122243368D01*
X95393248Y-122311118D01*
X95567712Y-122388794D01*
X95754513Y-122428500D01*
X95945487Y-122428500D01*
X96132288Y-122388794D01*
X96306752Y-122311118D01*
X96461253Y-122198866D01*
X96584883Y-122061561D01*
X96589034Y-122056951D01*
X96589035Y-122056949D01*
X96589040Y-122056944D01*
X96610669Y-122019480D01*
X96662051Y-121970488D01*
X96731765Y-121957052D01*
X96797676Y-121983438D01*
X96838858Y-122041270D01*
X96839621Y-122043545D01*
X96845471Y-122061552D01*
X96845476Y-122061561D01*
X96940958Y-122226941D01*
X96940965Y-122226951D01*
X97068744Y-122368864D01*
X97068747Y-122368866D01*
X97223248Y-122481118D01*
X97397712Y-122558794D01*
X97584513Y-122598500D01*
X97775487Y-122598500D01*
X97962288Y-122558794D01*
X98136752Y-122481118D01*
X98291253Y-122368866D01*
X98291255Y-122368864D01*
X98419034Y-122226951D01*
X98419035Y-122226949D01*
X98419040Y-122226944D01*
X98514527Y-122061556D01*
X98573542Y-121879928D01*
X98593504Y-121690000D01*
X98573542Y-121500072D01*
X98514527Y-121318444D01*
X98419040Y-121153056D01*
X98419038Y-121153054D01*
X98419034Y-121153048D01*
X98291255Y-121011135D01*
X98136752Y-120898882D01*
X97962288Y-120821206D01*
X97775487Y-120781500D01*
X97584513Y-120781500D01*
X97397711Y-120821206D01*
X97223247Y-120898882D01*
X97068744Y-121011135D01*
X96940965Y-121153048D01*
X96940961Y-121153054D01*
X96940960Y-121153056D01*
X96933226Y-121166451D01*
X96919329Y-121190521D01*
X96867945Y-121239513D01*
X96798231Y-121252947D01*
X96732320Y-121226559D01*
X96691140Y-121168726D01*
X96690405Y-121166534D01*
X96684527Y-121148444D01*
X96589040Y-120983056D01*
X96589038Y-120983054D01*
X96589034Y-120983048D01*
X96461255Y-120841135D01*
X96306752Y-120728882D01*
X96132288Y-120651206D01*
X96126614Y-120650000D01*
X101636496Y-120650000D01*
X101656457Y-120839927D01*
X101656850Y-120841135D01*
X101715473Y-121021556D01*
X101715476Y-121021561D01*
X101810957Y-121186940D01*
X101810958Y-121186942D01*
X101810960Y-121186944D01*
X101814181Y-121190521D01*
X101818443Y-121195255D01*
X101849158Y-121259264D01*
X101840392Y-121329717D01*
X101833923Y-121342563D01*
X101755476Y-121478438D01*
X101755473Y-121478445D01*
X101696457Y-121660072D01*
X101676496Y-121850000D01*
X101696457Y-122039927D01*
X101703485Y-122061556D01*
X101755473Y-122221556D01*
X101755476Y-122221561D01*
X101850958Y-122386941D01*
X101850965Y-122386951D01*
X101978744Y-122528864D01*
X101978747Y-122528866D01*
X102133248Y-122641118D01*
X102307712Y-122718794D01*
X102494513Y-122758500D01*
X102685487Y-122758500D01*
X102872288Y-122718794D01*
X103046752Y-122641118D01*
X103201253Y-122528866D01*
X103201255Y-122528864D01*
X103329034Y-122386951D01*
X103329035Y-122386949D01*
X103329040Y-122386944D01*
X103424527Y-122221556D01*
X103483542Y-122039928D01*
X103503504Y-121850000D01*
X103483542Y-121660072D01*
X103424527Y-121478444D01*
X103338659Y-121329717D01*
X103329042Y-121313059D01*
X103329041Y-121313058D01*
X103329040Y-121313056D01*
X103321556Y-121304744D01*
X103300085Y-121260000D01*
X109266496Y-121260000D01*
X109286457Y-121449927D01*
X109309226Y-121520000D01*
X109345473Y-121631556D01*
X109345476Y-121631561D01*
X109440958Y-121796941D01*
X109440965Y-121796951D01*
X109568744Y-121938864D01*
X109568747Y-121938866D01*
X109723248Y-122051118D01*
X109897712Y-122128794D01*
X110084513Y-122168500D01*
X110275487Y-122168500D01*
X110462288Y-122128794D01*
X110636752Y-122051118D01*
X110791253Y-121938866D01*
X110919040Y-121796944D01*
X111014527Y-121631556D01*
X111073542Y-121449928D01*
X111093504Y-121260000D01*
X111073542Y-121070072D01*
X111014527Y-120888444D01*
X110919040Y-120723056D01*
X110919038Y-120723054D01*
X110919034Y-120723048D01*
X110907286Y-120710000D01*
X119586496Y-120710000D01*
X119606457Y-120899927D01*
X119633468Y-120983056D01*
X119665473Y-121081556D01*
X119665476Y-121081561D01*
X119760958Y-121246941D01*
X119760965Y-121246951D01*
X119888744Y-121388864D01*
X119888747Y-121388866D01*
X120043248Y-121501118D01*
X120217712Y-121578794D01*
X120404513Y-121618500D01*
X120595487Y-121618500D01*
X120782288Y-121578794D01*
X120956752Y-121501118D01*
X121111253Y-121388866D01*
X121111255Y-121388864D01*
X121239034Y-121246951D01*
X121239035Y-121246949D01*
X121239040Y-121246944D01*
X121334527Y-121081556D01*
X121393542Y-120899928D01*
X121413504Y-120710000D01*
X121393542Y-120520072D01*
X121334527Y-120338444D01*
X121239040Y-120173056D01*
X121239038Y-120173054D01*
X121239034Y-120173048D01*
X121111255Y-120031135D01*
X120956752Y-119918882D01*
X120782288Y-119841206D01*
X120595487Y-119801500D01*
X120404513Y-119801500D01*
X120217711Y-119841206D01*
X120043247Y-119918882D01*
X119888744Y-120031135D01*
X119760965Y-120173048D01*
X119760958Y-120173058D01*
X119665476Y-120338438D01*
X119665473Y-120338445D01*
X119606457Y-120520072D01*
X119586496Y-120710000D01*
X110907286Y-120710000D01*
X110791255Y-120581135D01*
X110636752Y-120468882D01*
X110462288Y-120391206D01*
X110275487Y-120351500D01*
X110084513Y-120351500D01*
X109897711Y-120391206D01*
X109723247Y-120468882D01*
X109568744Y-120581135D01*
X109440965Y-120723048D01*
X109440958Y-120723058D01*
X109345476Y-120888438D01*
X109345473Y-120888444D01*
X109341742Y-120899927D01*
X109286457Y-121070072D01*
X109266496Y-121260000D01*
X103300085Y-121260000D01*
X103290841Y-121240736D01*
X103299607Y-121170282D01*
X103306076Y-121157436D01*
X103308605Y-121153056D01*
X103384527Y-121021556D01*
X103443542Y-120839928D01*
X103463504Y-120650000D01*
X103443542Y-120460072D01*
X103384527Y-120278444D01*
X103289040Y-120113056D01*
X103289038Y-120113054D01*
X103289034Y-120113048D01*
X103161255Y-119971135D01*
X103006752Y-119858882D01*
X102832288Y-119781206D01*
X102645487Y-119741500D01*
X102454513Y-119741500D01*
X102267711Y-119781206D01*
X102093247Y-119858882D01*
X101938744Y-119971135D01*
X101810965Y-120113048D01*
X101810958Y-120113058D01*
X101715476Y-120278438D01*
X101715473Y-120278445D01*
X101656457Y-120460072D01*
X101636496Y-120650000D01*
X96126614Y-120650000D01*
X95945487Y-120611500D01*
X95754513Y-120611500D01*
X95567711Y-120651206D01*
X95393247Y-120728882D01*
X95238744Y-120841135D01*
X95110965Y-120983048D01*
X95110958Y-120983058D01*
X95045148Y-121097045D01*
X95015473Y-121148444D01*
X95001801Y-121190521D01*
X94956457Y-121330072D01*
X94936496Y-121520000D01*
X92285497Y-121520000D01*
X92315172Y-121468601D01*
X92374187Y-121286973D01*
X92394149Y-121097045D01*
X92374187Y-120907117D01*
X92315172Y-120725489D01*
X92219685Y-120560101D01*
X92219683Y-120560099D01*
X92219679Y-120560093D01*
X92091900Y-120418180D01*
X91937397Y-120305927D01*
X91762933Y-120228251D01*
X91576132Y-120188545D01*
X91385158Y-120188545D01*
X91198356Y-120228251D01*
X91023892Y-120305927D01*
X90869389Y-120418180D01*
X90741610Y-120560093D01*
X90741603Y-120560103D01*
X90646121Y-120725483D01*
X90646118Y-120725490D01*
X90587102Y-120907117D01*
X90567141Y-121097045D01*
X77189500Y-121097045D01*
X77189500Y-118795800D01*
X91517096Y-118795800D01*
X91537057Y-118985727D01*
X91567126Y-119078270D01*
X91596073Y-119167356D01*
X91596076Y-119167361D01*
X91691558Y-119332741D01*
X91691565Y-119332751D01*
X91819344Y-119474664D01*
X91880599Y-119519168D01*
X91973848Y-119586918D01*
X92148312Y-119664594D01*
X92335113Y-119704300D01*
X92526087Y-119704300D01*
X92712888Y-119664594D01*
X92887352Y-119586918D01*
X93032309Y-119481600D01*
X93777696Y-119481600D01*
X93797657Y-119671527D01*
X93808306Y-119704300D01*
X93856673Y-119853156D01*
X93856676Y-119853161D01*
X93952158Y-120018541D01*
X93952165Y-120018551D01*
X94079944Y-120160464D01*
X94097278Y-120173058D01*
X94234448Y-120272718D01*
X94408912Y-120350394D01*
X94595713Y-120390100D01*
X94786687Y-120390100D01*
X94973488Y-120350394D01*
X95147952Y-120272718D01*
X95302453Y-120160466D01*
X95302455Y-120160464D01*
X95430234Y-120018551D01*
X95430235Y-120018549D01*
X95430240Y-120018544D01*
X95525727Y-119853156D01*
X95584742Y-119671528D01*
X95604704Y-119481600D01*
X95584742Y-119291672D01*
X95525727Y-119110044D01*
X95430240Y-118944656D01*
X95430238Y-118944654D01*
X95430234Y-118944648D01*
X95302455Y-118802735D01*
X95243110Y-118759619D01*
X95147952Y-118690482D01*
X95147950Y-118690481D01*
X95147949Y-118690480D01*
X95133120Y-118683878D01*
X95079025Y-118637898D01*
X95064465Y-118590000D01*
X119766496Y-118590000D01*
X119786457Y-118779927D01*
X119816526Y-118872470D01*
X119845473Y-118961556D01*
X119845476Y-118961561D01*
X119940958Y-119126941D01*
X119940965Y-119126951D01*
X120068744Y-119268864D01*
X120068747Y-119268866D01*
X120223248Y-119381118D01*
X120397712Y-119458794D01*
X120584513Y-119498500D01*
X120775487Y-119498500D01*
X120962288Y-119458794D01*
X121136752Y-119381118D01*
X121291253Y-119268866D01*
X121291255Y-119268864D01*
X121419034Y-119126951D01*
X121419035Y-119126949D01*
X121419040Y-119126944D01*
X121514527Y-118961556D01*
X121573542Y-118779928D01*
X121593504Y-118590000D01*
X121573542Y-118400072D01*
X121514527Y-118218444D01*
X121419040Y-118053056D01*
X121419038Y-118053054D01*
X121419034Y-118053048D01*
X121291255Y-117911135D01*
X121136752Y-117798882D01*
X120962288Y-117721206D01*
X120775487Y-117681500D01*
X120584513Y-117681500D01*
X120397711Y-117721206D01*
X120223247Y-117798882D01*
X120068744Y-117911135D01*
X119940965Y-118053048D01*
X119940958Y-118053058D01*
X119876746Y-118164277D01*
X119845473Y-118218444D01*
X119841697Y-118230066D01*
X119786457Y-118400072D01*
X119766496Y-118590000D01*
X95064465Y-118590000D01*
X95058376Y-118569971D01*
X95077729Y-118501663D01*
X95130940Y-118454661D01*
X95158169Y-118445526D01*
X95278288Y-118419994D01*
X95452752Y-118342318D01*
X95607253Y-118230066D01*
X95617717Y-118218445D01*
X95735034Y-118088151D01*
X95735035Y-118088149D01*
X95735040Y-118088144D01*
X95830527Y-117922756D01*
X95889542Y-117741128D01*
X95909504Y-117551200D01*
X95889542Y-117361272D01*
X95855264Y-117255777D01*
X116957496Y-117255777D01*
X116977457Y-117445704D01*
X117001229Y-117518864D01*
X117036473Y-117627333D01*
X117036476Y-117627338D01*
X117131958Y-117792718D01*
X117131965Y-117792728D01*
X117259744Y-117934641D01*
X117259747Y-117934643D01*
X117414248Y-118046895D01*
X117588712Y-118124571D01*
X117775513Y-118164277D01*
X117966487Y-118164277D01*
X118153288Y-118124571D01*
X118327752Y-118046895D01*
X118482253Y-117934643D01*
X118482255Y-117934641D01*
X118610034Y-117792728D01*
X118610035Y-117792726D01*
X118610040Y-117792721D01*
X118705527Y-117627333D01*
X118764542Y-117445705D01*
X118781356Y-117285722D01*
X118808369Y-117220067D01*
X118866590Y-117179437D01*
X118937535Y-117176734D01*
X118957916Y-117183788D01*
X118996109Y-117200793D01*
X118996110Y-117200793D01*
X118996112Y-117200794D01*
X119182913Y-117240500D01*
X119373887Y-117240500D01*
X119560688Y-117200794D01*
X119735152Y-117123118D01*
X119889653Y-117010866D01*
X119889655Y-117010864D01*
X120017434Y-116868951D01*
X120017435Y-116868949D01*
X120017440Y-116868944D01*
X120112927Y-116703556D01*
X120171942Y-116521928D01*
X120191904Y-116332000D01*
X120171942Y-116142072D01*
X120112927Y-115960444D01*
X120017440Y-115795056D01*
X120017438Y-115795054D01*
X120017434Y-115795048D01*
X119889655Y-115653135D01*
X119735152Y-115540882D01*
X119560688Y-115463206D01*
X119373887Y-115423500D01*
X119182913Y-115423500D01*
X118996111Y-115463206D01*
X118821647Y-115540882D01*
X118667144Y-115653135D01*
X118539365Y-115795048D01*
X118539358Y-115795058D01*
X118443876Y-115960438D01*
X118443873Y-115960445D01*
X118384857Y-116142072D01*
X118368043Y-116302053D01*
X118341030Y-116367709D01*
X118282808Y-116408339D01*
X118211863Y-116411042D01*
X118191484Y-116403989D01*
X118153288Y-116386983D01*
X117966487Y-116347277D01*
X117775513Y-116347277D01*
X117588711Y-116386983D01*
X117414247Y-116464659D01*
X117259744Y-116576912D01*
X117131965Y-116718825D01*
X117131958Y-116718835D01*
X117036476Y-116884215D01*
X117036473Y-116884222D01*
X116977457Y-117065849D01*
X116957496Y-117255777D01*
X95855264Y-117255777D01*
X95830527Y-117179644D01*
X95735040Y-117014256D01*
X95721114Y-116998790D01*
X95690398Y-116934783D01*
X95699162Y-116864330D01*
X95721116Y-116830168D01*
X95769034Y-116776951D01*
X95769040Y-116776944D01*
X95864527Y-116611556D01*
X95923542Y-116429928D01*
X95943504Y-116240000D01*
X95937507Y-116182943D01*
X114646501Y-116182943D01*
X114666462Y-116372870D01*
X114685002Y-116429927D01*
X114725478Y-116554499D01*
X114725481Y-116554504D01*
X114820963Y-116719884D01*
X114820970Y-116719894D01*
X114948749Y-116861807D01*
X114958812Y-116869118D01*
X115103253Y-116974061D01*
X115277717Y-117051737D01*
X115464518Y-117091443D01*
X115655492Y-117091443D01*
X115842293Y-117051737D01*
X116016757Y-116974061D01*
X116171258Y-116861809D01*
X116233746Y-116792409D01*
X116299039Y-116719894D01*
X116299040Y-116719892D01*
X116299045Y-116719887D01*
X116394532Y-116554499D01*
X116453547Y-116372871D01*
X116473509Y-116182943D01*
X116453547Y-115993015D01*
X116394532Y-115811387D01*
X116299045Y-115645999D01*
X116299043Y-115645997D01*
X116299039Y-115645991D01*
X116171260Y-115504078D01*
X116016757Y-115391825D01*
X115842293Y-115314149D01*
X115655492Y-115274443D01*
X115464518Y-115274443D01*
X115277716Y-115314149D01*
X115103252Y-115391825D01*
X114948749Y-115504078D01*
X114820970Y-115645991D01*
X114820963Y-115646001D01*
X114725481Y-115811381D01*
X114725478Y-115811388D01*
X114666462Y-115993015D01*
X114646501Y-116182943D01*
X95937507Y-116182943D01*
X95923542Y-116050072D01*
X95864527Y-115868444D01*
X95769040Y-115703056D01*
X95769035Y-115703051D01*
X95768486Y-115702099D01*
X95751748Y-115633103D01*
X95774968Y-115566011D01*
X95783962Y-115554795D01*
X95809040Y-115526944D01*
X95904527Y-115361556D01*
X95963542Y-115179928D01*
X95983504Y-114990000D01*
X95963542Y-114800072D01*
X95904527Y-114618444D01*
X95814987Y-114463357D01*
X95798250Y-114394364D01*
X95814987Y-114337361D01*
X95864527Y-114251556D01*
X95923542Y-114069928D01*
X95943504Y-113880000D01*
X95923542Y-113690072D01*
X95864527Y-113508444D01*
X95784606Y-113370018D01*
X95767869Y-113301024D01*
X95787737Y-113243617D01*
X95785738Y-113242463D01*
X95789040Y-113236744D01*
X95862216Y-113110000D01*
X103212496Y-113110000D01*
X103232457Y-113299927D01*
X103259468Y-113383056D01*
X103291473Y-113481556D01*
X103291476Y-113481561D01*
X103386958Y-113646941D01*
X103386965Y-113646951D01*
X103514744Y-113788864D01*
X103514747Y-113788866D01*
X103669248Y-113901118D01*
X103843712Y-113978794D01*
X104030513Y-114018500D01*
X104146954Y-114018500D01*
X104215075Y-114038502D01*
X104261568Y-114092158D01*
X104266787Y-114105563D01*
X104275737Y-114133107D01*
X104317473Y-114261556D01*
X104317476Y-114261561D01*
X104412958Y-114426941D01*
X104412965Y-114426951D01*
X104540744Y-114568864D01*
X104582038Y-114598866D01*
X104695248Y-114681118D01*
X104869712Y-114758794D01*
X105056513Y-114798500D01*
X105247487Y-114798500D01*
X105434288Y-114758794D01*
X105608752Y-114681118D01*
X105763253Y-114568866D01*
X105795873Y-114532638D01*
X105891034Y-114426951D01*
X105891035Y-114426949D01*
X105891040Y-114426944D01*
X105986527Y-114261556D01*
X106028263Y-114133107D01*
X106037213Y-114105563D01*
X106077287Y-114046958D01*
X106142684Y-114019321D01*
X106157046Y-114018500D01*
X106189207Y-114018500D01*
X106257328Y-114038502D01*
X106303821Y-114092158D01*
X106309040Y-114105563D01*
X106310457Y-114109926D01*
X106310458Y-114109928D01*
X106369473Y-114291556D01*
X106369476Y-114291561D01*
X106464958Y-114456941D01*
X106464965Y-114456951D01*
X106592744Y-114598864D01*
X106653999Y-114643368D01*
X106747248Y-114711118D01*
X106921712Y-114788794D01*
X107108513Y-114828500D01*
X107299487Y-114828500D01*
X107486288Y-114788794D01*
X107660752Y-114711118D01*
X107815253Y-114598866D01*
X107815255Y-114598864D01*
X107943034Y-114456951D01*
X107943035Y-114456949D01*
X107943040Y-114456944D01*
X108038527Y-114291556D01*
X108097542Y-114109928D01*
X108117504Y-113920000D01*
X108102307Y-113775410D01*
X115691906Y-113775410D01*
X115711867Y-113965337D01*
X115738388Y-114046958D01*
X115770883Y-114146966D01*
X115770886Y-114146971D01*
X115866368Y-114312351D01*
X115866375Y-114312361D01*
X115994154Y-114454274D01*
X116023554Y-114475634D01*
X116148658Y-114566528D01*
X116323122Y-114644204D01*
X116393789Y-114659224D01*
X116456262Y-114692952D01*
X116490583Y-114755101D01*
X116487425Y-114821407D01*
X116454457Y-114922870D01*
X116434496Y-115112800D01*
X116454457Y-115302727D01*
X116473574Y-115361561D01*
X116513473Y-115484356D01*
X116513476Y-115484361D01*
X116608958Y-115649741D01*
X116608965Y-115649751D01*
X116736744Y-115791664D01*
X116763892Y-115811388D01*
X116891248Y-115903918D01*
X117065712Y-115981594D01*
X117252513Y-116021300D01*
X117443487Y-116021300D01*
X117630288Y-115981594D01*
X117804752Y-115903918D01*
X117959253Y-115791666D01*
X117959255Y-115791664D01*
X118087034Y-115649751D01*
X118087035Y-115649749D01*
X118087040Y-115649744D01*
X118182527Y-115484356D01*
X118241542Y-115302728D01*
X118261504Y-115112800D01*
X118241542Y-114922872D01*
X118182527Y-114741244D01*
X118087040Y-114575856D01*
X118087038Y-114575854D01*
X118087034Y-114575848D01*
X117959255Y-114433935D01*
X117804752Y-114321682D01*
X117630288Y-114244006D01*
X117559620Y-114228985D01*
X117497146Y-114195256D01*
X117462825Y-114133107D01*
X117465984Y-114066801D01*
X117472432Y-114046958D01*
X117498952Y-113965338D01*
X117518914Y-113775410D01*
X117498952Y-113585482D01*
X117439937Y-113403854D01*
X117344450Y-113238466D01*
X117344448Y-113238464D01*
X117344444Y-113238458D01*
X117216665Y-113096545D01*
X117062162Y-112984292D01*
X116887698Y-112906616D01*
X116700897Y-112866910D01*
X116509923Y-112866910D01*
X116323121Y-112906616D01*
X116148657Y-112984292D01*
X115994154Y-113096545D01*
X115866375Y-113238458D01*
X115866368Y-113238468D01*
X115770886Y-113403848D01*
X115770883Y-113403855D01*
X115711867Y-113585482D01*
X115691906Y-113775410D01*
X108102307Y-113775410D01*
X108097542Y-113730072D01*
X108038527Y-113548444D01*
X107943040Y-113383056D01*
X107943038Y-113383054D01*
X107943034Y-113383048D01*
X107815255Y-113241135D01*
X107660752Y-113128882D01*
X107486288Y-113051206D01*
X107299487Y-113011500D01*
X107192793Y-113011500D01*
X107124672Y-112991498D01*
X107078179Y-112937842D01*
X107072960Y-112924437D01*
X107067203Y-112906718D01*
X107012527Y-112738444D01*
X106917040Y-112573056D01*
X106917038Y-112573054D01*
X106917034Y-112573048D01*
X106789255Y-112431135D01*
X106634752Y-112318882D01*
X106460288Y-112241206D01*
X106273487Y-112201500D01*
X106082513Y-112201500D01*
X105895711Y-112241206D01*
X105721247Y-112318882D01*
X105566744Y-112431135D01*
X105438965Y-112573048D01*
X105438958Y-112573058D01*
X105343476Y-112738438D01*
X105343471Y-112738447D01*
X105325270Y-112794466D01*
X105294318Y-112889728D01*
X105292788Y-112894436D01*
X105252714Y-112953042D01*
X105187318Y-112980679D01*
X105172955Y-112981500D01*
X105131046Y-112981500D01*
X105062925Y-112961498D01*
X105016432Y-112907842D01*
X105011213Y-112894437D01*
X104999802Y-112859319D01*
X104960527Y-112738444D01*
X104865040Y-112573056D01*
X104865038Y-112573054D01*
X104865034Y-112573048D01*
X104737255Y-112431135D01*
X104582752Y-112318882D01*
X104408288Y-112241206D01*
X104221487Y-112201500D01*
X104030513Y-112201500D01*
X103843711Y-112241206D01*
X103669247Y-112318882D01*
X103514744Y-112431135D01*
X103386965Y-112573048D01*
X103386958Y-112573058D01*
X103291476Y-112738438D01*
X103291473Y-112738445D01*
X103232457Y-112920072D01*
X103212496Y-113110000D01*
X95862216Y-113110000D01*
X95884527Y-113071356D01*
X95943542Y-112889728D01*
X95963504Y-112699800D01*
X95943542Y-112509872D01*
X95884527Y-112328244D01*
X95789040Y-112162856D01*
X95789038Y-112162854D01*
X95789034Y-112162848D01*
X95746492Y-112115600D01*
X100686496Y-112115600D01*
X100706457Y-112305527D01*
X100713839Y-112328245D01*
X100765473Y-112487156D01*
X100765476Y-112487161D01*
X100860958Y-112652541D01*
X100860965Y-112652551D01*
X100988744Y-112794464D01*
X100988747Y-112794466D01*
X101143248Y-112906718D01*
X101317712Y-112984394D01*
X101504513Y-113024100D01*
X101695487Y-113024100D01*
X101882288Y-112984394D01*
X102056752Y-112906718D01*
X102211253Y-112794466D01*
X102261693Y-112738447D01*
X102339034Y-112652551D01*
X102339035Y-112652549D01*
X102339040Y-112652544D01*
X102434527Y-112487156D01*
X102493542Y-112305528D01*
X102513504Y-112115600D01*
X102493542Y-111925672D01*
X102434527Y-111744044D01*
X102339040Y-111578656D01*
X102339038Y-111578654D01*
X102339034Y-111578648D01*
X102211255Y-111436735D01*
X102056752Y-111324482D01*
X101882288Y-111246806D01*
X101695487Y-111207100D01*
X101504513Y-111207100D01*
X101317711Y-111246806D01*
X101143247Y-111324482D01*
X100988744Y-111436735D01*
X100860965Y-111578648D01*
X100860958Y-111578658D01*
X100765476Y-111744038D01*
X100765473Y-111744045D01*
X100706457Y-111925672D01*
X100686496Y-112115600D01*
X95746492Y-112115600D01*
X95661255Y-112020935D01*
X95506752Y-111908682D01*
X95332288Y-111831006D01*
X95145487Y-111791300D01*
X94954513Y-111791300D01*
X94767711Y-111831006D01*
X94593247Y-111908682D01*
X94438744Y-112020935D01*
X94310965Y-112162848D01*
X94310958Y-112162858D01*
X94215476Y-112328238D01*
X94215473Y-112328245D01*
X94156457Y-112509872D01*
X94136496Y-112699800D01*
X94156457Y-112889727D01*
X94172091Y-112937842D01*
X94215473Y-113071356D01*
X94215476Y-113071361D01*
X94295392Y-113209780D01*
X94312130Y-113278775D01*
X94292261Y-113336183D01*
X94294261Y-113337338D01*
X94195476Y-113508438D01*
X94195473Y-113508445D01*
X94136457Y-113690072D01*
X94116496Y-113880000D01*
X94136457Y-114069927D01*
X94149455Y-114109928D01*
X94195473Y-114251556D01*
X94285011Y-114406640D01*
X94301749Y-114475634D01*
X94285012Y-114532638D01*
X94235472Y-114618444D01*
X94235470Y-114618449D01*
X94176457Y-114800071D01*
X94156496Y-114990000D01*
X94176457Y-115179927D01*
X94185971Y-115209206D01*
X94235473Y-115361556D01*
X94235476Y-115361561D01*
X94331512Y-115527902D01*
X94348250Y-115596898D01*
X94325029Y-115663990D01*
X94316031Y-115675211D01*
X94290957Y-115703059D01*
X94195476Y-115868438D01*
X94195473Y-115868444D01*
X94184846Y-115901151D01*
X94136457Y-116050072D01*
X94116496Y-116240000D01*
X94136457Y-116429927D01*
X94148973Y-116468445D01*
X94195473Y-116611556D01*
X94195476Y-116611561D01*
X94290958Y-116776941D01*
X94290965Y-116776951D01*
X94304884Y-116792409D01*
X94335602Y-116856416D01*
X94326837Y-116926870D01*
X94304885Y-116961028D01*
X94256959Y-117014255D01*
X94256958Y-117014257D01*
X94161476Y-117179638D01*
X94161473Y-117179644D01*
X94148339Y-117220067D01*
X94102457Y-117361272D01*
X94082496Y-117551200D01*
X94102457Y-117741127D01*
X94132526Y-117833670D01*
X94161473Y-117922756D01*
X94161476Y-117922761D01*
X94256958Y-118088141D01*
X94256965Y-118088151D01*
X94384744Y-118230064D01*
X94384747Y-118230066D01*
X94539248Y-118342318D01*
X94539251Y-118342319D01*
X94539252Y-118342320D01*
X94554076Y-118348920D01*
X94608173Y-118394899D01*
X94628823Y-118462826D01*
X94609472Y-118531134D01*
X94556262Y-118578136D01*
X94529027Y-118587273D01*
X94408915Y-118612804D01*
X94234447Y-118690482D01*
X94079944Y-118802735D01*
X93952165Y-118944648D01*
X93952158Y-118944658D01*
X93856676Y-119110038D01*
X93856673Y-119110045D01*
X93797657Y-119291672D01*
X93777696Y-119481600D01*
X93032309Y-119481600D01*
X93041853Y-119474666D01*
X93169640Y-119332744D01*
X93265127Y-119167356D01*
X93324142Y-118985728D01*
X93344104Y-118795800D01*
X93324142Y-118605872D01*
X93265127Y-118424244D01*
X93169640Y-118258856D01*
X93169638Y-118258854D01*
X93169634Y-118258848D01*
X93041855Y-118116935D01*
X92887352Y-118004682D01*
X92712888Y-117927006D01*
X92526087Y-117887300D01*
X92335113Y-117887300D01*
X92148311Y-117927006D01*
X91973847Y-118004682D01*
X91819344Y-118116935D01*
X91691565Y-118258848D01*
X91691558Y-118258858D01*
X91596076Y-118424238D01*
X91596073Y-118424245D01*
X91537057Y-118605872D01*
X91517096Y-118795800D01*
X77189500Y-118795800D01*
X77189500Y-116078000D01*
X80264896Y-116078000D01*
X80284857Y-116267927D01*
X80305676Y-116332000D01*
X80343873Y-116449556D01*
X80343876Y-116449561D01*
X80439358Y-116614941D01*
X80439365Y-116614951D01*
X80567144Y-116756864D01*
X80628399Y-116801368D01*
X80721648Y-116869118D01*
X80896112Y-116946794D01*
X81038731Y-116977108D01*
X81067006Y-116983119D01*
X81129480Y-117016848D01*
X81160642Y-117067429D01*
X81207472Y-117211554D01*
X81207476Y-117211561D01*
X81302958Y-117376941D01*
X81302965Y-117376951D01*
X81430744Y-117518864D01*
X81430747Y-117518866D01*
X81585248Y-117631118D01*
X81759712Y-117708794D01*
X81946513Y-117748500D01*
X82137487Y-117748500D01*
X82324288Y-117708794D01*
X82498752Y-117631118D01*
X82653253Y-117518866D01*
X82653255Y-117518864D01*
X82781034Y-117376951D01*
X82781035Y-117376949D01*
X82781040Y-117376944D01*
X82876527Y-117211556D01*
X82935542Y-117029928D01*
X82955504Y-116840000D01*
X82935542Y-116650072D01*
X82876527Y-116468444D01*
X82781040Y-116303056D01*
X82781038Y-116303054D01*
X82781034Y-116303048D01*
X82653255Y-116161135D01*
X82498752Y-116048882D01*
X82324284Y-115971204D01*
X82153392Y-115934879D01*
X82090919Y-115901151D01*
X82059757Y-115850570D01*
X82052608Y-115828570D01*
X82012927Y-115706444D01*
X81917440Y-115541056D01*
X81917438Y-115541054D01*
X81917434Y-115541048D01*
X81789655Y-115399135D01*
X81635152Y-115286882D01*
X81460688Y-115209206D01*
X81273887Y-115169500D01*
X81082913Y-115169500D01*
X80896111Y-115209206D01*
X80721647Y-115286882D01*
X80567144Y-115399135D01*
X80439365Y-115541048D01*
X80439358Y-115541058D01*
X80343876Y-115706438D01*
X80343873Y-115706445D01*
X80284857Y-115888072D01*
X80264896Y-116078000D01*
X77189500Y-116078000D01*
X77189500Y-110920000D01*
X95216496Y-110920000D01*
X95236457Y-111109927D01*
X95266526Y-111202470D01*
X95295473Y-111291556D01*
X95295476Y-111291561D01*
X95390958Y-111456941D01*
X95390965Y-111456951D01*
X95518744Y-111598864D01*
X95518747Y-111598866D01*
X95673248Y-111711118D01*
X95847712Y-111788794D01*
X96034513Y-111828500D01*
X96225487Y-111828500D01*
X96412288Y-111788794D01*
X96586752Y-111711118D01*
X96741253Y-111598866D01*
X96741255Y-111598864D01*
X96869034Y-111456951D01*
X96869035Y-111456949D01*
X96869040Y-111456944D01*
X96964527Y-111291556D01*
X97007272Y-111160000D01*
X114156496Y-111160000D01*
X114176457Y-111349927D01*
X114206526Y-111442470D01*
X114235473Y-111531556D01*
X114235476Y-111531561D01*
X114330958Y-111696941D01*
X114330965Y-111696951D01*
X114458744Y-111838864D01*
X114458747Y-111838866D01*
X114613248Y-111951118D01*
X114787712Y-112028794D01*
X114974513Y-112068500D01*
X115165487Y-112068500D01*
X115352288Y-112028794D01*
X115526752Y-111951118D01*
X115681253Y-111838866D01*
X115766631Y-111744044D01*
X115809034Y-111696951D01*
X115809035Y-111696949D01*
X115809040Y-111696944D01*
X115904527Y-111531556D01*
X115963542Y-111349928D01*
X115983504Y-111160000D01*
X115963542Y-110970072D01*
X115904527Y-110788444D01*
X115809040Y-110623056D01*
X115809038Y-110623054D01*
X115809034Y-110623048D01*
X115681255Y-110481135D01*
X115526752Y-110368882D01*
X115352288Y-110291206D01*
X115165487Y-110251500D01*
X114974513Y-110251500D01*
X114787711Y-110291206D01*
X114613247Y-110368882D01*
X114458744Y-110481135D01*
X114330965Y-110623048D01*
X114330958Y-110623058D01*
X114235476Y-110788438D01*
X114235473Y-110788445D01*
X114176457Y-110970072D01*
X114156496Y-111160000D01*
X97007272Y-111160000D01*
X97023542Y-111109928D01*
X97043504Y-110920000D01*
X97023542Y-110730072D01*
X96964527Y-110548444D01*
X96869040Y-110383056D01*
X96869038Y-110383054D01*
X96869034Y-110383048D01*
X96741255Y-110241135D01*
X96586752Y-110128882D01*
X96412288Y-110051206D01*
X96225487Y-110011500D01*
X96034513Y-110011500D01*
X95847711Y-110051206D01*
X95673247Y-110128882D01*
X95518744Y-110241135D01*
X95390965Y-110383048D01*
X95390958Y-110383058D01*
X95295476Y-110548438D01*
X95295473Y-110548445D01*
X95236457Y-110730072D01*
X95216496Y-110920000D01*
X77189500Y-110920000D01*
X77189500Y-108966000D01*
X96495496Y-108966000D01*
X96515457Y-109155927D01*
X96545526Y-109248470D01*
X96574473Y-109337556D01*
X96574476Y-109337561D01*
X96669958Y-109502941D01*
X96669965Y-109502951D01*
X96797744Y-109644864D01*
X96797747Y-109644866D01*
X96952248Y-109757118D01*
X97126712Y-109834794D01*
X97313513Y-109874500D01*
X97504487Y-109874500D01*
X97691288Y-109834794D01*
X97865752Y-109757118D01*
X98020253Y-109644866D01*
X98148040Y-109502944D01*
X98243527Y-109337556D01*
X98302542Y-109155928D01*
X98322504Y-108966000D01*
X98302542Y-108776072D01*
X98243527Y-108594444D01*
X98148040Y-108429056D01*
X98148038Y-108429054D01*
X98148034Y-108429048D01*
X98020255Y-108287135D01*
X97865752Y-108174882D01*
X97691288Y-108097206D01*
X97504487Y-108057500D01*
X97313513Y-108057500D01*
X97126711Y-108097206D01*
X96952247Y-108174882D01*
X96797744Y-108287135D01*
X96669965Y-108429048D01*
X96669958Y-108429058D01*
X96574476Y-108594438D01*
X96574473Y-108594445D01*
X96515457Y-108776072D01*
X96495496Y-108966000D01*
X77189500Y-108966000D01*
X77189500Y-107213400D01*
X97689296Y-107213400D01*
X97709257Y-107403327D01*
X97734027Y-107479559D01*
X97768273Y-107584956D01*
X97768276Y-107584961D01*
X97863758Y-107750341D01*
X97863765Y-107750351D01*
X97991544Y-107892264D01*
X97991547Y-107892266D01*
X98146048Y-108004518D01*
X98320512Y-108082194D01*
X98507313Y-108121900D01*
X98698287Y-108121900D01*
X98885088Y-108082194D01*
X99059552Y-108004518D01*
X99214053Y-107892266D01*
X99215148Y-107891050D01*
X99341834Y-107750351D01*
X99341835Y-107750349D01*
X99341840Y-107750344D01*
X99437327Y-107584956D01*
X99484914Y-107438498D01*
X99524988Y-107379893D01*
X99590384Y-107352256D01*
X99630943Y-107354187D01*
X99777313Y-107385300D01*
X99968287Y-107385300D01*
X100155088Y-107345594D01*
X100329552Y-107267918D01*
X100484053Y-107155666D01*
X100533778Y-107100441D01*
X100611834Y-107013751D01*
X100611835Y-107013749D01*
X100611840Y-107013744D01*
X100707327Y-106848356D01*
X100766342Y-106666728D01*
X100786304Y-106476800D01*
X100766342Y-106286872D01*
X100707327Y-106105244D01*
X100611840Y-105939856D01*
X100611838Y-105939854D01*
X100611834Y-105939848D01*
X100484055Y-105797935D01*
X100329552Y-105685682D01*
X100155088Y-105608006D01*
X99968287Y-105568300D01*
X99777313Y-105568300D01*
X99590511Y-105608006D01*
X99416047Y-105685682D01*
X99261544Y-105797935D01*
X99133765Y-105939848D01*
X99133758Y-105939858D01*
X99038276Y-106105238D01*
X99038272Y-106105245D01*
X98990685Y-106251701D01*
X98950611Y-106310307D01*
X98885214Y-106337943D01*
X98844655Y-106336011D01*
X98698288Y-106304900D01*
X98698287Y-106304900D01*
X98507313Y-106304900D01*
X98320511Y-106344606D01*
X98146047Y-106422282D01*
X97991544Y-106534535D01*
X97863765Y-106676448D01*
X97863758Y-106676458D01*
X97791786Y-106801118D01*
X97768273Y-106841844D01*
X97758202Y-106872839D01*
X97709257Y-107023472D01*
X97689296Y-107213400D01*
X77189500Y-107213400D01*
X77189500Y-106222800D01*
X82804896Y-106222800D01*
X82824857Y-106412727D01*
X82827962Y-106422282D01*
X82883873Y-106594356D01*
X82883876Y-106594361D01*
X82979358Y-106759741D01*
X82979365Y-106759751D01*
X83107144Y-106901664D01*
X83130317Y-106918500D01*
X83261648Y-107013918D01*
X83436112Y-107091594D01*
X83622913Y-107131300D01*
X83813887Y-107131300D01*
X84000688Y-107091594D01*
X84175152Y-107013918D01*
X84329653Y-106901666D01*
X84329655Y-106901664D01*
X84457434Y-106759751D01*
X84457435Y-106759749D01*
X84457440Y-106759744D01*
X84552927Y-106594356D01*
X84611942Y-106412728D01*
X84631904Y-106222800D01*
X84611942Y-106032872D01*
X84552927Y-105851244D01*
X84457440Y-105685856D01*
X84457438Y-105685854D01*
X84457434Y-105685848D01*
X84329655Y-105543935D01*
X84175152Y-105431682D01*
X84000688Y-105354006D01*
X83813887Y-105314300D01*
X83622913Y-105314300D01*
X83436111Y-105354006D01*
X83261647Y-105431682D01*
X83107144Y-105543935D01*
X82979365Y-105685848D01*
X82979358Y-105685858D01*
X82883876Y-105851238D01*
X82883873Y-105851245D01*
X82824857Y-106032872D01*
X82804896Y-106222800D01*
X77189500Y-106222800D01*
X77189500Y-104240000D01*
X102086496Y-104240000D01*
X102106457Y-104429927D01*
X102136526Y-104522470D01*
X102165473Y-104611556D01*
X102165476Y-104611561D01*
X102260958Y-104776941D01*
X102260965Y-104776951D01*
X102388744Y-104918864D01*
X102430038Y-104948866D01*
X102543248Y-105031118D01*
X102717712Y-105108794D01*
X102904513Y-105148500D01*
X103095487Y-105148500D01*
X103282288Y-105108794D01*
X103435965Y-105040372D01*
X103506330Y-105030939D01*
X103570627Y-105061045D01*
X103608440Y-105121134D01*
X103612675Y-105167105D01*
X103601751Y-105284999D01*
X103620706Y-105489562D01*
X103676923Y-105687144D01*
X103676929Y-105687160D01*
X103768493Y-105871045D01*
X103768497Y-105871050D01*
X103892297Y-106034990D01*
X104044115Y-106173390D01*
X104044117Y-106173391D01*
X104044118Y-106173392D01*
X104082505Y-106197160D01*
X104129892Y-106250026D01*
X104141175Y-106320120D01*
X104112772Y-106385188D01*
X104082509Y-106411411D01*
X104074121Y-106416604D01*
X104074118Y-106416607D01*
X103922297Y-106555009D01*
X103798497Y-106718949D01*
X103798493Y-106718954D01*
X103706929Y-106902839D01*
X103706923Y-106902855D01*
X103650706Y-107100437D01*
X103631751Y-107305000D01*
X103650706Y-107509562D01*
X103706923Y-107707144D01*
X103706929Y-107707160D01*
X103798493Y-107891045D01*
X103798497Y-107891050D01*
X103922297Y-108054990D01*
X104074116Y-108193391D01*
X104074118Y-108193392D01*
X104248782Y-108301540D01*
X104440345Y-108375751D01*
X104642282Y-108413500D01*
X104642285Y-108413500D01*
X104847715Y-108413500D01*
X104847718Y-108413500D01*
X105049655Y-108375751D01*
X105241218Y-108301540D01*
X105415882Y-108193392D01*
X105567701Y-108054991D01*
X105645776Y-107951601D01*
X105702790Y-107909294D01*
X105773626Y-107904526D01*
X105835795Y-107938812D01*
X105846877Y-107951601D01*
X105902297Y-108024990D01*
X106054116Y-108163391D01*
X106054118Y-108163392D01*
X106228782Y-108271540D01*
X106420345Y-108345751D01*
X106622282Y-108383500D01*
X106622285Y-108383500D01*
X106827715Y-108383500D01*
X106827718Y-108383500D01*
X107029655Y-108345751D01*
X107221218Y-108271540D01*
X107395882Y-108163392D01*
X107547701Y-108024991D01*
X107563162Y-108004518D01*
X107574180Y-107989927D01*
X107671503Y-107861050D01*
X107671504Y-107861046D01*
X107671506Y-107861045D01*
X107701903Y-107800000D01*
X111616496Y-107800000D01*
X111636457Y-107989927D01*
X111666437Y-108082193D01*
X111695473Y-108171556D01*
X111708080Y-108193392D01*
X111790958Y-108336941D01*
X111790965Y-108336951D01*
X111918744Y-108478864D01*
X111918747Y-108478866D01*
X112073248Y-108591118D01*
X112247712Y-108668794D01*
X112434513Y-108708500D01*
X112625487Y-108708500D01*
X112812288Y-108668794D01*
X112986752Y-108591118D01*
X113141253Y-108478866D01*
X113141255Y-108478864D01*
X113269034Y-108336951D01*
X113269035Y-108336949D01*
X113269040Y-108336944D01*
X113364527Y-108171556D01*
X113423542Y-107989928D01*
X113443504Y-107800000D01*
X113423542Y-107610072D01*
X113364527Y-107428444D01*
X113269040Y-107263056D01*
X113269038Y-107263054D01*
X113269034Y-107263048D01*
X113141255Y-107121135D01*
X112986752Y-107008882D01*
X112812288Y-106931206D01*
X112625487Y-106891500D01*
X112434513Y-106891500D01*
X112247711Y-106931206D01*
X112073247Y-107008882D01*
X111918744Y-107121135D01*
X111790965Y-107263048D01*
X111790958Y-107263058D01*
X111695476Y-107428438D01*
X111695473Y-107428445D01*
X111636457Y-107610072D01*
X111616496Y-107800000D01*
X107701903Y-107800000D01*
X107763070Y-107677160D01*
X107763069Y-107677160D01*
X107763074Y-107677152D01*
X107819294Y-107479559D01*
X107838249Y-107275000D01*
X107819294Y-107070441D01*
X107803161Y-107013741D01*
X107763076Y-106872855D01*
X107763075Y-106872854D01*
X107763074Y-106872848D01*
X107750881Y-106848361D01*
X107671506Y-106688954D01*
X107671502Y-106688949D01*
X107671439Y-106688866D01*
X107564271Y-106546951D01*
X107547699Y-106525006D01*
X107392051Y-106383115D01*
X107355184Y-106322441D01*
X107356973Y-106251467D01*
X107392051Y-106196885D01*
X107547699Y-106054993D01*
X107562804Y-106034991D01*
X107581676Y-106010000D01*
X110336496Y-106010000D01*
X110356457Y-106199927D01*
X110384708Y-106286872D01*
X110415473Y-106381556D01*
X110415476Y-106381561D01*
X110510958Y-106546941D01*
X110510965Y-106546951D01*
X110638744Y-106688864D01*
X110680154Y-106718950D01*
X110793248Y-106801118D01*
X110967712Y-106878794D01*
X111154513Y-106918500D01*
X111345487Y-106918500D01*
X111532288Y-106878794D01*
X111706752Y-106801118D01*
X111861253Y-106688866D01*
X111873312Y-106675473D01*
X111989034Y-106546951D01*
X111989035Y-106546949D01*
X111989040Y-106546944D01*
X112084527Y-106381556D01*
X112143542Y-106199928D01*
X112163504Y-106010000D01*
X112143542Y-105820072D01*
X112084527Y-105638444D01*
X111989040Y-105473056D01*
X111989038Y-105473054D01*
X111989034Y-105473048D01*
X111861255Y-105331135D01*
X111706752Y-105218882D01*
X111532288Y-105141206D01*
X111345487Y-105101500D01*
X111154513Y-105101500D01*
X110967711Y-105141206D01*
X110793247Y-105218882D01*
X110638744Y-105331135D01*
X110510965Y-105473048D01*
X110510958Y-105473058D01*
X110415476Y-105638438D01*
X110415473Y-105638445D01*
X110356457Y-105820072D01*
X110336496Y-106010000D01*
X107581676Y-106010000D01*
X107671503Y-105891050D01*
X107671504Y-105891046D01*
X107671506Y-105891045D01*
X107763070Y-105707160D01*
X107763069Y-105707160D01*
X107763074Y-105707152D01*
X107819294Y-105509559D01*
X107838249Y-105305000D01*
X107833024Y-105248616D01*
X107846656Y-105178942D01*
X107895793Y-105127697D01*
X107964835Y-105111152D01*
X108009733Y-105121884D01*
X108047712Y-105138794D01*
X108234513Y-105178500D01*
X108425487Y-105178500D01*
X108612288Y-105138794D01*
X108786752Y-105061118D01*
X108941253Y-104948866D01*
X109024092Y-104856864D01*
X109069034Y-104806951D01*
X109069035Y-104806949D01*
X109069040Y-104806944D01*
X109164527Y-104641556D01*
X109223542Y-104459928D01*
X109243504Y-104270000D01*
X109233835Y-104178000D01*
X125379496Y-104178000D01*
X125399457Y-104367927D01*
X125415275Y-104416608D01*
X125458473Y-104549556D01*
X125458476Y-104549561D01*
X125553958Y-104714941D01*
X125553965Y-104714951D01*
X125681744Y-104856864D01*
X125681747Y-104856866D01*
X125836248Y-104969118D01*
X126010712Y-105046794D01*
X126197513Y-105086500D01*
X126388487Y-105086500D01*
X126575288Y-105046794D01*
X126749752Y-104969118D01*
X126904253Y-104856866D01*
X127032040Y-104714944D01*
X127127527Y-104549556D01*
X127186542Y-104367928D01*
X127206504Y-104178000D01*
X127186542Y-103988072D01*
X127127527Y-103806444D01*
X127032040Y-103641056D01*
X127032038Y-103641054D01*
X127032034Y-103641048D01*
X126904255Y-103499135D01*
X126749752Y-103386882D01*
X126575288Y-103309206D01*
X126388487Y-103269500D01*
X126197513Y-103269500D01*
X126010711Y-103309206D01*
X125836247Y-103386882D01*
X125681744Y-103499135D01*
X125553965Y-103641048D01*
X125553958Y-103641058D01*
X125458476Y-103806438D01*
X125458473Y-103806445D01*
X125399457Y-103988072D01*
X125379496Y-104178000D01*
X109233835Y-104178000D01*
X109223542Y-104080072D01*
X109164527Y-103898444D01*
X109069040Y-103733056D01*
X109069038Y-103733054D01*
X109069034Y-103733048D01*
X108941255Y-103591135D01*
X108786752Y-103478882D01*
X108612288Y-103401206D01*
X108425487Y-103361500D01*
X108234513Y-103361500D01*
X108047709Y-103401206D01*
X107962214Y-103439271D01*
X107891847Y-103448705D01*
X107827550Y-103418598D01*
X107789737Y-103358509D01*
X107785504Y-103312538D01*
X107789492Y-103269500D01*
X107798249Y-103175000D01*
X107798230Y-103174800D01*
X120346096Y-103174800D01*
X120366057Y-103364727D01*
X120396126Y-103457270D01*
X120425073Y-103546356D01*
X120425076Y-103546361D01*
X120520558Y-103711741D01*
X120520565Y-103711751D01*
X120648344Y-103853664D01*
X120648347Y-103853666D01*
X120802848Y-103965918D01*
X120977312Y-104043594D01*
X121164113Y-104083300D01*
X121355087Y-104083300D01*
X121541888Y-104043594D01*
X121716352Y-103965918D01*
X121870853Y-103853666D01*
X121913377Y-103806438D01*
X121998634Y-103711751D01*
X121998635Y-103711749D01*
X121998640Y-103711744D01*
X122094127Y-103546356D01*
X122153142Y-103364728D01*
X122173104Y-103174800D01*
X122153142Y-102984872D01*
X122094127Y-102803244D01*
X121998640Y-102637856D01*
X121998638Y-102637854D01*
X121998634Y-102637848D01*
X121870855Y-102495935D01*
X121716352Y-102383682D01*
X121541888Y-102306006D01*
X121355087Y-102266300D01*
X121164113Y-102266300D01*
X120977311Y-102306006D01*
X120802847Y-102383682D01*
X120648344Y-102495935D01*
X120520565Y-102637848D01*
X120520558Y-102637858D01*
X120425076Y-102803238D01*
X120425073Y-102803245D01*
X120366057Y-102984872D01*
X120346096Y-103174800D01*
X107798230Y-103174800D01*
X107779294Y-102970441D01*
X107723074Y-102772848D01*
X107723070Y-102772839D01*
X107631506Y-102588954D01*
X107631502Y-102588949D01*
X107507702Y-102425009D01*
X107355884Y-102286609D01*
X107342490Y-102278316D01*
X107322494Y-102265934D01*
X107275107Y-102213069D01*
X107263824Y-102142974D01*
X107292228Y-102077907D01*
X107322494Y-102051681D01*
X107335882Y-102043392D01*
X107487701Y-101904991D01*
X107611503Y-101741050D01*
X107611504Y-101741046D01*
X107611506Y-101741045D01*
X107703070Y-101557160D01*
X107703069Y-101557160D01*
X107703074Y-101557152D01*
X107759294Y-101359559D01*
X107778249Y-101155000D01*
X107759294Y-100950441D01*
X107753602Y-100930437D01*
X107703076Y-100752855D01*
X107703075Y-100752854D01*
X107703074Y-100752848D01*
X107693119Y-100732855D01*
X107611506Y-100568954D01*
X107611502Y-100568949D01*
X107575293Y-100521000D01*
X126852496Y-100521000D01*
X126872457Y-100710927D01*
X126886081Y-100752855D01*
X126931473Y-100892556D01*
X126931476Y-100892561D01*
X127026958Y-101057941D01*
X127026965Y-101057951D01*
X127154744Y-101199864D01*
X127154747Y-101199866D01*
X127309248Y-101312118D01*
X127483712Y-101389794D01*
X127670513Y-101429500D01*
X127861487Y-101429500D01*
X128048288Y-101389794D01*
X128222752Y-101312118D01*
X128377253Y-101199866D01*
X128377255Y-101199864D01*
X128505034Y-101057951D01*
X128505035Y-101057949D01*
X128505040Y-101057944D01*
X128600527Y-100892556D01*
X128659542Y-100710928D01*
X128679504Y-100521000D01*
X128659542Y-100331072D01*
X128600527Y-100149444D01*
X128505040Y-99984056D01*
X128505038Y-99984054D01*
X128505034Y-99984048D01*
X128377255Y-99842135D01*
X128222752Y-99729882D01*
X128048288Y-99652206D01*
X127861487Y-99612500D01*
X127670513Y-99612500D01*
X127483711Y-99652206D01*
X127309247Y-99729882D01*
X127154744Y-99842135D01*
X127026965Y-99984048D01*
X127026958Y-99984058D01*
X126931476Y-100149438D01*
X126931473Y-100149444D01*
X126928543Y-100158461D01*
X126872457Y-100331072D01*
X126852496Y-100521000D01*
X107575293Y-100521000D01*
X107487702Y-100405009D01*
X107335883Y-100266608D01*
X107161223Y-100158463D01*
X107161222Y-100158462D01*
X107161218Y-100158460D01*
X107043867Y-100112998D01*
X106969656Y-100084249D01*
X106919170Y-100074811D01*
X106767718Y-100046500D01*
X106562282Y-100046500D01*
X106441119Y-100069149D01*
X106360343Y-100084249D01*
X106220406Y-100138461D01*
X106168782Y-100158460D01*
X106168781Y-100158460D01*
X106168780Y-100158461D01*
X106168776Y-100158463D01*
X105994116Y-100266608D01*
X105842297Y-100405009D01*
X105788101Y-100476777D01*
X105731087Y-100519085D01*
X105660250Y-100523852D01*
X105598082Y-100489565D01*
X105587000Y-100476776D01*
X105517701Y-100385008D01*
X105365883Y-100246608D01*
X105191223Y-100138463D01*
X105191222Y-100138462D01*
X105191218Y-100138460D01*
X105051282Y-100084249D01*
X104999656Y-100064249D01*
X104949170Y-100054811D01*
X104797718Y-100026500D01*
X104592282Y-100026500D01*
X104485293Y-100046500D01*
X104390343Y-100064249D01*
X104241921Y-100121748D01*
X104198782Y-100138460D01*
X104198781Y-100138460D01*
X104198780Y-100138461D01*
X104198776Y-100138463D01*
X104024116Y-100246608D01*
X103872297Y-100385009D01*
X103748497Y-100548949D01*
X103748493Y-100548954D01*
X103656929Y-100732839D01*
X103656923Y-100732855D01*
X103600706Y-100930437D01*
X103581751Y-101135000D01*
X103600706Y-101339562D01*
X103656923Y-101537144D01*
X103656929Y-101537160D01*
X103748493Y-101721045D01*
X103748497Y-101721050D01*
X103872297Y-101884990D01*
X104009398Y-102009973D01*
X104024118Y-102023392D01*
X104024120Y-102023393D01*
X104063655Y-102047873D01*
X104111043Y-102100741D01*
X104122325Y-102170835D01*
X104093920Y-102235902D01*
X104063655Y-102262127D01*
X104024117Y-102286608D01*
X103872297Y-102425009D01*
X103748497Y-102588949D01*
X103748493Y-102588954D01*
X103656929Y-102772839D01*
X103656923Y-102772855D01*
X103600706Y-102970437D01*
X103581751Y-103175000D01*
X103593748Y-103304466D01*
X103580116Y-103374142D01*
X103530979Y-103425387D01*
X103461937Y-103441932D01*
X103417037Y-103431199D01*
X103282290Y-103371206D01*
X103095487Y-103331500D01*
X102904513Y-103331500D01*
X102717711Y-103371206D01*
X102543247Y-103448882D01*
X102388744Y-103561135D01*
X102260965Y-103703048D01*
X102260958Y-103703058D01*
X102165476Y-103868438D01*
X102165473Y-103868445D01*
X102106457Y-104050072D01*
X102086496Y-104240000D01*
X77189500Y-104240000D01*
X77189500Y-98362000D01*
X122805496Y-98362000D01*
X122825457Y-98551927D01*
X122855526Y-98644470D01*
X122884473Y-98733556D01*
X122884476Y-98733561D01*
X122979958Y-98898941D01*
X122979965Y-98898951D01*
X123107744Y-99040864D01*
X123107747Y-99040866D01*
X123262248Y-99153118D01*
X123436712Y-99230794D01*
X123623513Y-99270500D01*
X123814487Y-99270500D01*
X124001288Y-99230794D01*
X124175752Y-99153118D01*
X124330253Y-99040866D01*
X124458040Y-98898944D01*
X124553527Y-98733556D01*
X124612542Y-98551928D01*
X124632504Y-98362000D01*
X124612542Y-98172072D01*
X124553527Y-97990444D01*
X124458040Y-97825056D01*
X124458038Y-97825054D01*
X124458034Y-97825048D01*
X124330255Y-97683135D01*
X124175752Y-97570882D01*
X124001288Y-97493206D01*
X123814487Y-97453500D01*
X123623513Y-97453500D01*
X123436711Y-97493206D01*
X123262247Y-97570882D01*
X123107744Y-97683135D01*
X122979965Y-97825048D01*
X122979958Y-97825058D01*
X122884476Y-97990438D01*
X122884473Y-97990445D01*
X122825457Y-98172072D01*
X122805496Y-98362000D01*
X77189500Y-98362000D01*
X77189500Y-95115182D01*
X83013500Y-95115182D01*
X83035224Y-95259311D01*
X83052604Y-95374619D01*
X83129933Y-95625314D01*
X83129938Y-95625327D01*
X83243773Y-95861706D01*
X83243777Y-95861713D01*
X83391562Y-96078472D01*
X83391567Y-96078479D01*
X83570019Y-96270805D01*
X83775143Y-96434386D01*
X83775146Y-96434388D01*
X84002352Y-96565566D01*
X84002356Y-96565567D01*
X84002357Y-96565568D01*
X84246584Y-96661420D01*
X84502370Y-96719802D01*
X84698506Y-96734500D01*
X84698507Y-96734500D01*
X84829493Y-96734500D01*
X84829494Y-96734500D01*
X85025630Y-96719802D01*
X85281416Y-96661420D01*
X85525643Y-96565568D01*
X85525645Y-96565566D01*
X85525647Y-96565566D01*
X85639250Y-96499977D01*
X85752857Y-96434386D01*
X85957981Y-96270805D01*
X86136433Y-96078479D01*
X86284228Y-95861704D01*
X86398063Y-95625323D01*
X86475396Y-95374615D01*
X86514500Y-95115182D01*
X86514500Y-94852818D01*
X86475396Y-94593385D01*
X86475395Y-94593383D01*
X86475395Y-94593380D01*
X86398066Y-94342685D01*
X86398061Y-94342672D01*
X86370191Y-94284800D01*
X99873696Y-94284800D01*
X99893657Y-94474727D01*
X99923726Y-94567270D01*
X99952673Y-94656356D01*
X99952676Y-94656361D01*
X100048158Y-94821741D01*
X100048165Y-94821751D01*
X100175944Y-94963664D01*
X100175947Y-94963666D01*
X100330448Y-95075918D01*
X100504912Y-95153594D01*
X100691713Y-95193300D01*
X100882687Y-95193300D01*
X101069488Y-95153594D01*
X101243952Y-95075918D01*
X101398453Y-94963666D01*
X101446774Y-94910000D01*
X124054390Y-94910000D01*
X124074803Y-95195424D01*
X124135631Y-95475046D01*
X124235632Y-95743160D01*
X124235637Y-95743170D01*
X124372768Y-95994307D01*
X124372772Y-95994312D01*
X124372774Y-95994315D01*
X124435778Y-96078479D01*
X124544262Y-96223396D01*
X124544270Y-96223405D01*
X124746594Y-96425729D01*
X124746603Y-96425737D01*
X124746605Y-96425739D01*
X124975685Y-96597226D01*
X124975687Y-96597227D01*
X124975692Y-96597231D01*
X125226829Y-96734362D01*
X125226839Y-96734367D01*
X125494954Y-96834369D01*
X125774572Y-96895196D01*
X125988552Y-96910500D01*
X125988558Y-96910500D01*
X126131442Y-96910500D01*
X126131448Y-96910500D01*
X126345428Y-96895196D01*
X126625046Y-96834369D01*
X126893161Y-96734367D01*
X127026757Y-96661418D01*
X127144307Y-96597231D01*
X127144309Y-96597229D01*
X127144315Y-96597226D01*
X127373395Y-96425739D01*
X127575739Y-96223395D01*
X127747226Y-95994315D01*
X127747229Y-95994309D01*
X127747231Y-95994307D01*
X127884362Y-95743170D01*
X127884367Y-95743161D01*
X127984369Y-95475046D01*
X128045196Y-95195428D01*
X128065610Y-94910000D01*
X128045196Y-94624572D01*
X127984369Y-94344954D01*
X127884367Y-94076839D01*
X127795038Y-93913245D01*
X127747231Y-93825692D01*
X127747227Y-93825687D01*
X127688965Y-93747858D01*
X127575739Y-93596605D01*
X127575737Y-93596603D01*
X127575729Y-93596594D01*
X127373405Y-93394270D01*
X127373396Y-93394262D01*
X127256266Y-93306580D01*
X127144315Y-93222774D01*
X127144313Y-93222773D01*
X127144312Y-93222772D01*
X127144307Y-93222768D01*
X126893170Y-93085637D01*
X126893160Y-93085632D01*
X126625046Y-92985631D01*
X126345424Y-92924803D01*
X126211775Y-92915245D01*
X126131448Y-92909500D01*
X125988552Y-92909500D01*
X125912954Y-92914906D01*
X125774575Y-92924803D01*
X125494953Y-92985631D01*
X125226839Y-93085632D01*
X125226829Y-93085637D01*
X124975692Y-93222768D01*
X124975687Y-93222772D01*
X124746603Y-93394262D01*
X124746594Y-93394270D01*
X124544270Y-93596594D01*
X124544262Y-93596603D01*
X124372772Y-93825687D01*
X124372768Y-93825692D01*
X124235637Y-94076829D01*
X124235632Y-94076839D01*
X124135631Y-94344953D01*
X124074803Y-94624575D01*
X124054390Y-94910000D01*
X101446774Y-94910000D01*
X101526234Y-94821751D01*
X101526235Y-94821749D01*
X101526240Y-94821744D01*
X101621727Y-94656356D01*
X101680742Y-94474728D01*
X101700704Y-94284800D01*
X101680742Y-94094872D01*
X101621727Y-93913244D01*
X101526240Y-93747856D01*
X101526238Y-93747854D01*
X101526234Y-93747848D01*
X101398455Y-93605935D01*
X101243952Y-93493682D01*
X101069488Y-93416006D01*
X100882687Y-93376300D01*
X100691713Y-93376300D01*
X100504911Y-93416006D01*
X100330447Y-93493682D01*
X100175944Y-93605935D01*
X100048165Y-93747848D01*
X100048158Y-93747858D01*
X99952676Y-93913238D01*
X99952673Y-93913245D01*
X99893657Y-94094872D01*
X99873696Y-94284800D01*
X86370191Y-94284800D01*
X86349854Y-94242570D01*
X86284228Y-94106296D01*
X86284226Y-94106293D01*
X86284222Y-94106286D01*
X86136437Y-93889527D01*
X86136433Y-93889521D01*
X85957981Y-93697195D01*
X85752857Y-93533614D01*
X85752852Y-93533611D01*
X85752853Y-93533611D01*
X85525647Y-93402433D01*
X85525639Y-93402430D01*
X85281419Y-93306581D01*
X85281417Y-93306580D01*
X85025633Y-93248198D01*
X84878528Y-93237174D01*
X84829494Y-93233500D01*
X84698506Y-93233500D01*
X84659278Y-93236439D01*
X84502366Y-93248198D01*
X84246582Y-93306580D01*
X84246580Y-93306581D01*
X84002360Y-93402430D01*
X84002352Y-93402433D01*
X83775146Y-93533611D01*
X83570018Y-93697195D01*
X83391566Y-93889522D01*
X83391562Y-93889527D01*
X83243777Y-94106286D01*
X83243773Y-94106293D01*
X83129938Y-94342672D01*
X83129933Y-94342685D01*
X83052604Y-94593380D01*
X83030879Y-94737514D01*
X83013500Y-94852818D01*
X83013500Y-95115182D01*
X77189500Y-95115182D01*
X77189500Y-87325999D01*
X78413692Y-87325999D01*
X78413693Y-87326000D01*
X79230349Y-87326000D01*
X79184390Y-87354457D01*
X79116799Y-87443962D01*
X79086105Y-87551840D01*
X79096454Y-87663521D01*
X79146448Y-87763922D01*
X79223318Y-87834000D01*
X78413693Y-87834000D01*
X78454223Y-87967610D01*
X78454224Y-87967612D01*
X78547824Y-88142724D01*
X78673788Y-88296211D01*
X78827275Y-88422175D01*
X79002385Y-88515774D01*
X79002400Y-88515780D01*
X79192393Y-88573414D01*
X79192405Y-88573416D01*
X79340473Y-88587999D01*
X79340491Y-88588000D01*
X79536000Y-88588000D01*
X79536000Y-87880000D01*
X80044000Y-87880000D01*
X80044000Y-88588000D01*
X80239509Y-88588000D01*
X80239526Y-88587999D01*
X80387594Y-88573416D01*
X80387606Y-88573414D01*
X80577599Y-88515780D01*
X80577614Y-88515774D01*
X80752724Y-88422175D01*
X80906211Y-88296211D01*
X81032175Y-88142724D01*
X81125775Y-87967612D01*
X81125776Y-87967610D01*
X81166307Y-87834000D01*
X80349651Y-87834000D01*
X80395610Y-87805543D01*
X80463201Y-87716038D01*
X80493895Y-87608160D01*
X80483546Y-87496479D01*
X80433552Y-87396078D01*
X80356682Y-87326000D01*
X81166307Y-87326000D01*
X81166307Y-87325999D01*
X82443692Y-87325999D01*
X82443693Y-87326000D01*
X83260349Y-87326000D01*
X83214390Y-87354457D01*
X83146799Y-87443962D01*
X83116105Y-87551840D01*
X83126454Y-87663521D01*
X83176448Y-87763922D01*
X83253318Y-87834000D01*
X82443693Y-87834000D01*
X82484223Y-87967610D01*
X82484224Y-87967612D01*
X82577824Y-88142724D01*
X82703788Y-88296211D01*
X82857275Y-88422175D01*
X83032385Y-88515774D01*
X83032400Y-88515780D01*
X83222393Y-88573414D01*
X83222405Y-88573416D01*
X83370473Y-88587999D01*
X83370491Y-88588000D01*
X83716000Y-88588000D01*
X83716000Y-87880000D01*
X84224000Y-87880000D01*
X84224000Y-88588000D01*
X84569509Y-88588000D01*
X84569526Y-88587999D01*
X84717594Y-88573416D01*
X84717606Y-88573414D01*
X84907599Y-88515780D01*
X84907614Y-88515774D01*
X85082724Y-88422175D01*
X85236211Y-88296211D01*
X85362175Y-88142724D01*
X85455775Y-87967612D01*
X85455776Y-87967610D01*
X85496307Y-87834000D01*
X84679651Y-87834000D01*
X84725610Y-87805543D01*
X84793201Y-87716038D01*
X84823895Y-87608160D01*
X84813546Y-87496479D01*
X84763552Y-87396078D01*
X84686682Y-87326000D01*
X85496307Y-87326000D01*
X85496307Y-87325999D01*
X85455776Y-87192389D01*
X85455775Y-87192387D01*
X85362175Y-87017275D01*
X85236211Y-86863788D01*
X85082724Y-86737824D01*
X84907614Y-86644225D01*
X84907599Y-86644219D01*
X84717606Y-86586585D01*
X84717594Y-86586583D01*
X84569526Y-86572000D01*
X84106690Y-86572000D01*
X84038569Y-86551998D01*
X83992076Y-86498342D01*
X83981972Y-86428068D01*
X83990278Y-86397790D01*
X84030687Y-86300236D01*
X84050466Y-86150000D01*
X84030687Y-85999764D01*
X83972698Y-85859767D01*
X83972693Y-85859760D01*
X83880451Y-85739548D01*
X83760239Y-85647306D01*
X83760231Y-85647301D01*
X83620234Y-85589312D01*
X83507722Y-85574500D01*
X83507720Y-85574500D01*
X83432280Y-85574500D01*
X83432277Y-85574500D01*
X83319765Y-85589312D01*
X83179768Y-85647301D01*
X83179760Y-85647306D01*
X83059548Y-85739548D01*
X82967306Y-85859760D01*
X82967301Y-85859768D01*
X82909312Y-85999765D01*
X82889534Y-86149999D01*
X82889534Y-86150000D01*
X82909312Y-86300234D01*
X82967301Y-86440231D01*
X82967306Y-86440239D01*
X83006827Y-86491743D01*
X83032428Y-86557963D01*
X83018164Y-86627512D01*
X82968563Y-86678308D01*
X82966262Y-86679569D01*
X82857273Y-86737825D01*
X82703788Y-86863788D01*
X82577824Y-87017275D01*
X82484224Y-87192387D01*
X82484223Y-87192389D01*
X82443692Y-87325999D01*
X81166307Y-87325999D01*
X81125776Y-87192389D01*
X81125775Y-87192387D01*
X81032175Y-87017275D01*
X80906211Y-86863788D01*
X80752724Y-86737824D01*
X80577614Y-86644225D01*
X80577599Y-86644219D01*
X80387606Y-86586585D01*
X80387594Y-86586583D01*
X80239526Y-86572000D01*
X80044000Y-86572000D01*
X80044000Y-87280000D01*
X79536000Y-87280000D01*
X79536000Y-86572000D01*
X79340473Y-86572000D01*
X79192405Y-86586583D01*
X79192393Y-86586585D01*
X79002400Y-86644219D01*
X79002385Y-86644225D01*
X78827275Y-86737824D01*
X78673788Y-86863788D01*
X78547824Y-87017275D01*
X78454224Y-87192387D01*
X78454223Y-87192389D01*
X78413692Y-87325999D01*
X77189500Y-87325999D01*
X77189500Y-85074780D01*
X92050496Y-85074780D01*
X92070457Y-85264707D01*
X92087791Y-85318054D01*
X92129473Y-85446336D01*
X92129476Y-85446341D01*
X92224958Y-85611721D01*
X92224965Y-85611731D01*
X92352744Y-85753644D01*
X92352747Y-85753646D01*
X92507248Y-85865898D01*
X92681712Y-85943574D01*
X92726859Y-85953170D01*
X92789333Y-85986897D01*
X92823655Y-86049047D01*
X92823881Y-86095749D01*
X92824648Y-86095830D01*
X92803996Y-86292326D01*
X92823957Y-86482253D01*
X92849366Y-86560451D01*
X92882973Y-86663882D01*
X92882976Y-86663887D01*
X92978458Y-86829267D01*
X92978465Y-86829277D01*
X93106244Y-86971190D01*
X93106247Y-86971192D01*
X93260748Y-87083444D01*
X93435212Y-87161120D01*
X93622013Y-87200826D01*
X93812987Y-87200826D01*
X93999788Y-87161120D01*
X94156686Y-87091264D01*
X94227051Y-87081831D01*
X94270505Y-87099719D01*
X94271635Y-87097763D01*
X94277346Y-87101059D01*
X94277352Y-87101064D01*
X94451816Y-87178740D01*
X94638617Y-87218446D01*
X94829591Y-87218446D01*
X95016392Y-87178740D01*
X95190856Y-87101064D01*
X95345357Y-86988812D01*
X95390329Y-86938866D01*
X95473138Y-86846897D01*
X95473139Y-86846895D01*
X95473144Y-86846890D01*
X95568631Y-86681502D01*
X95627646Y-86499874D01*
X95647608Y-86309946D01*
X95642358Y-86260000D01*
X122480496Y-86260000D01*
X122500457Y-86449927D01*
X122530526Y-86542470D01*
X122559473Y-86631556D01*
X122578139Y-86663887D01*
X122654958Y-86796941D01*
X122654965Y-86796951D01*
X122782744Y-86938864D01*
X122782747Y-86938866D01*
X122937248Y-87051118D01*
X123111712Y-87128794D01*
X123298513Y-87168500D01*
X123489487Y-87168500D01*
X123676288Y-87128794D01*
X123850752Y-87051118D01*
X124005253Y-86938866D01*
X124005255Y-86938864D01*
X124133034Y-86796951D01*
X124133035Y-86796949D01*
X124133040Y-86796944D01*
X124228527Y-86631556D01*
X124287542Y-86449928D01*
X124307504Y-86260000D01*
X124287542Y-86070072D01*
X124228527Y-85888444D01*
X124133040Y-85723056D01*
X124133038Y-85723054D01*
X124133034Y-85723048D01*
X124005255Y-85581135D01*
X123850752Y-85468882D01*
X123676288Y-85391206D01*
X123489487Y-85351500D01*
X123298513Y-85351500D01*
X123111711Y-85391206D01*
X122937247Y-85468882D01*
X122782744Y-85581135D01*
X122654965Y-85723048D01*
X122654958Y-85723058D01*
X122559476Y-85888438D01*
X122559473Y-85888445D01*
X122500457Y-86070072D01*
X122480496Y-86260000D01*
X95642358Y-86260000D01*
X95636332Y-86202664D01*
X95649104Y-86132828D01*
X95697606Y-86080982D01*
X95766439Y-86063587D01*
X95787839Y-86066250D01*
X95916508Y-86093600D01*
X95916513Y-86093600D01*
X96107487Y-86093600D01*
X96294288Y-86053894D01*
X96468752Y-85976218D01*
X96623253Y-85863966D01*
X96627040Y-85859760D01*
X96751034Y-85722051D01*
X96751035Y-85722049D01*
X96751040Y-85722044D01*
X96846527Y-85556656D01*
X96905542Y-85375028D01*
X96909343Y-85338862D01*
X101229806Y-85338862D01*
X101249767Y-85528789D01*
X101266776Y-85581135D01*
X101308783Y-85710418D01*
X101308786Y-85710423D01*
X101404268Y-85875803D01*
X101404275Y-85875813D01*
X101532054Y-86017726D01*
X101532057Y-86017728D01*
X101686558Y-86129980D01*
X101861022Y-86207656D01*
X102047823Y-86247362D01*
X102238797Y-86247362D01*
X102425598Y-86207656D01*
X102600062Y-86129980D01*
X102754563Y-86017728D01*
X102779906Y-85989582D01*
X102882344Y-85875813D01*
X102882345Y-85875811D01*
X102882350Y-85875806D01*
X102977837Y-85710418D01*
X103036852Y-85528790D01*
X103056814Y-85338862D01*
X103036852Y-85148934D01*
X102977837Y-84967306D01*
X102882350Y-84801918D01*
X102882348Y-84801916D01*
X102882344Y-84801910D01*
X102754565Y-84659997D01*
X102600062Y-84547744D01*
X102425598Y-84470068D01*
X102238797Y-84430362D01*
X102047823Y-84430362D01*
X101861021Y-84470068D01*
X101686557Y-84547744D01*
X101532054Y-84659997D01*
X101404275Y-84801910D01*
X101404268Y-84801920D01*
X101308786Y-84967300D01*
X101308783Y-84967307D01*
X101249767Y-85148934D01*
X101229806Y-85338862D01*
X96909343Y-85338862D01*
X96925504Y-85185100D01*
X96905542Y-84995172D01*
X96846527Y-84813544D01*
X96751040Y-84648156D01*
X96751038Y-84648154D01*
X96751034Y-84648148D01*
X96623255Y-84506235D01*
X96468752Y-84393982D01*
X96294288Y-84316306D01*
X96107487Y-84276600D01*
X95916513Y-84276600D01*
X95729711Y-84316306D01*
X95555247Y-84393982D01*
X95400744Y-84506235D01*
X95272965Y-84648148D01*
X95272958Y-84648158D01*
X95177476Y-84813538D01*
X95177473Y-84813545D01*
X95118457Y-84995172D01*
X95098496Y-85185100D01*
X95109771Y-85292379D01*
X95096998Y-85362217D01*
X95048496Y-85414064D01*
X94979663Y-85431458D01*
X94958264Y-85428796D01*
X94829592Y-85401446D01*
X94829591Y-85401446D01*
X94638617Y-85401446D01*
X94451813Y-85441152D01*
X94294919Y-85511006D01*
X94224552Y-85520440D01*
X94181087Y-85502571D01*
X94179969Y-85504509D01*
X94174253Y-85501209D01*
X94174252Y-85501208D01*
X94094857Y-85465859D01*
X93999785Y-85423530D01*
X93954635Y-85413933D01*
X93892162Y-85380204D01*
X93857842Y-85318054D01*
X93857625Y-85271357D01*
X93856852Y-85271276D01*
X93875358Y-85095194D01*
X93877504Y-85074780D01*
X93857542Y-84884852D01*
X93798527Y-84703224D01*
X93703040Y-84537836D01*
X93703038Y-84537834D01*
X93703034Y-84537828D01*
X93575255Y-84395915D01*
X93420752Y-84283662D01*
X93246288Y-84205986D01*
X93059487Y-84166280D01*
X92868513Y-84166280D01*
X92681711Y-84205986D01*
X92507247Y-84283662D01*
X92352744Y-84395915D01*
X92224965Y-84537828D01*
X92224958Y-84537838D01*
X92129476Y-84703218D01*
X92129473Y-84703225D01*
X92070457Y-84884852D01*
X92050496Y-85074780D01*
X77189500Y-85074780D01*
X77189500Y-83552400D01*
X88037296Y-83552400D01*
X88057257Y-83742327D01*
X88087326Y-83834870D01*
X88116273Y-83923956D01*
X88116276Y-83923961D01*
X88211758Y-84089341D01*
X88211765Y-84089351D01*
X88339544Y-84231264D01*
X88339547Y-84231266D01*
X88494048Y-84343518D01*
X88668512Y-84421194D01*
X88855313Y-84460900D01*
X89046287Y-84460900D01*
X89233088Y-84421194D01*
X89407552Y-84343518D01*
X89562053Y-84231266D01*
X89562055Y-84231264D01*
X89689834Y-84089351D01*
X89689835Y-84089349D01*
X89689840Y-84089344D01*
X89785327Y-83923956D01*
X89844342Y-83742328D01*
X89864304Y-83552400D01*
X89844342Y-83362472D01*
X89841037Y-83352300D01*
X102236210Y-83352300D01*
X102256171Y-83542227D01*
X102286240Y-83634770D01*
X102315187Y-83723856D01*
X102315190Y-83723861D01*
X102410672Y-83889241D01*
X102410679Y-83889251D01*
X102538458Y-84031164D01*
X102538461Y-84031166D01*
X102692962Y-84143418D01*
X102867426Y-84221094D01*
X103054227Y-84260800D01*
X103245201Y-84260800D01*
X103407039Y-84226400D01*
X104852096Y-84226400D01*
X104872057Y-84416327D01*
X104886540Y-84460900D01*
X104931073Y-84597956D01*
X104931076Y-84597961D01*
X105026558Y-84763341D01*
X105026565Y-84763351D01*
X105154344Y-84905264D01*
X105154347Y-84905266D01*
X105308848Y-85017518D01*
X105483312Y-85095194D01*
X105670113Y-85134900D01*
X105861087Y-85134900D01*
X106047888Y-85095194D01*
X106222352Y-85017518D01*
X106376853Y-84905266D01*
X106504640Y-84763344D01*
X106600127Y-84597956D01*
X106631954Y-84500003D01*
X124986620Y-84500003D01*
X125006090Y-84697694D01*
X125006091Y-84697700D01*
X125006092Y-84697701D01*
X125063759Y-84887804D01*
X125157405Y-85063004D01*
X125283432Y-85216568D01*
X125436996Y-85342595D01*
X125612196Y-85436241D01*
X125802299Y-85493908D01*
X125802303Y-85493908D01*
X125802305Y-85493909D01*
X125999997Y-85513380D01*
X126000000Y-85513380D01*
X126000003Y-85513380D01*
X126197694Y-85493909D01*
X126197695Y-85493908D01*
X126197701Y-85493908D01*
X126387804Y-85436241D01*
X126563004Y-85342595D01*
X126716568Y-85216568D01*
X126842595Y-85063004D01*
X126936241Y-84887804D01*
X126993908Y-84697701D01*
X127003733Y-84597954D01*
X127013380Y-84500003D01*
X127013380Y-84499996D01*
X126993909Y-84302305D01*
X126993908Y-84302303D01*
X126993908Y-84302299D01*
X126936241Y-84112196D01*
X126842595Y-83936996D01*
X126716568Y-83783432D01*
X126563004Y-83657405D01*
X126387804Y-83563759D01*
X126197701Y-83506092D01*
X126197700Y-83506091D01*
X126197694Y-83506090D01*
X126000003Y-83486620D01*
X125999997Y-83486620D01*
X125802305Y-83506090D01*
X125612195Y-83563759D01*
X125436995Y-83657405D01*
X125283432Y-83783432D01*
X125157405Y-83936995D01*
X125063759Y-84112195D01*
X125006090Y-84302305D01*
X124986620Y-84499996D01*
X124986620Y-84500003D01*
X106631954Y-84500003D01*
X106659142Y-84416328D01*
X106679104Y-84226400D01*
X106659142Y-84036472D01*
X106600127Y-83854844D01*
X106504640Y-83689456D01*
X106504638Y-83689454D01*
X106504634Y-83689448D01*
X106376855Y-83547535D01*
X106222352Y-83435282D01*
X106047888Y-83357606D01*
X105861087Y-83317900D01*
X105670113Y-83317900D01*
X105483311Y-83357606D01*
X105308847Y-83435282D01*
X105154344Y-83547535D01*
X105026565Y-83689448D01*
X105026558Y-83689458D01*
X104931076Y-83854838D01*
X104931073Y-83854845D01*
X104872057Y-84036472D01*
X104852096Y-84226400D01*
X103407039Y-84226400D01*
X103432002Y-84221094D01*
X103606466Y-84143418D01*
X103760967Y-84031166D01*
X103888754Y-83889244D01*
X103984241Y-83723856D01*
X104043256Y-83542228D01*
X104063218Y-83352300D01*
X104043256Y-83162372D01*
X103984241Y-82980744D01*
X103888754Y-82815356D01*
X103888752Y-82815354D01*
X103888748Y-82815348D01*
X103760969Y-82673435D01*
X103606466Y-82561182D01*
X103432002Y-82483506D01*
X103245201Y-82443800D01*
X103054227Y-82443800D01*
X102867425Y-82483506D01*
X102692961Y-82561182D01*
X102538458Y-82673435D01*
X102410679Y-82815348D01*
X102410672Y-82815358D01*
X102315190Y-82980738D01*
X102315187Y-82980745D01*
X102256171Y-83162372D01*
X102236210Y-83352300D01*
X89841037Y-83352300D01*
X89785327Y-83180844D01*
X89689840Y-83015456D01*
X89689838Y-83015454D01*
X89689834Y-83015448D01*
X89562055Y-82873535D01*
X89456767Y-82797039D01*
X89419757Y-82749044D01*
X89375251Y-82746500D01*
X89366344Y-82742935D01*
X89233088Y-82683606D01*
X89046287Y-82643900D01*
X88855313Y-82643900D01*
X88668511Y-82683606D01*
X88494047Y-82761282D01*
X88339544Y-82873535D01*
X88211765Y-83015448D01*
X88211758Y-83015458D01*
X88116276Y-83180838D01*
X88116273Y-83180845D01*
X88057257Y-83362472D01*
X88037296Y-83552400D01*
X77189500Y-83552400D01*
X77189500Y-81770532D01*
X89084118Y-81770532D01*
X89104079Y-81960459D01*
X89134148Y-82053002D01*
X89163095Y-82142088D01*
X89163098Y-82142093D01*
X89258580Y-82307473D01*
X89258587Y-82307483D01*
X89386366Y-82449396D01*
X89386369Y-82449398D01*
X89433314Y-82483506D01*
X89491654Y-82525892D01*
X89528662Y-82573885D01*
X89573170Y-82576431D01*
X89582067Y-82579992D01*
X89715334Y-82639326D01*
X89902135Y-82679032D01*
X90093109Y-82679032D01*
X90279910Y-82639326D01*
X90454374Y-82561650D01*
X90608875Y-82449398D01*
X90609680Y-82448504D01*
X90736656Y-82307483D01*
X90736657Y-82307481D01*
X90736662Y-82307476D01*
X90832149Y-82142088D01*
X90891164Y-81960460D01*
X90911126Y-81770532D01*
X90891164Y-81580604D01*
X90832149Y-81398976D01*
X90736662Y-81233588D01*
X90736660Y-81233586D01*
X90736656Y-81233580D01*
X90608877Y-81091667D01*
X90454374Y-80979414D01*
X90279910Y-80901738D01*
X90147532Y-80873600D01*
X101245296Y-80873600D01*
X101265257Y-81063527D01*
X101274401Y-81091667D01*
X101324273Y-81245156D01*
X101324276Y-81245161D01*
X101419758Y-81410541D01*
X101419765Y-81410551D01*
X101547544Y-81552464D01*
X101547547Y-81552466D01*
X101702048Y-81664718D01*
X101876512Y-81742394D01*
X102063313Y-81782100D01*
X102254287Y-81782100D01*
X102441088Y-81742394D01*
X102615552Y-81664718D01*
X102770053Y-81552466D01*
X102897840Y-81410544D01*
X102993327Y-81245156D01*
X103052342Y-81063528D01*
X103072304Y-80873600D01*
X103052342Y-80683672D01*
X102993327Y-80502044D01*
X102897840Y-80336656D01*
X102897838Y-80336654D01*
X102897834Y-80336648D01*
X102770055Y-80194735D01*
X102615552Y-80082482D01*
X102441088Y-80004806D01*
X102254287Y-79965100D01*
X102063313Y-79965100D01*
X101876511Y-80004806D01*
X101702047Y-80082482D01*
X101547544Y-80194735D01*
X101419765Y-80336648D01*
X101419758Y-80336658D01*
X101324276Y-80502038D01*
X101324273Y-80502045D01*
X101265257Y-80683672D01*
X101245296Y-80873600D01*
X90147532Y-80873600D01*
X90093109Y-80862032D01*
X89902135Y-80862032D01*
X89715333Y-80901738D01*
X89540869Y-80979414D01*
X89386366Y-81091667D01*
X89258587Y-81233580D01*
X89258580Y-81233590D01*
X89163098Y-81398970D01*
X89163095Y-81398976D01*
X89159334Y-81410551D01*
X89104079Y-81580604D01*
X89084118Y-81770532D01*
X77189500Y-81770532D01*
X77189500Y-78685999D01*
X78413692Y-78685999D01*
X78413693Y-78686000D01*
X79230349Y-78686000D01*
X79184390Y-78714457D01*
X79116799Y-78803962D01*
X79086105Y-78911840D01*
X79096454Y-79023521D01*
X79146448Y-79123922D01*
X79223318Y-79194000D01*
X78413693Y-79194000D01*
X78454223Y-79327610D01*
X78454224Y-79327612D01*
X78547824Y-79502724D01*
X78673788Y-79656211D01*
X78827275Y-79782175D01*
X79002385Y-79875774D01*
X79002400Y-79875780D01*
X79192393Y-79933414D01*
X79192405Y-79933416D01*
X79340473Y-79947999D01*
X79340491Y-79948000D01*
X79536000Y-79948000D01*
X79536000Y-79240000D01*
X80044000Y-79240000D01*
X80044000Y-79948000D01*
X80239509Y-79948000D01*
X80239526Y-79947999D01*
X80387594Y-79933416D01*
X80387606Y-79933414D01*
X80577599Y-79875780D01*
X80577614Y-79875774D01*
X80752724Y-79782175D01*
X80906211Y-79656211D01*
X81032175Y-79502724D01*
X81125775Y-79327612D01*
X81125776Y-79327610D01*
X81166307Y-79194000D01*
X80349651Y-79194000D01*
X80395610Y-79165543D01*
X80463201Y-79076038D01*
X80493895Y-78968160D01*
X80483546Y-78856479D01*
X80433552Y-78756078D01*
X80356682Y-78686000D01*
X81166307Y-78686000D01*
X81166307Y-78685999D01*
X82443692Y-78685999D01*
X82443693Y-78686000D01*
X83260349Y-78686000D01*
X83214390Y-78714457D01*
X83146799Y-78803962D01*
X83116105Y-78911840D01*
X83126454Y-79023521D01*
X83176448Y-79123922D01*
X83253318Y-79194000D01*
X82443693Y-79194000D01*
X82484223Y-79327610D01*
X82484224Y-79327612D01*
X82577824Y-79502724D01*
X82703788Y-79656211D01*
X82857275Y-79782175D01*
X82966261Y-79840430D01*
X83016909Y-79890182D01*
X83032619Y-79959419D01*
X83008403Y-80026158D01*
X83006828Y-80028256D01*
X82967303Y-80079765D01*
X82967301Y-80079768D01*
X82909312Y-80219765D01*
X82889534Y-80369999D01*
X82889534Y-80370000D01*
X82909312Y-80520234D01*
X82967301Y-80660231D01*
X82967306Y-80660239D01*
X83059548Y-80780451D01*
X83179760Y-80872693D01*
X83179767Y-80872698D01*
X83319764Y-80930687D01*
X83432280Y-80945500D01*
X83432287Y-80945500D01*
X83507713Y-80945500D01*
X83507720Y-80945500D01*
X83620236Y-80930687D01*
X83760233Y-80872698D01*
X83880451Y-80780451D01*
X83972698Y-80660233D01*
X84030687Y-80520236D01*
X84050466Y-80370000D01*
X84030687Y-80219764D01*
X83990280Y-80122214D01*
X83982692Y-80051629D01*
X84014471Y-79988142D01*
X84075529Y-79951914D01*
X84106690Y-79948000D01*
X84569509Y-79948000D01*
X84569526Y-79947999D01*
X84717594Y-79933416D01*
X84717606Y-79933414D01*
X84907599Y-79875780D01*
X84907614Y-79875774D01*
X85082724Y-79782175D01*
X85236211Y-79656211D01*
X85362175Y-79502724D01*
X85455775Y-79327612D01*
X85455776Y-79327610D01*
X85496307Y-79194000D01*
X84679651Y-79194000D01*
X84725610Y-79165543D01*
X84793201Y-79076038D01*
X84823895Y-78968160D01*
X84813546Y-78856479D01*
X84806137Y-78841600D01*
X88937896Y-78841600D01*
X88957857Y-79031527D01*
X88979601Y-79098445D01*
X89016873Y-79213156D01*
X89016876Y-79213161D01*
X89112358Y-79378541D01*
X89112365Y-79378551D01*
X89240144Y-79520464D01*
X89240147Y-79520466D01*
X89394648Y-79632718D01*
X89569112Y-79710394D01*
X89755913Y-79750100D01*
X89946887Y-79750100D01*
X90133688Y-79710394D01*
X90308152Y-79632718D01*
X90462653Y-79520466D01*
X90590440Y-79378544D01*
X90685927Y-79213156D01*
X90744942Y-79031528D01*
X90764904Y-78841600D01*
X90744942Y-78651672D01*
X90691111Y-78486000D01*
X95454096Y-78486000D01*
X95474057Y-78675927D01*
X95504126Y-78768470D01*
X95533073Y-78857556D01*
X95533076Y-78857561D01*
X95628558Y-79022941D01*
X95628565Y-79022951D01*
X95756344Y-79164864D01*
X95770778Y-79175351D01*
X95910848Y-79277118D01*
X96085312Y-79354794D01*
X96272113Y-79394500D01*
X96463087Y-79394500D01*
X96649888Y-79354794D01*
X96824352Y-79277118D01*
X96978853Y-79164866D01*
X96991233Y-79151117D01*
X97106634Y-79022951D01*
X97106635Y-79022949D01*
X97106640Y-79022944D01*
X97202127Y-78857556D01*
X97261142Y-78675928D01*
X97265086Y-78638400D01*
X102921696Y-78638400D01*
X102941657Y-78828327D01*
X102951156Y-78857561D01*
X103000673Y-79009956D01*
X103000676Y-79009961D01*
X103096158Y-79175341D01*
X103096165Y-79175351D01*
X103223944Y-79317264D01*
X103223947Y-79317266D01*
X103378448Y-79429518D01*
X103552912Y-79507194D01*
X103739713Y-79546900D01*
X103930687Y-79546900D01*
X104117488Y-79507194D01*
X104217873Y-79462500D01*
X112086496Y-79462500D01*
X112106457Y-79652427D01*
X112125292Y-79710393D01*
X112165473Y-79834056D01*
X112165476Y-79834061D01*
X112260958Y-79999441D01*
X112260965Y-79999451D01*
X112388744Y-80141364D01*
X112388747Y-80141366D01*
X112543248Y-80253618D01*
X112717712Y-80331294D01*
X112904513Y-80371000D01*
X113095487Y-80371000D01*
X113282288Y-80331294D01*
X113456752Y-80253618D01*
X113585778Y-80159874D01*
X113652644Y-80136017D01*
X113721796Y-80152097D01*
X113733899Y-80159875D01*
X113781880Y-80194735D01*
X113873248Y-80261118D01*
X114047712Y-80338794D01*
X114234513Y-80378500D01*
X114425487Y-80378500D01*
X114612288Y-80338794D01*
X114786752Y-80261118D01*
X114941253Y-80148866D01*
X114965246Y-80122219D01*
X115069034Y-80006951D01*
X115069035Y-80006949D01*
X115069040Y-80006944D01*
X115164527Y-79841556D01*
X115223542Y-79659928D01*
X115243504Y-79470000D01*
X115223542Y-79280072D01*
X115164527Y-79098444D01*
X115069040Y-78933056D01*
X115069038Y-78933054D01*
X115069034Y-78933048D01*
X114941255Y-78791135D01*
X114786752Y-78678882D01*
X114612288Y-78601206D01*
X114425487Y-78561500D01*
X114234513Y-78561500D01*
X114047711Y-78601206D01*
X113873248Y-78678882D01*
X113744221Y-78772625D01*
X113677354Y-78796483D01*
X113608202Y-78780402D01*
X113596100Y-78772624D01*
X113456752Y-78671382D01*
X113282288Y-78593706D01*
X113095487Y-78554000D01*
X112904513Y-78554000D01*
X112717711Y-78593706D01*
X112543247Y-78671382D01*
X112388744Y-78783635D01*
X112260965Y-78925548D01*
X112260958Y-78925558D01*
X112165476Y-79090938D01*
X112165473Y-79090945D01*
X112106457Y-79272572D01*
X112086496Y-79462500D01*
X104217873Y-79462500D01*
X104291952Y-79429518D01*
X104446453Y-79317266D01*
X104479943Y-79280072D01*
X104574234Y-79175351D01*
X104574235Y-79175349D01*
X104574240Y-79175344D01*
X104669727Y-79009956D01*
X104728742Y-78828328D01*
X104748704Y-78638400D01*
X104728742Y-78448472D01*
X104691418Y-78333600D01*
X108560496Y-78333600D01*
X108580457Y-78523527D01*
X108602033Y-78589928D01*
X108639473Y-78705156D01*
X108639476Y-78705161D01*
X108734958Y-78870541D01*
X108734965Y-78870551D01*
X108862744Y-79012464D01*
X108899083Y-79038866D01*
X109017248Y-79124718D01*
X109191712Y-79202394D01*
X109378513Y-79242100D01*
X109569487Y-79242100D01*
X109756288Y-79202394D01*
X109930752Y-79124718D01*
X110085253Y-79012466D01*
X110189263Y-78896951D01*
X110213034Y-78870551D01*
X110213035Y-78870549D01*
X110213040Y-78870544D01*
X110266304Y-78778288D01*
X110317684Y-78729297D01*
X110387397Y-78715860D01*
X110449481Y-78739353D01*
X110490448Y-78769118D01*
X110664912Y-78846794D01*
X110851713Y-78886500D01*
X111042687Y-78886500D01*
X111229488Y-78846794D01*
X111403952Y-78769118D01*
X111558453Y-78656866D01*
X111575080Y-78638400D01*
X111686234Y-78514951D01*
X111686235Y-78514949D01*
X111686240Y-78514944D01*
X111775697Y-78360000D01*
X118887896Y-78360000D01*
X118907857Y-78549927D01*
X118920855Y-78589928D01*
X118966873Y-78731556D01*
X118989966Y-78771554D01*
X119062358Y-78896941D01*
X119062365Y-78896951D01*
X119190144Y-79038864D01*
X119190147Y-79038866D01*
X119344648Y-79151118D01*
X119519112Y-79228794D01*
X119705913Y-79268500D01*
X119896887Y-79268500D01*
X120083688Y-79228794D01*
X120258152Y-79151118D01*
X120412653Y-79038866D01*
X120436424Y-79012466D01*
X120540434Y-78896951D01*
X120540435Y-78896949D01*
X120540440Y-78896944D01*
X120635927Y-78731556D01*
X120694942Y-78549928D01*
X120710700Y-78400000D01*
X121756496Y-78400000D01*
X121776457Y-78589927D01*
X121802924Y-78671382D01*
X121835473Y-78771556D01*
X121840580Y-78780402D01*
X121930958Y-78936941D01*
X121930965Y-78936951D01*
X122058744Y-79078864D01*
X122075371Y-79090944D01*
X122213248Y-79191118D01*
X122387712Y-79268794D01*
X122574513Y-79308500D01*
X122765487Y-79308500D01*
X122952288Y-79268794D01*
X123126752Y-79191118D01*
X123281253Y-79078866D01*
X123281255Y-79078864D01*
X123409034Y-78936951D01*
X123409035Y-78936949D01*
X123409040Y-78936944D01*
X123504527Y-78771556D01*
X123563542Y-78589928D01*
X123583504Y-78400000D01*
X123563542Y-78210072D01*
X123504527Y-78028444D01*
X123409040Y-77863056D01*
X123409038Y-77863054D01*
X123409034Y-77863048D01*
X123281255Y-77721135D01*
X123126752Y-77608882D01*
X122952288Y-77531206D01*
X122765487Y-77491500D01*
X122574513Y-77491500D01*
X122387711Y-77531206D01*
X122213247Y-77608882D01*
X122058744Y-77721135D01*
X121930965Y-77863048D01*
X121930958Y-77863058D01*
X121835476Y-78028438D01*
X121835473Y-78028444D01*
X121820999Y-78072986D01*
X121776457Y-78210072D01*
X121756496Y-78400000D01*
X120710700Y-78400000D01*
X120714904Y-78360000D01*
X120694942Y-78170072D01*
X120635927Y-77988444D01*
X120540440Y-77823056D01*
X120540438Y-77823054D01*
X120540434Y-77823048D01*
X120412655Y-77681135D01*
X120258152Y-77568882D01*
X120083688Y-77491206D01*
X119896887Y-77451500D01*
X119705913Y-77451500D01*
X119519111Y-77491206D01*
X119344647Y-77568882D01*
X119190144Y-77681135D01*
X119062365Y-77823048D01*
X119062358Y-77823058D01*
X118966876Y-77988438D01*
X118966873Y-77988444D01*
X118953878Y-78028438D01*
X118907857Y-78170072D01*
X118887896Y-78360000D01*
X111775697Y-78360000D01*
X111781727Y-78349556D01*
X111840742Y-78167928D01*
X111860704Y-77978000D01*
X111840742Y-77788072D01*
X111781727Y-77606444D01*
X111686240Y-77441056D01*
X111686238Y-77441054D01*
X111686234Y-77441048D01*
X111558455Y-77299135D01*
X111403952Y-77186882D01*
X111229488Y-77109206D01*
X111042687Y-77069500D01*
X110851713Y-77069500D01*
X110664911Y-77109206D01*
X110490447Y-77186882D01*
X110335944Y-77299135D01*
X110208165Y-77441048D01*
X110208161Y-77441054D01*
X110208160Y-77441056D01*
X110194448Y-77464806D01*
X110154897Y-77533310D01*
X110103514Y-77582303D01*
X110033800Y-77595738D01*
X109971717Y-77572245D01*
X109930752Y-77542482D01*
X109756288Y-77464806D01*
X109569487Y-77425100D01*
X109378513Y-77425100D01*
X109191711Y-77464806D01*
X109017247Y-77542482D01*
X108862744Y-77654735D01*
X108734965Y-77796648D01*
X108734958Y-77796658D01*
X108639476Y-77962038D01*
X108639473Y-77962045D01*
X108580457Y-78143672D01*
X108560496Y-78333600D01*
X104691418Y-78333600D01*
X104669727Y-78266844D01*
X104574240Y-78101456D01*
X104574238Y-78101454D01*
X104574234Y-78101448D01*
X104446455Y-77959535D01*
X104291952Y-77847282D01*
X104117488Y-77769606D01*
X103930687Y-77729900D01*
X103739713Y-77729900D01*
X103552911Y-77769606D01*
X103378447Y-77847282D01*
X103223944Y-77959535D01*
X103096165Y-78101448D01*
X103096158Y-78101458D01*
X103000676Y-78266838D01*
X103000673Y-78266845D01*
X102941657Y-78448472D01*
X102921696Y-78638400D01*
X97265086Y-78638400D01*
X97281104Y-78486000D01*
X97261142Y-78296072D01*
X97202127Y-78114444D01*
X97106640Y-77949056D01*
X97106638Y-77949054D01*
X97106634Y-77949048D01*
X96978855Y-77807135D01*
X96824352Y-77694882D01*
X96649888Y-77617206D01*
X96463087Y-77577500D01*
X96272113Y-77577500D01*
X96085311Y-77617206D01*
X95910847Y-77694882D01*
X95756344Y-77807135D01*
X95628565Y-77949048D01*
X95628558Y-77949058D01*
X95533076Y-78114438D01*
X95533073Y-78114445D01*
X95474057Y-78296072D01*
X95454096Y-78486000D01*
X90691111Y-78486000D01*
X90685927Y-78470044D01*
X90590440Y-78304656D01*
X90590438Y-78304654D01*
X90590434Y-78304648D01*
X90462655Y-78162735D01*
X90308152Y-78050482D01*
X90133688Y-77972806D01*
X89946887Y-77933100D01*
X89755913Y-77933100D01*
X89569111Y-77972806D01*
X89394647Y-78050482D01*
X89240144Y-78162735D01*
X89112365Y-78304648D01*
X89112358Y-78304658D01*
X89016876Y-78470038D01*
X89016873Y-78470045D01*
X88957857Y-78651672D01*
X88937896Y-78841600D01*
X84806137Y-78841600D01*
X84763552Y-78756078D01*
X84686682Y-78686000D01*
X85496307Y-78686000D01*
X85496307Y-78685999D01*
X85455776Y-78552389D01*
X85455775Y-78552387D01*
X85362175Y-78377275D01*
X85236211Y-78223788D01*
X85082724Y-78097824D01*
X84907614Y-78004225D01*
X84907599Y-78004219D01*
X84717606Y-77946585D01*
X84717594Y-77946583D01*
X84569526Y-77932000D01*
X84224000Y-77932000D01*
X84224000Y-78640000D01*
X83716000Y-78640000D01*
X83716000Y-77932000D01*
X83370473Y-77932000D01*
X83222405Y-77946583D01*
X83222393Y-77946585D01*
X83032400Y-78004219D01*
X83032385Y-78004225D01*
X82857275Y-78097824D01*
X82703788Y-78223788D01*
X82577824Y-78377275D01*
X82484224Y-78552387D01*
X82484223Y-78552389D01*
X82443692Y-78685999D01*
X81166307Y-78685999D01*
X81125776Y-78552389D01*
X81125775Y-78552387D01*
X81032175Y-78377275D01*
X80906211Y-78223788D01*
X80752724Y-78097824D01*
X80577614Y-78004225D01*
X80577599Y-78004219D01*
X80387606Y-77946585D01*
X80387594Y-77946583D01*
X80239526Y-77932000D01*
X80044000Y-77932000D01*
X80044000Y-78640000D01*
X79536000Y-78640000D01*
X79536000Y-77932000D01*
X79340473Y-77932000D01*
X79192405Y-77946583D01*
X79192393Y-77946585D01*
X79002400Y-78004219D01*
X79002385Y-78004225D01*
X78827275Y-78097824D01*
X78673788Y-78223788D01*
X78547824Y-78377275D01*
X78454224Y-78552387D01*
X78454223Y-78552389D01*
X78413692Y-78685999D01*
X77189500Y-78685999D01*
X77189500Y-74625200D01*
X91644096Y-74625200D01*
X91664057Y-74815127D01*
X91694126Y-74907670D01*
X91723073Y-74996756D01*
X91723076Y-74996761D01*
X91818558Y-75162141D01*
X91818565Y-75162151D01*
X91946344Y-75304064D01*
X91946347Y-75304066D01*
X92100848Y-75416318D01*
X92275312Y-75493994D01*
X92462113Y-75533700D01*
X92653087Y-75533700D01*
X92839888Y-75493994D01*
X93014352Y-75416318D01*
X93168853Y-75304066D01*
X93296640Y-75162144D01*
X93392127Y-74996756D01*
X93451142Y-74815128D01*
X93471104Y-74625200D01*
X93451142Y-74435272D01*
X93392127Y-74253644D01*
X93296640Y-74088256D01*
X93296638Y-74088254D01*
X93296634Y-74088248D01*
X93185481Y-73964800D01*
X109678096Y-73964800D01*
X109698057Y-74154727D01*
X109728126Y-74247270D01*
X109757073Y-74336356D01*
X109757076Y-74336361D01*
X109810211Y-74428394D01*
X109826949Y-74497389D01*
X109810212Y-74554393D01*
X109807872Y-74558444D01*
X109807870Y-74558449D01*
X109748857Y-74740071D01*
X109728896Y-74930000D01*
X109748857Y-75119927D01*
X109765364Y-75170728D01*
X109807873Y-75301556D01*
X109807876Y-75301561D01*
X109903358Y-75466941D01*
X109903365Y-75466951D01*
X110031144Y-75608864D01*
X110031147Y-75608866D01*
X110185648Y-75721118D01*
X110360112Y-75798794D01*
X110546913Y-75838500D01*
X110737887Y-75838500D01*
X110924688Y-75798794D01*
X111052895Y-75741712D01*
X111123259Y-75732278D01*
X111178203Y-75754884D01*
X111201648Y-75771918D01*
X111376112Y-75849594D01*
X111562913Y-75889300D01*
X111753887Y-75889300D01*
X111940688Y-75849594D01*
X112115152Y-75771918D01*
X112269653Y-75659666D01*
X112269655Y-75659664D01*
X112397434Y-75517751D01*
X112397435Y-75517749D01*
X112397440Y-75517744D01*
X112492927Y-75352356D01*
X112551942Y-75170728D01*
X112571904Y-74980800D01*
X112551942Y-74790872D01*
X112492927Y-74609244D01*
X112435858Y-74510399D01*
X112419121Y-74441405D01*
X112435859Y-74384400D01*
X112492927Y-74285556D01*
X112551942Y-74103928D01*
X112571904Y-73914000D01*
X112551942Y-73724072D01*
X112492927Y-73542444D01*
X112450523Y-73469000D01*
X112433786Y-73400006D01*
X112450524Y-73342999D01*
X112463598Y-73320354D01*
X112492927Y-73269556D01*
X112551942Y-73087928D01*
X112571904Y-72898000D01*
X112551942Y-72708072D01*
X112492927Y-72526444D01*
X112397440Y-72361056D01*
X112397438Y-72361054D01*
X112397434Y-72361048D01*
X112269655Y-72219135D01*
X112115152Y-72106882D01*
X111940688Y-72029206D01*
X111756239Y-71990000D01*
X112886496Y-71990000D01*
X112906457Y-72179927D01*
X112919197Y-72219134D01*
X112965473Y-72361556D01*
X112969377Y-72368318D01*
X113060958Y-72526941D01*
X113060965Y-72526951D01*
X113188744Y-72668864D01*
X113188747Y-72668866D01*
X113343248Y-72781118D01*
X113517712Y-72858794D01*
X113704513Y-72898500D01*
X113895487Y-72898500D01*
X114082288Y-72858794D01*
X114256752Y-72781118D01*
X114411253Y-72668866D01*
X114539040Y-72526944D01*
X114634527Y-72361556D01*
X114693542Y-72179928D01*
X114713504Y-71990000D01*
X114693542Y-71800072D01*
X114634527Y-71618444D01*
X114539040Y-71453056D01*
X114539038Y-71453054D01*
X114539034Y-71453048D01*
X114411255Y-71311135D01*
X114256752Y-71198882D01*
X114082288Y-71121206D01*
X113895487Y-71081500D01*
X113704513Y-71081500D01*
X113517711Y-71121206D01*
X113343247Y-71198882D01*
X113188744Y-71311135D01*
X113060965Y-71453048D01*
X113060958Y-71453058D01*
X112965476Y-71618438D01*
X112965473Y-71618445D01*
X112906457Y-71800072D01*
X112886496Y-71990000D01*
X111756239Y-71990000D01*
X111753887Y-71989500D01*
X111562913Y-71989500D01*
X111376111Y-72029206D01*
X111201644Y-72106883D01*
X111158899Y-72137940D01*
X111092031Y-72161798D01*
X111033591Y-72151110D01*
X110873888Y-72080006D01*
X110687087Y-72040300D01*
X110496113Y-72040300D01*
X110309311Y-72080006D01*
X110134847Y-72157682D01*
X109980344Y-72269935D01*
X109852565Y-72411848D01*
X109852558Y-72411858D01*
X109757076Y-72577238D01*
X109757073Y-72577245D01*
X109698057Y-72758872D01*
X109678096Y-72948800D01*
X109698057Y-73138727D01*
X109728126Y-73231270D01*
X109757073Y-73320356D01*
X109757073Y-73320357D01*
X109757074Y-73320358D01*
X109799476Y-73393801D01*
X109816213Y-73462796D01*
X109799476Y-73519799D01*
X109757074Y-73593241D01*
X109757073Y-73593245D01*
X109698057Y-73774872D01*
X109678096Y-73964800D01*
X93185481Y-73964800D01*
X93168855Y-73946335D01*
X93014352Y-73834082D01*
X92839888Y-73756406D01*
X92653087Y-73716700D01*
X92462113Y-73716700D01*
X92275311Y-73756406D01*
X92100847Y-73834082D01*
X91946344Y-73946335D01*
X91818565Y-74088248D01*
X91818558Y-74088258D01*
X91780182Y-74154728D01*
X91723073Y-74253644D01*
X91708599Y-74298186D01*
X91664057Y-74435272D01*
X91644096Y-74625200D01*
X77189500Y-74625200D01*
X77189500Y-73050400D01*
X94539696Y-73050400D01*
X94559657Y-73240327D01*
X94589726Y-73332870D01*
X94618673Y-73421956D01*
X94647041Y-73471091D01*
X94714158Y-73587341D01*
X94714165Y-73587351D01*
X94841944Y-73729264D01*
X94841947Y-73729266D01*
X94996448Y-73841518D01*
X95170912Y-73919194D01*
X95357713Y-73958900D01*
X95548687Y-73958900D01*
X95735488Y-73919194D01*
X95909952Y-73841518D01*
X96064453Y-73729266D01*
X96069130Y-73724072D01*
X96192234Y-73587351D01*
X96192235Y-73587349D01*
X96192240Y-73587344D01*
X96287727Y-73421956D01*
X96346742Y-73240328D01*
X96366704Y-73050400D01*
X96346742Y-72860472D01*
X96287727Y-72678844D01*
X96192240Y-72513456D01*
X96192238Y-72513454D01*
X96192234Y-72513448D01*
X96064455Y-72371535D01*
X95909952Y-72259282D01*
X95735488Y-72181606D01*
X95548687Y-72141900D01*
X95357713Y-72141900D01*
X95170911Y-72181606D01*
X94996447Y-72259282D01*
X94841944Y-72371535D01*
X94714165Y-72513448D01*
X94714158Y-72513458D01*
X94618676Y-72678838D01*
X94618673Y-72678845D01*
X94559657Y-72860472D01*
X94539696Y-73050400D01*
X77189500Y-73050400D01*
X77189500Y-71577200D01*
X87529296Y-71577200D01*
X87549257Y-71767127D01*
X87559962Y-71800072D01*
X87608273Y-71948756D01*
X87608276Y-71948761D01*
X87703758Y-72114141D01*
X87703765Y-72114151D01*
X87831544Y-72256064D01*
X87850636Y-72269935D01*
X87986048Y-72368318D01*
X88160512Y-72445994D01*
X88347313Y-72485700D01*
X88538287Y-72485700D01*
X88725088Y-72445994D01*
X88899552Y-72368318D01*
X89054053Y-72256066D01*
X89138932Y-72161798D01*
X89181834Y-72114151D01*
X89181835Y-72114149D01*
X89181840Y-72114144D01*
X89277327Y-71948756D01*
X89336342Y-71767128D01*
X89356304Y-71577200D01*
X89336342Y-71387272D01*
X89277327Y-71205644D01*
X89181840Y-71040256D01*
X89181838Y-71040254D01*
X89181834Y-71040248D01*
X89054055Y-70898335D01*
X88899552Y-70786082D01*
X88725088Y-70708406D01*
X88538287Y-70668700D01*
X88347313Y-70668700D01*
X88160511Y-70708406D01*
X87986047Y-70786082D01*
X87831544Y-70898335D01*
X87703765Y-71040248D01*
X87703758Y-71040258D01*
X87608276Y-71205638D01*
X87608273Y-71205645D01*
X87549257Y-71387272D01*
X87529296Y-71577200D01*
X77189500Y-71577200D01*
X77189500Y-68681600D01*
X83770096Y-68681600D01*
X83790057Y-68871527D01*
X83820126Y-68964070D01*
X83849073Y-69053156D01*
X83849076Y-69053161D01*
X83944558Y-69218541D01*
X83944565Y-69218551D01*
X84072344Y-69360464D01*
X84072347Y-69360466D01*
X84226848Y-69472718D01*
X84401312Y-69550394D01*
X84588113Y-69590100D01*
X84779087Y-69590100D01*
X84965888Y-69550394D01*
X85140352Y-69472718D01*
X85250349Y-69392800D01*
X100483296Y-69392800D01*
X100503257Y-69582727D01*
X100509233Y-69601118D01*
X100562273Y-69764356D01*
X100562276Y-69764361D01*
X100657758Y-69929741D01*
X100657765Y-69929751D01*
X100785544Y-70071664D01*
X100785547Y-70071666D01*
X100940048Y-70183918D01*
X101114512Y-70261594D01*
X101301313Y-70301300D01*
X101492287Y-70301300D01*
X101679088Y-70261594D01*
X101853552Y-70183918D01*
X102008053Y-70071666D01*
X102038456Y-70037900D01*
X120523496Y-70037900D01*
X120543457Y-70227827D01*
X120554429Y-70261593D01*
X120602473Y-70409456D01*
X120602476Y-70409461D01*
X120697958Y-70574841D01*
X120697965Y-70574851D01*
X120825744Y-70716764D01*
X120825747Y-70716766D01*
X120980248Y-70829018D01*
X121123149Y-70892641D01*
X121177245Y-70938621D01*
X121197210Y-70994577D01*
X121207757Y-71094927D01*
X121216296Y-71121206D01*
X121266773Y-71276556D01*
X121266776Y-71276561D01*
X121362258Y-71441941D01*
X121362265Y-71441951D01*
X121490044Y-71583864D01*
X121490047Y-71583866D01*
X121644548Y-71696118D01*
X121819012Y-71773794D01*
X122005813Y-71813500D01*
X122196787Y-71813500D01*
X122383588Y-71773794D01*
X122558052Y-71696118D01*
X122712553Y-71583866D01*
X122840340Y-71441944D01*
X122935827Y-71276556D01*
X122994842Y-71094928D01*
X123014804Y-70905000D01*
X122994842Y-70715072D01*
X122935827Y-70533444D01*
X122840340Y-70368056D01*
X122840338Y-70368054D01*
X122840334Y-70368048D01*
X122712555Y-70226135D01*
X122558052Y-70113882D01*
X122415149Y-70050258D01*
X122361053Y-70004278D01*
X122341088Y-69948320D01*
X122339136Y-69929751D01*
X122330542Y-69847972D01*
X122271527Y-69666344D01*
X122176040Y-69500956D01*
X122176038Y-69500954D01*
X122176034Y-69500948D01*
X122048255Y-69359035D01*
X121893752Y-69246782D01*
X121719288Y-69169106D01*
X121532487Y-69129400D01*
X121341513Y-69129400D01*
X121154711Y-69169106D01*
X120980247Y-69246782D01*
X120825744Y-69359035D01*
X120697965Y-69500948D01*
X120697958Y-69500958D01*
X120602476Y-69666338D01*
X120602473Y-69666345D01*
X120543457Y-69847972D01*
X120523496Y-70037900D01*
X102038456Y-70037900D01*
X102135834Y-69929751D01*
X102135835Y-69929749D01*
X102135840Y-69929744D01*
X102231327Y-69764356D01*
X102290342Y-69582728D01*
X102310304Y-69392800D01*
X102290342Y-69202872D01*
X102231327Y-69021244D01*
X102135840Y-68855856D01*
X102135838Y-68855854D01*
X102135834Y-68855848D01*
X102094552Y-68810000D01*
X112836496Y-68810000D01*
X112856457Y-68999927D01*
X112886526Y-69092470D01*
X112915473Y-69181556D01*
X112915476Y-69181561D01*
X113010958Y-69346941D01*
X113010965Y-69346951D01*
X113138744Y-69488864D01*
X113138747Y-69488866D01*
X113293248Y-69601118D01*
X113467712Y-69678794D01*
X113654513Y-69718500D01*
X113845487Y-69718500D01*
X114032288Y-69678794D01*
X114206752Y-69601118D01*
X114361253Y-69488866D01*
X114476867Y-69360464D01*
X114489034Y-69346951D01*
X114489035Y-69346949D01*
X114489040Y-69346944D01*
X114584527Y-69181556D01*
X114643542Y-68999928D01*
X114663504Y-68810000D01*
X114643542Y-68620072D01*
X114584527Y-68438444D01*
X114489040Y-68273056D01*
X114489038Y-68273054D01*
X114489034Y-68273048D01*
X114361255Y-68131135D01*
X114206752Y-68018882D01*
X114032288Y-67941206D01*
X113845487Y-67901500D01*
X113654513Y-67901500D01*
X113467711Y-67941206D01*
X113293247Y-68018882D01*
X113138744Y-68131135D01*
X113010965Y-68273048D01*
X113010958Y-68273058D01*
X112915476Y-68438438D01*
X112915473Y-68438445D01*
X112856457Y-68620072D01*
X112836496Y-68810000D01*
X102094552Y-68810000D01*
X102008055Y-68713935D01*
X101853552Y-68601682D01*
X101679088Y-68524006D01*
X101492287Y-68484300D01*
X101301313Y-68484300D01*
X101114511Y-68524006D01*
X100940047Y-68601682D01*
X100785544Y-68713935D01*
X100657765Y-68855848D01*
X100657758Y-68855858D01*
X100562276Y-69021238D01*
X100562273Y-69021244D01*
X100547799Y-69065786D01*
X100503257Y-69202872D01*
X100483296Y-69392800D01*
X85250349Y-69392800D01*
X85294853Y-69360466D01*
X85294855Y-69360464D01*
X85422634Y-69218551D01*
X85422635Y-69218549D01*
X85422640Y-69218544D01*
X85518127Y-69053156D01*
X85577142Y-68871528D01*
X85597104Y-68681600D01*
X85577142Y-68491672D01*
X85518127Y-68310044D01*
X85422640Y-68144656D01*
X85422638Y-68144654D01*
X85422634Y-68144648D01*
X85294855Y-68002735D01*
X85140352Y-67890482D01*
X84965888Y-67812806D01*
X84779087Y-67773100D01*
X84588113Y-67773100D01*
X84401311Y-67812806D01*
X84226847Y-67890482D01*
X84072344Y-68002735D01*
X83944565Y-68144648D01*
X83944558Y-68144658D01*
X83849076Y-68310038D01*
X83849073Y-68310045D01*
X83790057Y-68491672D01*
X83770096Y-68681600D01*
X77189500Y-68681600D01*
X77189500Y-64820800D01*
X77623296Y-64820800D01*
X77643257Y-65010727D01*
X77671175Y-65096648D01*
X77702273Y-65192356D01*
X77702276Y-65192361D01*
X77797758Y-65357741D01*
X77797765Y-65357751D01*
X77925544Y-65499664D01*
X77925547Y-65499666D01*
X78080048Y-65611918D01*
X78254512Y-65689594D01*
X78441313Y-65729300D01*
X78632287Y-65729300D01*
X78819088Y-65689594D01*
X78993552Y-65611918D01*
X79148053Y-65499666D01*
X79196051Y-65446359D01*
X79275834Y-65357751D01*
X79275835Y-65357749D01*
X79275840Y-65357744D01*
X79371327Y-65192356D01*
X79430342Y-65010728D01*
X79450304Y-64820800D01*
X79430342Y-64630872D01*
X79423721Y-64610497D01*
X79421694Y-64539531D01*
X79458356Y-64478732D01*
X79522068Y-64447407D01*
X79592602Y-64455499D01*
X79594741Y-64456427D01*
X79626112Y-64470394D01*
X79665340Y-64478732D01*
X79668643Y-64479434D01*
X79731117Y-64513161D01*
X79765439Y-64575311D01*
X79767758Y-64615851D01*
X79756896Y-64719199D01*
X79776857Y-64909127D01*
X79804775Y-64995048D01*
X79835873Y-65090756D01*
X79835876Y-65090761D01*
X79931358Y-65256141D01*
X79931365Y-65256151D01*
X80059144Y-65398064D01*
X80059147Y-65398066D01*
X80213648Y-65510318D01*
X80388112Y-65587994D01*
X80574913Y-65627700D01*
X80765887Y-65627700D01*
X80952688Y-65587994D01*
X81127152Y-65510318D01*
X81138508Y-65502067D01*
X81205370Y-65478208D01*
X81274522Y-65494285D01*
X81324005Y-65545197D01*
X81337879Y-65590831D01*
X81351657Y-65721927D01*
X81363569Y-65758586D01*
X81410673Y-65903556D01*
X81410676Y-65903561D01*
X81506158Y-66068941D01*
X81506165Y-66068951D01*
X81633944Y-66210864D01*
X81633947Y-66210866D01*
X81788448Y-66323118D01*
X81930158Y-66386211D01*
X81984253Y-66432190D01*
X82004903Y-66500117D01*
X81988028Y-66564317D01*
X81918676Y-66684438D01*
X81918673Y-66684445D01*
X81859657Y-66866072D01*
X81839696Y-67056000D01*
X81859657Y-67245927D01*
X81889726Y-67338470D01*
X81918673Y-67427556D01*
X81918676Y-67427561D01*
X82014158Y-67592941D01*
X82014165Y-67592951D01*
X82141944Y-67734864D01*
X82141947Y-67734866D01*
X82296448Y-67847118D01*
X82470912Y-67924794D01*
X82657713Y-67964500D01*
X82848687Y-67964500D01*
X83035488Y-67924794D01*
X83209952Y-67847118D01*
X83364453Y-67734866D01*
X83492240Y-67592944D01*
X83528581Y-67530000D01*
X120915296Y-67530000D01*
X120935257Y-67719927D01*
X120965326Y-67812470D01*
X120994273Y-67901556D01*
X121017165Y-67941206D01*
X121089758Y-68066941D01*
X121089765Y-68066951D01*
X121217544Y-68208864D01*
X121217547Y-68208866D01*
X121372048Y-68321118D01*
X121546512Y-68398794D01*
X121733313Y-68438500D01*
X121924287Y-68438500D01*
X122111088Y-68398794D01*
X122285552Y-68321118D01*
X122440053Y-68208866D01*
X122567840Y-68066944D01*
X122663327Y-67901556D01*
X122709322Y-67760000D01*
X124736496Y-67760000D01*
X124756457Y-67949927D01*
X124773616Y-68002734D01*
X124815473Y-68131556D01*
X124843841Y-68180691D01*
X124910958Y-68296941D01*
X124910965Y-68296951D01*
X125038744Y-68438864D01*
X125038747Y-68438866D01*
X125193248Y-68551118D01*
X125367712Y-68628794D01*
X125554513Y-68668500D01*
X125745487Y-68668500D01*
X125932288Y-68628794D01*
X126106752Y-68551118D01*
X126261253Y-68438866D01*
X126261633Y-68438444D01*
X126389034Y-68296951D01*
X126389035Y-68296949D01*
X126389040Y-68296944D01*
X126484527Y-68131556D01*
X126543542Y-67949928D01*
X126563504Y-67760000D01*
X126543542Y-67570072D01*
X126484527Y-67388444D01*
X126389040Y-67223056D01*
X126389038Y-67223054D01*
X126389034Y-67223048D01*
X126261255Y-67081135D01*
X126106752Y-66968882D01*
X125932288Y-66891206D01*
X125745487Y-66851500D01*
X125554513Y-66851500D01*
X125367711Y-66891206D01*
X125193247Y-66968882D01*
X125038744Y-67081135D01*
X124910965Y-67223048D01*
X124910958Y-67223058D01*
X124815476Y-67388438D01*
X124815473Y-67388445D01*
X124756457Y-67570072D01*
X124736496Y-67760000D01*
X122709322Y-67760000D01*
X122722342Y-67719928D01*
X122742304Y-67530000D01*
X122722342Y-67340072D01*
X122663327Y-67158444D01*
X122567840Y-66993056D01*
X122567838Y-66993054D01*
X122567834Y-66993048D01*
X122440055Y-66851135D01*
X122285552Y-66738882D01*
X122111088Y-66661206D01*
X121924287Y-66621500D01*
X121733313Y-66621500D01*
X121546511Y-66661206D01*
X121372047Y-66738882D01*
X121217544Y-66851135D01*
X121089765Y-66993048D01*
X121089758Y-66993058D01*
X120994276Y-67158438D01*
X120994273Y-67158445D01*
X120935257Y-67340072D01*
X120915296Y-67530000D01*
X83528581Y-67530000D01*
X83587727Y-67427556D01*
X83646742Y-67245928D01*
X83666704Y-67056000D01*
X83646742Y-66866072D01*
X83587727Y-66684444D01*
X83492240Y-66519056D01*
X83492238Y-66519054D01*
X83492234Y-66519048D01*
X83364455Y-66377135D01*
X83250029Y-66294000D01*
X97130496Y-66294000D01*
X97150457Y-66483927D01*
X97169359Y-66542100D01*
X97209473Y-66665556D01*
X97209476Y-66665561D01*
X97304958Y-66830941D01*
X97304965Y-66830951D01*
X97432744Y-66972864D01*
X97432747Y-66972866D01*
X97587248Y-67085118D01*
X97761712Y-67162794D01*
X97948513Y-67202500D01*
X98139487Y-67202500D01*
X98326288Y-67162794D01*
X98500752Y-67085118D01*
X98655253Y-66972866D01*
X98751411Y-66866072D01*
X98783034Y-66830951D01*
X98783035Y-66830949D01*
X98783040Y-66830944D01*
X98878527Y-66665556D01*
X98937542Y-66483928D01*
X98957504Y-66294000D01*
X98937542Y-66104072D01*
X98878527Y-65922444D01*
X98842892Y-65860722D01*
X98826154Y-65791727D01*
X98849374Y-65724635D01*
X98900760Y-65682616D01*
X99059552Y-65611918D01*
X99214053Y-65499666D01*
X99262051Y-65446359D01*
X99341834Y-65357751D01*
X99341835Y-65357749D01*
X99341840Y-65357744D01*
X99345235Y-65351862D01*
X99396615Y-65302869D01*
X99466329Y-65289431D01*
X99532240Y-65315816D01*
X99573424Y-65373647D01*
X99574188Y-65375924D01*
X99597072Y-65446354D01*
X99597074Y-65446359D01*
X99599916Y-65451280D01*
X99616653Y-65520276D01*
X99593432Y-65587367D01*
X99570805Y-65610212D01*
X99571256Y-65610713D01*
X99566344Y-65615135D01*
X99438565Y-65757048D01*
X99438558Y-65757058D01*
X99343076Y-65922438D01*
X99343073Y-65922445D01*
X99284057Y-66104072D01*
X99264096Y-66294000D01*
X99284057Y-66483927D01*
X99302959Y-66542100D01*
X99343073Y-66665556D01*
X99343076Y-66665561D01*
X99438558Y-66830941D01*
X99438565Y-66830951D01*
X99566344Y-66972864D01*
X99566347Y-66972866D01*
X99720848Y-67085118D01*
X99895312Y-67162794D01*
X100082113Y-67202500D01*
X100273087Y-67202500D01*
X100459888Y-67162794D01*
X100634352Y-67085118D01*
X100788853Y-66972866D01*
X100885011Y-66866072D01*
X100916634Y-66830951D01*
X100916635Y-66830949D01*
X100916640Y-66830944D01*
X101012127Y-66665556D01*
X101071142Y-66483928D01*
X101091104Y-66294000D01*
X101071142Y-66104072D01*
X101012127Y-65922444D01*
X101009285Y-65917521D01*
X100992546Y-65848526D01*
X101015765Y-65781434D01*
X101038401Y-65758586D01*
X101037948Y-65758083D01*
X101042855Y-65753664D01*
X101150961Y-65633600D01*
X119736496Y-65633600D01*
X119756457Y-65823527D01*
X119786526Y-65916070D01*
X119815473Y-66005156D01*
X119843841Y-66054291D01*
X119910958Y-66170541D01*
X119910965Y-66170551D01*
X120038744Y-66312464D01*
X120038747Y-66312466D01*
X120193248Y-66424718D01*
X120367712Y-66502394D01*
X120554513Y-66542100D01*
X120745487Y-66542100D01*
X120932288Y-66502394D01*
X121106752Y-66424718D01*
X121261253Y-66312466D01*
X121360907Y-66201789D01*
X121389034Y-66170551D01*
X121389035Y-66170549D01*
X121389040Y-66170544D01*
X121484527Y-66005156D01*
X121543542Y-65823528D01*
X121563504Y-65633600D01*
X121543542Y-65443672D01*
X121484527Y-65262044D01*
X121389040Y-65096656D01*
X121389038Y-65096654D01*
X121389034Y-65096648D01*
X121261255Y-64954735D01*
X121106752Y-64842482D01*
X120932288Y-64764806D01*
X120745487Y-64725100D01*
X120554513Y-64725100D01*
X120367711Y-64764806D01*
X120193247Y-64842482D01*
X120038744Y-64954735D01*
X119910965Y-65096648D01*
X119910958Y-65096658D01*
X119820072Y-65254078D01*
X119815473Y-65262044D01*
X119814601Y-65264728D01*
X119756457Y-65443672D01*
X119736496Y-65633600D01*
X101150961Y-65633600D01*
X101170634Y-65611751D01*
X101170635Y-65611749D01*
X101170640Y-65611744D01*
X101266127Y-65446356D01*
X101325142Y-65264728D01*
X101345104Y-65074800D01*
X101325142Y-64884872D01*
X101266127Y-64703244D01*
X101170640Y-64537856D01*
X101170638Y-64537854D01*
X101170634Y-64537848D01*
X101042855Y-64395935D01*
X100951164Y-64329318D01*
X100888352Y-64283682D01*
X100878157Y-64279142D01*
X100869513Y-64275294D01*
X100815418Y-64229313D01*
X100794770Y-64161385D01*
X100814124Y-64093077D01*
X100846702Y-64058252D01*
X100890453Y-64026466D01*
X100907080Y-64008000D01*
X101018234Y-63884551D01*
X101018235Y-63884549D01*
X101018240Y-63884544D01*
X101113727Y-63719156D01*
X101172742Y-63537528D01*
X101192704Y-63347600D01*
X101172742Y-63157672D01*
X101113727Y-62976044D01*
X101018240Y-62810656D01*
X101018238Y-62810654D01*
X101018234Y-62810648D01*
X100890455Y-62668735D01*
X100762670Y-62575894D01*
X100719316Y-62519672D01*
X100713241Y-62448936D01*
X100743095Y-62389648D01*
X100815034Y-62309751D01*
X100815035Y-62309749D01*
X100815040Y-62309744D01*
X100910527Y-62144356D01*
X100969542Y-61962728D01*
X100989504Y-61772800D01*
X100969542Y-61582872D01*
X100910527Y-61401244D01*
X100815040Y-61235856D01*
X100815038Y-61235854D01*
X100815034Y-61235848D01*
X100687255Y-61093935D01*
X100532752Y-60981682D01*
X100358288Y-60904006D01*
X100171487Y-60864300D01*
X99980513Y-60864300D01*
X99793711Y-60904006D01*
X99619247Y-60981682D01*
X99464744Y-61093935D01*
X99336965Y-61235848D01*
X99336958Y-61235858D01*
X99270719Y-61350588D01*
X99219336Y-61399581D01*
X99149622Y-61413017D01*
X99083712Y-61386630D01*
X99052481Y-61350588D01*
X98986241Y-61235858D01*
X98986234Y-61235848D01*
X98858455Y-61093935D01*
X98703952Y-60981682D01*
X98529488Y-60904006D01*
X98342687Y-60864300D01*
X98151713Y-60864300D01*
X97964911Y-60904006D01*
X97790447Y-60981682D01*
X97635944Y-61093935D01*
X97508165Y-61235848D01*
X97508158Y-61235858D01*
X97412676Y-61401238D01*
X97412673Y-61401245D01*
X97353657Y-61582872D01*
X97333696Y-61772800D01*
X97353657Y-61962727D01*
X97383726Y-62055270D01*
X97412673Y-62144356D01*
X97412676Y-62144361D01*
X97508158Y-62309741D01*
X97508165Y-62309751D01*
X97635944Y-62451664D01*
X97635947Y-62451666D01*
X97788683Y-62562636D01*
X97832036Y-62618856D01*
X97838111Y-62689592D01*
X97823741Y-62727569D01*
X97768274Y-62823641D01*
X97768273Y-62823645D01*
X97709257Y-63005272D01*
X97689296Y-63195200D01*
X97709257Y-63385127D01*
X97734389Y-63462472D01*
X97768273Y-63566756D01*
X97768276Y-63566761D01*
X97863758Y-63732141D01*
X97863765Y-63732151D01*
X97991544Y-63874064D01*
X98035588Y-63906064D01*
X98078942Y-63962286D01*
X98085017Y-64033023D01*
X98051885Y-64095814D01*
X98035588Y-64109936D01*
X97991544Y-64141935D01*
X97863765Y-64283848D01*
X97863758Y-64283858D01*
X97768276Y-64449238D01*
X97768273Y-64449244D01*
X97761401Y-64470394D01*
X97709257Y-64630872D01*
X97689296Y-64820800D01*
X97709257Y-65010727D01*
X97737175Y-65096648D01*
X97768273Y-65192356D01*
X97768273Y-65192357D01*
X97768274Y-65192358D01*
X97803908Y-65254078D01*
X97820645Y-65323073D01*
X97797424Y-65390165D01*
X97746037Y-65432183D01*
X97587254Y-65502878D01*
X97587248Y-65502882D01*
X97432744Y-65615135D01*
X97304965Y-65757048D01*
X97304958Y-65757058D01*
X97209476Y-65922438D01*
X97209473Y-65922445D01*
X97150457Y-66104072D01*
X97130496Y-66294000D01*
X83250029Y-66294000D01*
X83209952Y-66264882D01*
X83088629Y-66210866D01*
X83068239Y-66201787D01*
X83014146Y-66155809D01*
X82993496Y-66087882D01*
X83010369Y-66023686D01*
X83079727Y-65903556D01*
X83138742Y-65721928D01*
X83158704Y-65532000D01*
X83138742Y-65342072D01*
X83079727Y-65160444D01*
X82984240Y-64995056D01*
X82984238Y-64995054D01*
X82984234Y-64995048D01*
X82856455Y-64853135D01*
X82701952Y-64740882D01*
X82527488Y-64663206D01*
X82340687Y-64623500D01*
X82149713Y-64623500D01*
X81962911Y-64663206D01*
X81788448Y-64740882D01*
X81777089Y-64749135D01*
X81710221Y-64772992D01*
X81641069Y-64756910D01*
X81591590Y-64705995D01*
X81577720Y-64660367D01*
X81573845Y-64623500D01*
X81569796Y-64584970D01*
X81582568Y-64515133D01*
X81631071Y-64463286D01*
X81643852Y-64456696D01*
X81787552Y-64392718D01*
X81942053Y-64280466D01*
X81983024Y-64234963D01*
X82069834Y-64138551D01*
X82069835Y-64138549D01*
X82069840Y-64138544D01*
X82165327Y-63973156D01*
X82224342Y-63791528D01*
X82244304Y-63601600D01*
X82224342Y-63411672D01*
X82165327Y-63230044D01*
X82069840Y-63064656D01*
X82069838Y-63064654D01*
X82069834Y-63064648D01*
X81942055Y-62922735D01*
X81787552Y-62810482D01*
X81613088Y-62732806D01*
X81426287Y-62693100D01*
X81235313Y-62693100D01*
X81048511Y-62732806D01*
X80874047Y-62810482D01*
X80719545Y-62922735D01*
X80713234Y-62929744D01*
X80652786Y-62966982D01*
X80581803Y-62965628D01*
X80525966Y-62929744D01*
X80519654Y-62922735D01*
X80519648Y-62922731D01*
X80365152Y-62810482D01*
X80190688Y-62732806D01*
X80003887Y-62693100D01*
X79812913Y-62693100D01*
X79626111Y-62732806D01*
X79451647Y-62810482D01*
X79297150Y-62922731D01*
X79286443Y-62934622D01*
X79225995Y-62971858D01*
X79155011Y-62970504D01*
X79118749Y-62952243D01*
X78993552Y-62861282D01*
X78819088Y-62783606D01*
X78632287Y-62743900D01*
X78441313Y-62743900D01*
X78254511Y-62783606D01*
X78080047Y-62861282D01*
X77925544Y-62973535D01*
X77797765Y-63115448D01*
X77797758Y-63115458D01*
X77702276Y-63280838D01*
X77702273Y-63280845D01*
X77643257Y-63462472D01*
X77623296Y-63652400D01*
X77643257Y-63842327D01*
X77653570Y-63874065D01*
X77702273Y-64023956D01*
X77703721Y-64026464D01*
X77788669Y-64173600D01*
X77805407Y-64242596D01*
X77788669Y-64299600D01*
X77702276Y-64449238D01*
X77702273Y-64449244D01*
X77695401Y-64470394D01*
X77643257Y-64630872D01*
X77623296Y-64820800D01*
X77189500Y-64820800D01*
X77189500Y-55372000D01*
X85641844Y-55372000D01*
X85650093Y-55471554D01*
X85660437Y-55596375D01*
X85715702Y-55814612D01*
X85715703Y-55814613D01*
X85715704Y-55814616D01*
X85800749Y-56008500D01*
X85806141Y-56020793D01*
X85929275Y-56209265D01*
X85929279Y-56209270D01*
X86081762Y-56374908D01*
X86112073Y-56398500D01*
X86259424Y-56513189D01*
X86457426Y-56620342D01*
X86457432Y-56620344D01*
X86511536Y-56638918D01*
X86569472Y-56679954D01*
X86596024Y-56745799D01*
X86582763Y-56815546D01*
X86548017Y-56857522D01*
X86481763Y-56909090D01*
X86329279Y-57074729D01*
X86329275Y-57074734D01*
X86206141Y-57263206D01*
X86115703Y-57469386D01*
X86115702Y-57469387D01*
X86060437Y-57687624D01*
X86060436Y-57687630D01*
X86060436Y-57687632D01*
X86041844Y-57912000D01*
X86055350Y-58074993D01*
X86060437Y-58136375D01*
X86115702Y-58354612D01*
X86115703Y-58354613D01*
X86115704Y-58354616D01*
X86162209Y-58460637D01*
X86206141Y-58560793D01*
X86329275Y-58749265D01*
X86329279Y-58749270D01*
X86481762Y-58914908D01*
X86536331Y-58957381D01*
X86659424Y-59053189D01*
X86857426Y-59160342D01*
X86857427Y-59160342D01*
X86857428Y-59160343D01*
X86956610Y-59194392D01*
X87070365Y-59233444D01*
X87292431Y-59270500D01*
X87292435Y-59270500D01*
X87517565Y-59270500D01*
X87517569Y-59270500D01*
X87739635Y-59233444D01*
X87952574Y-59160342D01*
X88150576Y-59053189D01*
X88328240Y-58914906D01*
X88480722Y-58749268D01*
X88603860Y-58560791D01*
X88694296Y-58354616D01*
X88749564Y-58136368D01*
X88768156Y-57912000D01*
X88763947Y-57861200D01*
X99623151Y-57861200D01*
X99642106Y-58065762D01*
X99698323Y-58263344D01*
X99698329Y-58263360D01*
X99789893Y-58447245D01*
X99789897Y-58447250D01*
X99913697Y-58611190D01*
X100065516Y-58749591D01*
X100065518Y-58749592D01*
X100240182Y-58857740D01*
X100431745Y-58931951D01*
X100633682Y-58969700D01*
X100633685Y-58969700D01*
X100839115Y-58969700D01*
X100839118Y-58969700D01*
X100967878Y-58945630D01*
X101038512Y-58952775D01*
X101094073Y-58996973D01*
X101116918Y-59064194D01*
X101100148Y-59132485D01*
X101080776Y-59166038D01*
X101080773Y-59166045D01*
X101021757Y-59347672D01*
X101001796Y-59537600D01*
X101021757Y-59727527D01*
X101041966Y-59789722D01*
X101080773Y-59909156D01*
X101080776Y-59909161D01*
X101176258Y-60074541D01*
X101176265Y-60074551D01*
X101304044Y-60216464D01*
X101365299Y-60260968D01*
X101458548Y-60328718D01*
X101633012Y-60406394D01*
X101819813Y-60446100D01*
X102010787Y-60446100D01*
X102197588Y-60406394D01*
X102372052Y-60328718D01*
X102526553Y-60216466D01*
X102538056Y-60203690D01*
X102598497Y-60166451D01*
X102669480Y-60167799D01*
X102728467Y-60207309D01*
X102756728Y-60272439D01*
X102757003Y-60274828D01*
X102776457Y-60459927D01*
X102796340Y-60521118D01*
X102835473Y-60641556D01*
X102835476Y-60641561D01*
X102930958Y-60806941D01*
X102930965Y-60806951D01*
X103058744Y-60948864D01*
X103058747Y-60948866D01*
X103213248Y-61061118D01*
X103387712Y-61138794D01*
X103574513Y-61178500D01*
X103765487Y-61178500D01*
X103952288Y-61138794D01*
X104126752Y-61061118D01*
X104281253Y-60948866D01*
X104323237Y-60902238D01*
X104409034Y-60806951D01*
X104409035Y-60806949D01*
X104409040Y-60806944D01*
X104504527Y-60641556D01*
X104563542Y-60459928D01*
X104583504Y-60270000D01*
X104563542Y-60080072D01*
X104504527Y-59898444D01*
X104441756Y-59789722D01*
X105603070Y-59789722D01*
X105623031Y-59979649D01*
X105640511Y-60033445D01*
X105682047Y-60161278D01*
X105682050Y-60161283D01*
X105777532Y-60326663D01*
X105777539Y-60326673D01*
X105905318Y-60468586D01*
X105905321Y-60468588D01*
X106059822Y-60580840D01*
X106234286Y-60658516D01*
X106421087Y-60698222D01*
X106612061Y-60698222D01*
X106798862Y-60658516D01*
X106973326Y-60580840D01*
X107127827Y-60468588D01*
X107127829Y-60468586D01*
X107255608Y-60326673D01*
X107255609Y-60326671D01*
X107255614Y-60326666D01*
X107351101Y-60161278D01*
X107410116Y-59979650D01*
X107430078Y-59789722D01*
X107423801Y-59730000D01*
X122126496Y-59730000D01*
X122146457Y-59919927D01*
X122165863Y-59979650D01*
X122205473Y-60101556D01*
X122205476Y-60101561D01*
X122300958Y-60266941D01*
X122300965Y-60266951D01*
X122428744Y-60408864D01*
X122428747Y-60408866D01*
X122583248Y-60521118D01*
X122757712Y-60598794D01*
X122944513Y-60638500D01*
X123135487Y-60638500D01*
X123322288Y-60598794D01*
X123496752Y-60521118D01*
X123651253Y-60408866D01*
X123723419Y-60328718D01*
X123779034Y-60266951D01*
X123779035Y-60266949D01*
X123779040Y-60266944D01*
X123874527Y-60101556D01*
X123896658Y-60033445D01*
X124553051Y-60033445D01*
X124573012Y-60223372D01*
X124589732Y-60274828D01*
X124632028Y-60405001D01*
X124655757Y-60446100D01*
X124727513Y-60570386D01*
X124727520Y-60570396D01*
X124855299Y-60712309D01*
X124855302Y-60712311D01*
X125009803Y-60824563D01*
X125184267Y-60902239D01*
X125371068Y-60941945D01*
X125562042Y-60941945D01*
X125748843Y-60902239D01*
X125923307Y-60824563D01*
X126077808Y-60712311D01*
X126205595Y-60570389D01*
X126301082Y-60405001D01*
X126360097Y-60223373D01*
X126380059Y-60033445D01*
X126360097Y-59843517D01*
X126301082Y-59661889D01*
X126205595Y-59496501D01*
X126137623Y-59421010D01*
X126106907Y-59357004D01*
X126115671Y-59286550D01*
X126139609Y-59250237D01*
X126192296Y-59194393D01*
X126279467Y-59043407D01*
X126329469Y-58876388D01*
X126339607Y-58702340D01*
X126309332Y-58530646D01*
X126240279Y-58370562D01*
X126230442Y-58357349D01*
X126136168Y-58230717D01*
X126002615Y-58118651D01*
X125924370Y-58079355D01*
X125846815Y-58040406D01*
X125677171Y-58000200D01*
X125546564Y-58000200D01*
X125546561Y-58000200D01*
X125416835Y-58015363D01*
X125253006Y-58074992D01*
X125253003Y-58074993D01*
X125107346Y-58170794D01*
X124987703Y-58297607D01*
X124900535Y-58448587D01*
X124900533Y-58448593D01*
X124850531Y-58615612D01*
X124849791Y-58628311D01*
X124842746Y-58749270D01*
X124840393Y-58789660D01*
X124870668Y-58961354D01*
X124870669Y-58961356D01*
X124915028Y-59064194D01*
X124939721Y-59121438D01*
X124946605Y-59130685D01*
X124971240Y-59197270D01*
X124955966Y-59266604D01*
X124919600Y-59307862D01*
X124855300Y-59354579D01*
X124855299Y-59354580D01*
X124727520Y-59496493D01*
X124727513Y-59496503D01*
X124632031Y-59661883D01*
X124632028Y-59661890D01*
X124573012Y-59843517D01*
X124553051Y-60033445D01*
X123896658Y-60033445D01*
X123933542Y-59919928D01*
X123953504Y-59730000D01*
X123933542Y-59540072D01*
X123874527Y-59358444D01*
X123779040Y-59193056D01*
X123779038Y-59193054D01*
X123779034Y-59193048D01*
X123651255Y-59051135D01*
X123496752Y-58938882D01*
X123322288Y-58861206D01*
X123135487Y-58821500D01*
X122944513Y-58821500D01*
X122757711Y-58861206D01*
X122583247Y-58938882D01*
X122428744Y-59051135D01*
X122300965Y-59193048D01*
X122300958Y-59193058D01*
X122205476Y-59358438D01*
X122205473Y-59358445D01*
X122146457Y-59540072D01*
X122126496Y-59730000D01*
X107423801Y-59730000D01*
X107410116Y-59599794D01*
X107351101Y-59418166D01*
X107255614Y-59252778D01*
X107255612Y-59252776D01*
X107255608Y-59252770D01*
X107127829Y-59110857D01*
X106973326Y-58998604D01*
X106798862Y-58920928D01*
X106612061Y-58881222D01*
X106421087Y-58881222D01*
X106234285Y-58920928D01*
X106059821Y-58998604D01*
X105905318Y-59110857D01*
X105777539Y-59252770D01*
X105777532Y-59252780D01*
X105682050Y-59418160D01*
X105682047Y-59418166D01*
X105667573Y-59462708D01*
X105623031Y-59599794D01*
X105603070Y-59789722D01*
X104441756Y-59789722D01*
X104409040Y-59733056D01*
X104409038Y-59733054D01*
X104409034Y-59733048D01*
X104281255Y-59591135D01*
X104126752Y-59478882D01*
X103952288Y-59401206D01*
X103765487Y-59361500D01*
X103574513Y-59361500D01*
X103387711Y-59401206D01*
X103213247Y-59478882D01*
X103058746Y-59591134D01*
X103047242Y-59603911D01*
X102986795Y-59641150D01*
X102915811Y-59639798D01*
X102856827Y-59600284D01*
X102828570Y-59535153D01*
X102828296Y-59532770D01*
X102824484Y-59496503D01*
X102808842Y-59347672D01*
X102749827Y-59166044D01*
X102654340Y-59000656D01*
X102654338Y-59000654D01*
X102654334Y-59000648D01*
X102526555Y-58858735D01*
X102372052Y-58746482D01*
X102197588Y-58668806D01*
X102010787Y-58629100D01*
X101819813Y-58629100D01*
X101819808Y-58629100D01*
X101813240Y-58629790D01*
X101813084Y-58628311D01*
X101749966Y-58623484D01*
X101693340Y-58580657D01*
X101668858Y-58514016D01*
X101681790Y-58449483D01*
X101682899Y-58447254D01*
X101682903Y-58447250D01*
X101774474Y-58263352D01*
X101830694Y-58065759D01*
X101849649Y-57861200D01*
X101841537Y-57773660D01*
X129920393Y-57773660D01*
X129950668Y-57945354D01*
X129950669Y-57945356D01*
X130019719Y-58105435D01*
X130019721Y-58105439D01*
X130123831Y-58245282D01*
X130257384Y-58357348D01*
X130257386Y-58357349D01*
X130413185Y-58435594D01*
X130582829Y-58475800D01*
X130582831Y-58475800D01*
X130713439Y-58475800D01*
X130747117Y-58471863D01*
X130843164Y-58460637D01*
X131006993Y-58401008D01*
X131152654Y-58305205D01*
X131272296Y-58178393D01*
X131359467Y-58027407D01*
X131409469Y-57860388D01*
X131419607Y-57686340D01*
X131389332Y-57514646D01*
X131320279Y-57354562D01*
X131310442Y-57341349D01*
X131216168Y-57214717D01*
X131082615Y-57102651D01*
X131004370Y-57063355D01*
X130926815Y-57024406D01*
X130757171Y-56984200D01*
X130626564Y-56984200D01*
X130626561Y-56984200D01*
X130496835Y-56999363D01*
X130333006Y-57058992D01*
X130333003Y-57058993D01*
X130187346Y-57154794D01*
X130067703Y-57281607D01*
X129980535Y-57432587D01*
X129980533Y-57432593D01*
X129930531Y-57599612D01*
X129920393Y-57773660D01*
X101841537Y-57773660D01*
X101830694Y-57656641D01*
X101774474Y-57459048D01*
X101774470Y-57459039D01*
X101682906Y-57275154D01*
X101682902Y-57275149D01*
X101673885Y-57263209D01*
X101648265Y-57229282D01*
X101559102Y-57111209D01*
X101407283Y-56972808D01*
X101232623Y-56864663D01*
X101232622Y-56864662D01*
X101232618Y-56864660D01*
X101105839Y-56815546D01*
X101041056Y-56790449D01*
X100990570Y-56781011D01*
X100839118Y-56752700D01*
X100633682Y-56752700D01*
X100536798Y-56770811D01*
X100431743Y-56790449D01*
X100292516Y-56844386D01*
X100240182Y-56864660D01*
X100240181Y-56864660D01*
X100240180Y-56864661D01*
X100240176Y-56864663D01*
X100065516Y-56972808D01*
X99913697Y-57111209D01*
X99789897Y-57275149D01*
X99789893Y-57275154D01*
X99698329Y-57459039D01*
X99698323Y-57459055D01*
X99642106Y-57656637D01*
X99623151Y-57861200D01*
X88763947Y-57861200D01*
X88749564Y-57687632D01*
X88694296Y-57469384D01*
X88603860Y-57263209D01*
X88581695Y-57229283D01*
X88480724Y-57074734D01*
X88480720Y-57074729D01*
X88328237Y-56909091D01*
X88245104Y-56844386D01*
X88150576Y-56770811D01*
X87952574Y-56663658D01*
X87952571Y-56663657D01*
X87952570Y-56663656D01*
X87898462Y-56645081D01*
X87840527Y-56604044D01*
X87813975Y-56538199D01*
X87827237Y-56468452D01*
X87861981Y-56426477D01*
X87928240Y-56374906D01*
X88080722Y-56209268D01*
X88203860Y-56020791D01*
X88294296Y-55814616D01*
X88349564Y-55596368D01*
X88359737Y-55473600D01*
X110643296Y-55473600D01*
X110663257Y-55663527D01*
X110693326Y-55756070D01*
X110722273Y-55845156D01*
X110748809Y-55891117D01*
X110817758Y-56010541D01*
X110817765Y-56010551D01*
X110945544Y-56152464D01*
X111006799Y-56196968D01*
X111100048Y-56264718D01*
X111274512Y-56342394D01*
X111461313Y-56382100D01*
X111652287Y-56382100D01*
X111839088Y-56342394D01*
X112013552Y-56264718D01*
X112168053Y-56152466D01*
X112168055Y-56152464D01*
X112295834Y-56010551D01*
X112295835Y-56010549D01*
X112295840Y-56010544D01*
X112391327Y-55845156D01*
X112450342Y-55663528D01*
X112470304Y-55473600D01*
X112450342Y-55283672D01*
X112391327Y-55102044D01*
X112390147Y-55100000D01*
X123916496Y-55100000D01*
X123936457Y-55289927D01*
X123963125Y-55372000D01*
X123995473Y-55471556D01*
X123995476Y-55471561D01*
X124090958Y-55636941D01*
X124090965Y-55636951D01*
X124218744Y-55778864D01*
X124218747Y-55778866D01*
X124373248Y-55891118D01*
X124547712Y-55968794D01*
X124734513Y-56008500D01*
X124925478Y-56008500D01*
X124925487Y-56008500D01*
X124925495Y-56008498D01*
X124925659Y-56008481D01*
X124925763Y-56008500D01*
X124932090Y-56008500D01*
X124932090Y-56009656D01*
X124995499Y-56021248D01*
X125047349Y-56069745D01*
X125064749Y-56138577D01*
X125042173Y-56205889D01*
X125030490Y-56220256D01*
X124987703Y-56265607D01*
X124900535Y-56416587D01*
X124900533Y-56416593D01*
X124853494Y-56573717D01*
X124850531Y-56583613D01*
X124845869Y-56663656D01*
X124840393Y-56757660D01*
X124870668Y-56929354D01*
X124870669Y-56929356D01*
X124939719Y-57089435D01*
X124939721Y-57089439D01*
X125043831Y-57229282D01*
X125177384Y-57341348D01*
X125177386Y-57341349D01*
X125333185Y-57419594D01*
X125502829Y-57459800D01*
X125502831Y-57459800D01*
X125633439Y-57459800D01*
X125667117Y-57455863D01*
X125763164Y-57444637D01*
X125926993Y-57385008D01*
X126072654Y-57289205D01*
X126192296Y-57162393D01*
X126279467Y-57011407D01*
X126329469Y-56844388D01*
X126339607Y-56670340D01*
X126309332Y-56498646D01*
X126240279Y-56338562D01*
X126197513Y-56281118D01*
X126136168Y-56198717D01*
X126002615Y-56086651D01*
X125924370Y-56047355D01*
X125846815Y-56008406D01*
X125677171Y-55968200D01*
X125553777Y-55968200D01*
X125485656Y-55948198D01*
X125439163Y-55894542D01*
X125429059Y-55824268D01*
X125458553Y-55759688D01*
X125460141Y-55757890D01*
X125569034Y-55636951D01*
X125569035Y-55636949D01*
X125569040Y-55636944D01*
X125664527Y-55471556D01*
X125723542Y-55289928D01*
X125743504Y-55100000D01*
X125723542Y-54910072D01*
X125664527Y-54728444D01*
X125569040Y-54563056D01*
X125569038Y-54563054D01*
X125569034Y-54563048D01*
X125441255Y-54421135D01*
X125286752Y-54308882D01*
X125112288Y-54231206D01*
X124925487Y-54191500D01*
X124734513Y-54191500D01*
X124547711Y-54231206D01*
X124373247Y-54308882D01*
X124218744Y-54421135D01*
X124090965Y-54563048D01*
X124090958Y-54563058D01*
X123995476Y-54728438D01*
X123995473Y-54728445D01*
X123936457Y-54910072D01*
X123916496Y-55100000D01*
X112390147Y-55100000D01*
X112295840Y-54936656D01*
X112295838Y-54936654D01*
X112295834Y-54936648D01*
X112168055Y-54794735D01*
X112013552Y-54682482D01*
X111839088Y-54604806D01*
X111652287Y-54565100D01*
X111461313Y-54565100D01*
X111274511Y-54604806D01*
X111100047Y-54682482D01*
X110945544Y-54794735D01*
X110817765Y-54936648D01*
X110817758Y-54936658D01*
X110722276Y-55102038D01*
X110722273Y-55102045D01*
X110663257Y-55283672D01*
X110643296Y-55473600D01*
X88359737Y-55473600D01*
X88368156Y-55372000D01*
X88349564Y-55147632D01*
X88296138Y-54936656D01*
X88294297Y-54929387D01*
X88294296Y-54929386D01*
X88294296Y-54929384D01*
X88203860Y-54723209D01*
X88187964Y-54698878D01*
X88080724Y-54534734D01*
X88080720Y-54534729D01*
X87928236Y-54369090D01*
X87861982Y-54317522D01*
X87820512Y-54259897D01*
X87816779Y-54188998D01*
X87851969Y-54127337D01*
X87898461Y-54098918D01*
X87952574Y-54080342D01*
X88150576Y-53973189D01*
X88328240Y-53834906D01*
X88480722Y-53669268D01*
X88603860Y-53480791D01*
X88694296Y-53274616D01*
X88749564Y-53056368D01*
X88768156Y-52832000D01*
X88749564Y-52607632D01*
X88706056Y-52435824D01*
X88694297Y-52389387D01*
X88694296Y-52389386D01*
X88694296Y-52389384D01*
X88603860Y-52183209D01*
X88582297Y-52150204D01*
X88480724Y-51994734D01*
X88480720Y-51994729D01*
X88441982Y-51952649D01*
X97813005Y-51952649D01*
X97819514Y-52013196D01*
X97819516Y-52013204D01*
X97870615Y-52150202D01*
X97870617Y-52150207D01*
X97958243Y-52267261D01*
X98075297Y-52354887D01*
X98075299Y-52354888D01*
X98075301Y-52354889D01*
X98129105Y-52374957D01*
X98212300Y-52405988D01*
X98212308Y-52405990D01*
X98272855Y-52412499D01*
X98272860Y-52412499D01*
X98272867Y-52412500D01*
X98272873Y-52412500D01*
X100070137Y-52412500D01*
X100070143Y-52412500D01*
X100070150Y-52412499D01*
X100070154Y-52412499D01*
X100130701Y-52405990D01*
X100130704Y-52405989D01*
X100130706Y-52405989D01*
X100267709Y-52354889D01*
X100337904Y-52302342D01*
X100384766Y-52267261D01*
X100403850Y-52241768D01*
X100472394Y-52150204D01*
X100516701Y-52031413D01*
X100559246Y-51974581D01*
X100625767Y-51949770D01*
X100695141Y-51964862D01*
X100727457Y-51990112D01*
X100788602Y-52056534D01*
X100966203Y-52194767D01*
X100966204Y-52194768D01*
X101164133Y-52301882D01*
X101164135Y-52301883D01*
X101376988Y-52374955D01*
X101376997Y-52374957D01*
X101457505Y-52388391D01*
X101457505Y-51487674D01*
X101569190Y-51538680D01*
X101675742Y-51554000D01*
X101747268Y-51554000D01*
X101853820Y-51538680D01*
X101965505Y-51487674D01*
X101965505Y-52388390D01*
X102046012Y-52374957D01*
X102046021Y-52374955D01*
X102258874Y-52301883D01*
X102258876Y-52301882D01*
X102456805Y-52194768D01*
X102456806Y-52194767D01*
X102634407Y-52056534D01*
X102786832Y-51890955D01*
X102875722Y-51754899D01*
X102929725Y-51708810D01*
X103000073Y-51699235D01*
X103064430Y-51729212D01*
X103086688Y-51754898D01*
X103175784Y-51891270D01*
X103328267Y-52056908D01*
X103349461Y-52073404D01*
X103505929Y-52195189D01*
X103703931Y-52302342D01*
X103703932Y-52302342D01*
X103703933Y-52302343D01*
X103815732Y-52340723D01*
X103916870Y-52375444D01*
X104138936Y-52412500D01*
X104138940Y-52412500D01*
X104364070Y-52412500D01*
X104364074Y-52412500D01*
X104586140Y-52375444D01*
X104799079Y-52302342D01*
X104997081Y-52195189D01*
X105174745Y-52056906D01*
X105327227Y-51891268D01*
X105327432Y-51890955D01*
X105367850Y-51829090D01*
X105416023Y-51755354D01*
X105470025Y-51709268D01*
X105540373Y-51699692D01*
X105604730Y-51729669D01*
X105626985Y-51755353D01*
X105645932Y-51784353D01*
X105715780Y-51891265D01*
X105715784Y-51891270D01*
X105868267Y-52056908D01*
X105889461Y-52073404D01*
X106045929Y-52195189D01*
X106243931Y-52302342D01*
X106243932Y-52302342D01*
X106243933Y-52302343D01*
X106355732Y-52340723D01*
X106456870Y-52375444D01*
X106678936Y-52412500D01*
X106678940Y-52412500D01*
X106904070Y-52412500D01*
X106904074Y-52412500D01*
X107126140Y-52375444D01*
X107339079Y-52302342D01*
X107537081Y-52195189D01*
X107714745Y-52056906D01*
X107867227Y-51891268D01*
X107867432Y-51890955D01*
X107907850Y-51829090D01*
X107956023Y-51755354D01*
X108010025Y-51709268D01*
X108080373Y-51699692D01*
X108144730Y-51729669D01*
X108166985Y-51755353D01*
X108185932Y-51784353D01*
X108255780Y-51891265D01*
X108255784Y-51891270D01*
X108408267Y-52056908D01*
X108429461Y-52073404D01*
X108585929Y-52195189D01*
X108783931Y-52302342D01*
X108783932Y-52302342D01*
X108783933Y-52302343D01*
X108895732Y-52340723D01*
X108996870Y-52375444D01*
X109218936Y-52412500D01*
X109218940Y-52412500D01*
X109444070Y-52412500D01*
X109444074Y-52412500D01*
X109666140Y-52375444D01*
X109879079Y-52302342D01*
X110077081Y-52195189D01*
X110254745Y-52056906D01*
X110407227Y-51891268D01*
X110407432Y-51890955D01*
X110447850Y-51829090D01*
X110496023Y-51755354D01*
X110550025Y-51709268D01*
X110620373Y-51699692D01*
X110684730Y-51729669D01*
X110706985Y-51755353D01*
X110725932Y-51784353D01*
X110795780Y-51891265D01*
X110795784Y-51891270D01*
X110948267Y-52056908D01*
X110969461Y-52073404D01*
X111125929Y-52195189D01*
X111323931Y-52302342D01*
X111323932Y-52302342D01*
X111323933Y-52302343D01*
X111435732Y-52340723D01*
X111536870Y-52375444D01*
X111758936Y-52412500D01*
X111758940Y-52412500D01*
X111984070Y-52412500D01*
X111984074Y-52412500D01*
X112206140Y-52375444D01*
X112419079Y-52302342D01*
X112617081Y-52195189D01*
X112794745Y-52056906D01*
X112947227Y-51891268D01*
X112947432Y-51890955D01*
X113017078Y-51784353D01*
X113070365Y-51702791D01*
X113160801Y-51496616D01*
X113216069Y-51278368D01*
X113234661Y-51054000D01*
X113216069Y-50829632D01*
X113198887Y-50761780D01*
X113160802Y-50611387D01*
X113160801Y-50611386D01*
X113160801Y-50611384D01*
X113070365Y-50405209D01*
X113053102Y-50378786D01*
X112947229Y-50216734D01*
X112947225Y-50216729D01*
X112823340Y-50082156D01*
X112794745Y-50051094D01*
X112794744Y-50051093D01*
X112794742Y-50051091D01*
X112688615Y-49968489D01*
X112617081Y-49912811D01*
X112419079Y-49805658D01*
X112419077Y-49805657D01*
X112419076Y-49805656D01*
X112206144Y-49732557D01*
X112206135Y-49732555D01*
X112128534Y-49719606D01*
X111984074Y-49695500D01*
X111758936Y-49695500D01*
X111614476Y-49719606D01*
X111536874Y-49732555D01*
X111536865Y-49732557D01*
X111323933Y-49805656D01*
X111323931Y-49805658D01*
X111242826Y-49849550D01*
X111125931Y-49912810D01*
X111125929Y-49912811D01*
X110948267Y-50051091D01*
X110795784Y-50216729D01*
X110706988Y-50352643D01*
X110652984Y-50398731D01*
X110582636Y-50408306D01*
X110518279Y-50378329D01*
X110496022Y-50352643D01*
X110407225Y-50216729D01*
X110283340Y-50082156D01*
X110254745Y-50051094D01*
X110254744Y-50051093D01*
X110254742Y-50051091D01*
X110148615Y-49968489D01*
X110077081Y-49912811D01*
X109879079Y-49805658D01*
X109879077Y-49805657D01*
X109879076Y-49805656D01*
X109666144Y-49732557D01*
X109666135Y-49732555D01*
X109588534Y-49719606D01*
X109444074Y-49695500D01*
X109218936Y-49695500D01*
X109074476Y-49719606D01*
X108996874Y-49732555D01*
X108996865Y-49732557D01*
X108783933Y-49805656D01*
X108783931Y-49805658D01*
X108702826Y-49849550D01*
X108585931Y-49912810D01*
X108585929Y-49912811D01*
X108408267Y-50051091D01*
X108255784Y-50216729D01*
X108166988Y-50352643D01*
X108112984Y-50398731D01*
X108042636Y-50408306D01*
X107978279Y-50378329D01*
X107956022Y-50352643D01*
X107867225Y-50216729D01*
X107743340Y-50082156D01*
X107714745Y-50051094D01*
X107714744Y-50051093D01*
X107714742Y-50051091D01*
X107608615Y-49968489D01*
X107537081Y-49912811D01*
X107339079Y-49805658D01*
X107339077Y-49805657D01*
X107339076Y-49805656D01*
X107126144Y-49732557D01*
X107126135Y-49732555D01*
X107048534Y-49719606D01*
X106904074Y-49695500D01*
X106678936Y-49695500D01*
X106534476Y-49719606D01*
X106456874Y-49732555D01*
X106456865Y-49732557D01*
X106243933Y-49805656D01*
X106243931Y-49805658D01*
X106162826Y-49849550D01*
X106045931Y-49912810D01*
X106045929Y-49912811D01*
X105868267Y-50051091D01*
X105715784Y-50216729D01*
X105626988Y-50352643D01*
X105572984Y-50398731D01*
X105502636Y-50408306D01*
X105438279Y-50378329D01*
X105416022Y-50352643D01*
X105327225Y-50216729D01*
X105203340Y-50082156D01*
X105174745Y-50051094D01*
X105174744Y-50051093D01*
X105174742Y-50051091D01*
X105068615Y-49968489D01*
X104997081Y-49912811D01*
X104799079Y-49805658D01*
X104799077Y-49805657D01*
X104799076Y-49805656D01*
X104586144Y-49732557D01*
X104586135Y-49732555D01*
X104508534Y-49719606D01*
X104364074Y-49695500D01*
X104138936Y-49695500D01*
X103994476Y-49719606D01*
X103916874Y-49732555D01*
X103916865Y-49732557D01*
X103703933Y-49805656D01*
X103703931Y-49805658D01*
X103622826Y-49849550D01*
X103505931Y-49912810D01*
X103505929Y-49912811D01*
X103328267Y-50051091D01*
X103175784Y-50216729D01*
X103086688Y-50353101D01*
X103032684Y-50399189D01*
X102962336Y-50408764D01*
X102897979Y-50378786D01*
X102875722Y-50353100D01*
X102786832Y-50217044D01*
X102634407Y-50051465D01*
X102456806Y-49913232D01*
X102456805Y-49913231D01*
X102258876Y-49806117D01*
X102258874Y-49806116D01*
X102046017Y-49733043D01*
X102046006Y-49733040D01*
X101965505Y-49719606D01*
X101965505Y-50620325D01*
X101853820Y-50569320D01*
X101747268Y-50554000D01*
X101675742Y-50554000D01*
X101569190Y-50569320D01*
X101457505Y-50620325D01*
X101457505Y-49719607D01*
X101457504Y-49719606D01*
X101377003Y-49733040D01*
X101376992Y-49733043D01*
X101164135Y-49806116D01*
X101164133Y-49806117D01*
X100966204Y-49913231D01*
X100966203Y-49913232D01*
X100788601Y-50051465D01*
X100727456Y-50117888D01*
X100666603Y-50154459D01*
X100595639Y-50152324D01*
X100537093Y-50112163D01*
X100516700Y-50076583D01*
X100472394Y-49957796D01*
X100472392Y-49957792D01*
X100384766Y-49840738D01*
X100267712Y-49753112D01*
X100267707Y-49753110D01*
X100130709Y-49702011D01*
X100130701Y-49702009D01*
X100070154Y-49695500D01*
X100070143Y-49695500D01*
X98272867Y-49695500D01*
X98272855Y-49695500D01*
X98212308Y-49702009D01*
X98212300Y-49702011D01*
X98075302Y-49753110D01*
X98075297Y-49753112D01*
X97958243Y-49840738D01*
X97870617Y-49957792D01*
X97870615Y-49957797D01*
X97819516Y-50094795D01*
X97819514Y-50094803D01*
X97813005Y-50155350D01*
X97813005Y-51952649D01*
X88441982Y-51952649D01*
X88328237Y-51829091D01*
X88232914Y-51754898D01*
X88150576Y-51690811D01*
X87952574Y-51583658D01*
X87952571Y-51583657D01*
X87952570Y-51583656D01*
X87855141Y-51550209D01*
X87797206Y-51509172D01*
X87770654Y-51443327D01*
X87770295Y-51423231D01*
X87770687Y-51416898D01*
X87132587Y-50778797D01*
X87147315Y-50776680D01*
X87278100Y-50716952D01*
X87386761Y-50622798D01*
X87464493Y-50501844D01*
X87489361Y-50417150D01*
X88128077Y-51055866D01*
X88203419Y-50940548D01*
X88293820Y-50734456D01*
X88293823Y-50734449D01*
X88349067Y-50516292D01*
X88367653Y-50292000D01*
X88349067Y-50067707D01*
X88293823Y-49849550D01*
X88293820Y-49849543D01*
X88203419Y-49643451D01*
X88128077Y-49528132D01*
X87489360Y-50166848D01*
X87464493Y-50082156D01*
X87386761Y-49961202D01*
X87278100Y-49867048D01*
X87147315Y-49807320D01*
X87132586Y-49805202D01*
X87770688Y-49167100D01*
X87770687Y-49167099D01*
X87750308Y-49151237D01*
X87750298Y-49151231D01*
X87552371Y-49044117D01*
X87552369Y-49044116D01*
X87339516Y-48971044D01*
X87339509Y-48971042D01*
X87117523Y-48934000D01*
X86892477Y-48934000D01*
X86670490Y-48971042D01*
X86670483Y-48971044D01*
X86457630Y-49044116D01*
X86457628Y-49044118D01*
X86259700Y-49151230D01*
X86259693Y-49151235D01*
X86239311Y-49167099D01*
X86239310Y-49167100D01*
X86877412Y-49805202D01*
X86862685Y-49807320D01*
X86731900Y-49867048D01*
X86623239Y-49961202D01*
X86545507Y-50082156D01*
X86520639Y-50166849D01*
X85881921Y-49528131D01*
X85881920Y-49528132D01*
X85806586Y-49643439D01*
X85806579Y-49643453D01*
X85716179Y-49849543D01*
X85716176Y-49849550D01*
X85660932Y-50067707D01*
X85642346Y-50292000D01*
X85660932Y-50516292D01*
X85716176Y-50734449D01*
X85716179Y-50734456D01*
X85806580Y-50940548D01*
X85881921Y-51055866D01*
X86520638Y-50417149D01*
X86545507Y-50501844D01*
X86623239Y-50622798D01*
X86731900Y-50716952D01*
X86862685Y-50776680D01*
X86877411Y-50778797D01*
X86239310Y-51416898D01*
X86259697Y-51432766D01*
X86259701Y-51432768D01*
X86457628Y-51539882D01*
X86457630Y-51539883D01*
X86512009Y-51558551D01*
X86569944Y-51599588D01*
X86596496Y-51665432D01*
X86583235Y-51735180D01*
X86548489Y-51777155D01*
X86481763Y-51829090D01*
X86329279Y-51994729D01*
X86329275Y-51994734D01*
X86206141Y-52183206D01*
X86115703Y-52389386D01*
X86115702Y-52389387D01*
X86060437Y-52607624D01*
X86060436Y-52607630D01*
X86060436Y-52607632D01*
X86041844Y-52832000D01*
X86045605Y-52877393D01*
X86060437Y-53056375D01*
X86115702Y-53274612D01*
X86115703Y-53274613D01*
X86115704Y-53274616D01*
X86157977Y-53370990D01*
X86206141Y-53480793D01*
X86329275Y-53669265D01*
X86329279Y-53669270D01*
X86386583Y-53731518D01*
X86481760Y-53834906D01*
X86481763Y-53834908D01*
X86481766Y-53834911D01*
X86548016Y-53886477D01*
X86589487Y-53944102D01*
X86593220Y-54015000D01*
X86558030Y-54076662D01*
X86511538Y-54105081D01*
X86457426Y-54123658D01*
X86259426Y-54230810D01*
X86259424Y-54230811D01*
X86081762Y-54369091D01*
X85929279Y-54534729D01*
X85929275Y-54534734D01*
X85806141Y-54723206D01*
X85715703Y-54929386D01*
X85715702Y-54929387D01*
X85660437Y-55147624D01*
X85660436Y-55147630D01*
X85660436Y-55147632D01*
X85641844Y-55372000D01*
X77189500Y-55372000D01*
X77189500Y-52060511D01*
X77209502Y-51992390D01*
X77263158Y-51945897D01*
X77333432Y-51935793D01*
X77398012Y-51965287D01*
X77436396Y-52025013D01*
X77437207Y-52027900D01*
X77467112Y-52139510D01*
X77467116Y-52139523D01*
X77598880Y-52482780D01*
X77598884Y-52482788D01*
X77765809Y-52810397D01*
X77765812Y-52810403D01*
X77966077Y-53118784D01*
X77966081Y-53118789D01*
X78153077Y-53349710D01*
X78153078Y-53349711D01*
X79034214Y-52468574D01*
X78981515Y-52547445D01*
X78962112Y-52644990D01*
X78981515Y-52742535D01*
X79036770Y-52825230D01*
X79119465Y-52880485D01*
X79192386Y-52894990D01*
X79241634Y-52894990D01*
X79314555Y-52880485D01*
X79393415Y-52827791D01*
X78512287Y-53708920D01*
X78512288Y-53708921D01*
X78743210Y-53895918D01*
X78743215Y-53895922D01*
X79051596Y-54096187D01*
X79051602Y-54096190D01*
X79379211Y-54263115D01*
X79379219Y-54263119D01*
X79722476Y-54394883D01*
X79722489Y-54394887D01*
X80077646Y-54490051D01*
X80440817Y-54547571D01*
X80807993Y-54566814D01*
X80808007Y-54566814D01*
X81175182Y-54547571D01*
X81538353Y-54490051D01*
X81893510Y-54394887D01*
X81893523Y-54394883D01*
X82236780Y-54263119D01*
X82236788Y-54263115D01*
X82564397Y-54096190D01*
X82564403Y-54096187D01*
X82872782Y-53895924D01*
X83103711Y-53708920D01*
X82222580Y-52827789D01*
X82301445Y-52880485D01*
X82374366Y-52894990D01*
X82423614Y-52894990D01*
X82496535Y-52880485D01*
X82579230Y-52825230D01*
X82634485Y-52742535D01*
X82653888Y-52644990D01*
X82634485Y-52547445D01*
X82581789Y-52468580D01*
X83462920Y-53349711D01*
X83649924Y-53118782D01*
X83850187Y-52810403D01*
X83850190Y-52810397D01*
X84017115Y-52482788D01*
X84017119Y-52482780D01*
X84148883Y-52139523D01*
X84148887Y-52139510D01*
X84244051Y-51784353D01*
X84301571Y-51421182D01*
X84320814Y-51054007D01*
X84320814Y-51053992D01*
X84301571Y-50686817D01*
X84244051Y-50323646D01*
X84148887Y-49968489D01*
X84148883Y-49968476D01*
X84017119Y-49625219D01*
X84017115Y-49625211D01*
X83850190Y-49297602D01*
X83850187Y-49297596D01*
X83649922Y-48989215D01*
X83649918Y-48989210D01*
X83462921Y-48758288D01*
X83462920Y-48758287D01*
X82581792Y-49639414D01*
X82634485Y-49560555D01*
X82653888Y-49463010D01*
X82634485Y-49365465D01*
X82579230Y-49282770D01*
X82496535Y-49227515D01*
X82423614Y-49213010D01*
X82374366Y-49213010D01*
X82301445Y-49227515D01*
X82222574Y-49280214D01*
X83103711Y-48399078D01*
X83103710Y-48399077D01*
X82872789Y-48212081D01*
X82872784Y-48212077D01*
X82564403Y-48011812D01*
X82564397Y-48011809D01*
X82236788Y-47844884D01*
X82236780Y-47844880D01*
X82031630Y-47766131D01*
X81975202Y-47723045D01*
X81951025Y-47656292D01*
X81966776Y-47587065D01*
X82017454Y-47537343D01*
X82076784Y-47522500D01*
X129153820Y-47522500D01*
X129221941Y-47542502D01*
G37*
%TD.AperFunction*%
%TA.AperFunction,Conductor*%
G36*
X82472409Y-145239180D02*
G01*
X82393545Y-145186485D01*
X82320624Y-145171980D01*
X82271376Y-145171980D01*
X82198455Y-145186485D01*
X82115760Y-145241740D01*
X82060505Y-145324435D01*
X82041102Y-145421980D01*
X82060505Y-145519525D01*
X82113201Y-145598390D01*
X81571471Y-145056661D01*
X81629487Y-145018758D01*
X81812378Y-144850394D01*
X81931095Y-144697866D01*
X82472409Y-145239180D01*
G37*
%TD.AperFunction*%
%TA.AperFunction,Conductor*%
G36*
X129194632Y-144747404D02*
G01*
X129377523Y-144915768D01*
X129435537Y-144953670D01*
X128893811Y-145495397D01*
X128946505Y-145416535D01*
X128965908Y-145318990D01*
X128946505Y-145221445D01*
X128891250Y-145138750D01*
X128808555Y-145083495D01*
X128735634Y-145068990D01*
X128686386Y-145068990D01*
X128613465Y-145083495D01*
X128534595Y-145136193D01*
X129075913Y-144594875D01*
X129194632Y-144747404D01*
G37*
%TD.AperFunction*%
%TA.AperFunction,Conductor*%
G36*
X79838548Y-142605319D02*
G01*
X79780533Y-142643222D01*
X79597642Y-142811586D01*
X79478924Y-142964113D01*
X78937609Y-142422798D01*
X79016475Y-142475495D01*
X79089396Y-142490000D01*
X79138644Y-142490000D01*
X79211565Y-142475495D01*
X79294260Y-142420240D01*
X79349515Y-142337545D01*
X79368918Y-142240000D01*
X79349515Y-142142455D01*
X79296819Y-142063590D01*
X79838548Y-142605319D01*
G37*
%TD.AperFunction*%
%TA.AperFunction,Conductor*%
G36*
X82060505Y-142142455D02*
G01*
X82041102Y-142240000D01*
X82060505Y-142337545D01*
X82115760Y-142420240D01*
X82198455Y-142475495D01*
X82271376Y-142490000D01*
X82320624Y-142490000D01*
X82393545Y-142475495D01*
X82472404Y-142422802D01*
X81931094Y-142964112D01*
X81812378Y-142811586D01*
X81629487Y-142643222D01*
X81571471Y-142605318D01*
X82113203Y-142063586D01*
X82060505Y-142142455D01*
G37*
%TD.AperFunction*%
%TA.AperFunction,Conductor*%
G36*
X129435538Y-142502329D02*
G01*
X129377523Y-142540232D01*
X129194632Y-142708596D01*
X129075914Y-142861123D01*
X128534600Y-142319809D01*
X128613465Y-142372505D01*
X128686386Y-142387010D01*
X128735634Y-142387010D01*
X128808555Y-142372505D01*
X128891250Y-142317250D01*
X128946505Y-142234555D01*
X128965908Y-142137010D01*
X128946505Y-142039465D01*
X128893809Y-141960600D01*
X129435538Y-142502329D01*
G37*
%TD.AperFunction*%
%TA.AperFunction,Conductor*%
G36*
X131657495Y-142039465D02*
G01*
X131638092Y-142137010D01*
X131657495Y-142234555D01*
X131712750Y-142317250D01*
X131795445Y-142372505D01*
X131868366Y-142387010D01*
X131917614Y-142387010D01*
X131990535Y-142372505D01*
X132069396Y-142319811D01*
X131528085Y-142861123D01*
X131409368Y-142708596D01*
X131226477Y-142540232D01*
X131168461Y-142502328D01*
X131710193Y-141960596D01*
X131657495Y-142039465D01*
G37*
%TD.AperFunction*%
%TA.AperFunction,Conductor*%
G36*
X132002410Y-52529181D02*
G01*
X131923545Y-52476485D01*
X131850624Y-52461980D01*
X131801376Y-52461980D01*
X131728455Y-52476485D01*
X131645760Y-52531740D01*
X131590505Y-52614435D01*
X131571102Y-52711980D01*
X131590505Y-52809525D01*
X131643200Y-52888389D01*
X131101471Y-52346660D01*
X131159487Y-52308758D01*
X131342378Y-52140394D01*
X131461095Y-51987866D01*
X132002410Y-52529181D01*
G37*
%TD.AperFunction*%
%TA.AperFunction,Conductor*%
G36*
X129127642Y-52140394D02*
G01*
X129310533Y-52308758D01*
X129368547Y-52346660D01*
X128826821Y-52888385D01*
X128879515Y-52809525D01*
X128898918Y-52711980D01*
X128879515Y-52614435D01*
X128824260Y-52531740D01*
X128741565Y-52476485D01*
X128668644Y-52461980D01*
X128619396Y-52461980D01*
X128546475Y-52476485D01*
X128467605Y-52529183D01*
X129008923Y-51987865D01*
X129127642Y-52140394D01*
G37*
%TD.AperFunction*%
%TA.AperFunction,Conductor*%
G36*
X82575399Y-52462190D02*
G01*
X82496535Y-52409495D01*
X82423614Y-52394990D01*
X82374366Y-52394990D01*
X82301445Y-52409495D01*
X82218750Y-52464750D01*
X82163495Y-52547445D01*
X82144092Y-52644990D01*
X82163495Y-52742535D01*
X82216190Y-52821399D01*
X81674461Y-52279670D01*
X81732477Y-52241768D01*
X81915368Y-52073404D01*
X82034085Y-51920876D01*
X82575399Y-52462190D01*
G37*
%TD.AperFunction*%
%TA.AperFunction,Conductor*%
G36*
X79700632Y-52073404D02*
G01*
X79883523Y-52241768D01*
X79941537Y-52279670D01*
X79399811Y-52821395D01*
X79452505Y-52742535D01*
X79471908Y-52644990D01*
X79452505Y-52547445D01*
X79397250Y-52464750D01*
X79314555Y-52409495D01*
X79241634Y-52394990D01*
X79192386Y-52394990D01*
X79119465Y-52409495D01*
X79040594Y-52462194D01*
X79581913Y-51920875D01*
X79700632Y-52073404D01*
G37*
%TD.AperFunction*%
%TA.AperFunction,Conductor*%
G36*
X129368548Y-49895318D02*
G01*
X129310533Y-49933222D01*
X129127642Y-50101586D01*
X129008924Y-50254113D01*
X128467610Y-49712799D01*
X128546475Y-49765495D01*
X128619396Y-49780000D01*
X128668644Y-49780000D01*
X128741565Y-49765495D01*
X128824260Y-49710240D01*
X128879515Y-49627545D01*
X128898918Y-49530000D01*
X128879515Y-49432455D01*
X128826818Y-49353589D01*
X129368548Y-49895318D01*
G37*
%TD.AperFunction*%
%TA.AperFunction,Conductor*%
G36*
X82163495Y-49365465D02*
G01*
X82144092Y-49463010D01*
X82163495Y-49560555D01*
X82218750Y-49643250D01*
X82301445Y-49698505D01*
X82374366Y-49713010D01*
X82423614Y-49713010D01*
X82496535Y-49698505D01*
X82575394Y-49645812D01*
X82034084Y-50187122D01*
X81915368Y-50034596D01*
X81732477Y-49866232D01*
X81674460Y-49828328D01*
X82216194Y-49286594D01*
X82163495Y-49365465D01*
G37*
%TD.AperFunction*%
%TD*%
M02*
