M48
; DRILL file {KiCad 7.0.10} date Mon Mar 11 15:02:18 2024
; FORMAT={-:-/ absolute / inch / decimal}
; #@! TF.CreationDate,2024-03-11T15:02:18-04:00
; #@! TF.GenerationSoftware,Kicad,Pcbnew,7.0.10
; #@! TF.FileFunction,Plated,1,4,PTH
FMAT,2
INCH
; #@! TA.AperFunction,Plated,PTH,ViaDrill
T1C0.0157
; #@! TA.AperFunction,Plated,PTH,ComponentDrill
T2C0.0197
; #@! TA.AperFunction,Plated,PTH,ViaDrill
T3C0.0236
; #@! TA.AperFunction,Plated,PTH,ComponentDrill
T4C0.0236
; #@! TA.AperFunction,Plated,PTH,ViaDrill
T5C0.0315
; #@! TA.AperFunction,Plated,PTH,ComponentDrill
T6C0.0394
; #@! TA.AperFunction,Plated,PTH,ComponentDrill
T7C0.0420
; #@! TA.AperFunction,Plated,PTH,ComponentDrill
T8C0.1181
%
G90
G05
T1
X3.088Y-2.758
X3.088Y-2.802
X3.09Y-2.708
X3.092Y-2.506
X3.092Y-2.552
X3.14Y-3.51
X3.146Y-2.504
X3.176Y-2.548
X3.196Y-4.57
X3.202Y-2.504
X3.23Y-4.6
X3.238Y-2.58
X3.246Y-2.714
X3.258Y-2.64
X3.296Y-4.182
X3.304Y-5.124
X3.306Y-3.51
X3.334Y-2.704
X3.37Y-5.6
X3.382Y-5.746
X3.4Y-2.872
X3.482Y-2.818
X3.502Y-3.2895
X3.52Y-5.04
X3.528Y-5.14
X3.5375Y-3.104
X3.5432Y-3.2193
X3.548Y-4.106
X3.558Y-2.572
X3.56Y-2.71
X3.574Y-4.928
X3.5786Y-5.0909
X3.6016Y-4.7676
X3.6072Y-2.9692
X3.616Y-2.3
X3.639Y-4.677
X3.644Y-2.938
X3.644Y-3.116
X3.66Y-3.3494
X3.684Y-3.116
X3.6897Y-3.3973
X3.692Y-4.1
X3.728Y-4.704
X3.7297Y-3.398
X3.7391Y-3.3599
X3.74Y-4.628
X3.7413Y-4.4835
X3.7413Y-4.5764
X3.7421Y-4.437
X3.7429Y-4.5272
X3.758Y-2.876
X3.772Y-2.606
X3.7736Y-4.7843
X3.78Y-3.3537
X3.7846Y-4.3669
X3.794Y-3.09
X3.8031Y-4.4374
X3.8096Y-5.1684
X3.822Y-4.014
X3.835Y-4.29
X3.8457Y-4.7909
X3.86Y-2.61
X3.868Y-2.432
X3.868Y-2.842
X3.8791Y-4.6764
X3.882Y-2.488
X3.882Y-2.552
X3.882Y-4.221
X3.898Y-3.042
X3.904Y-3.776
X3.91Y-3.846
X3.918Y-3.148
X3.926Y-5.138
X3.932Y-4.192
X3.94Y-2.432
X3.944Y-2.61
X3.948Y-2.494
X3.95Y-3.776
X3.954Y-2.562
X3.954Y-3.364
X3.958Y-3.844
X3.96Y-3.202
X3.964Y-4.898
X3.968Y-3.712
X3.984Y-4.028
X3.992Y-2.732
X3.9988Y-4.2701
X4.0Y-4.414
X4.0124Y-2.344
X4.0214Y-3.3598
X4.022Y-3.184
X4.022Y-4.978
X4.0374Y-4.75
X4.039Y-4.7972
X4.0551Y-4.1039
X4.061Y-3.2816
X4.076Y-5.0193
X4.0815Y-2.3728
X4.086Y-2.278
X4.088Y-3.096
X4.0977Y-4.5447
X4.0994Y-4.4531
X4.0997Y-4.6249
X4.1114Y-5.1276
X4.1281Y-4.6678
X4.1286Y-4.5819
X4.1398Y-4.4839
X4.14Y-2.772
X4.14Y-3.1632
X4.1469Y-5.2094
X4.1584Y-4.5435
X4.1604Y-4.6237
X4.164Y-3.316
X4.1802Y-4.4531
X4.1888Y-4.6667
X4.1893Y-4.5807
X4.1936Y-2.3539
X4.2163Y-4.5435
X4.2183Y-4.6237
X4.2206Y-4.485
X4.265Y-4.1051
X4.268Y-4.846
X4.31Y-3.084
X4.3378Y-4.774
X4.338Y-4.266
X4.354Y-2.872
X4.354Y-2.912
X4.356Y-2.95
X4.368Y-3.07
X4.3756Y-4.6709
X4.3799Y-4.1736
X4.392Y-2.184
X4.396Y-2.87
X4.396Y-2.91
X4.396Y-2.952
X4.4303Y-4.2441
X4.4488Y-3.1284
X4.4783Y-2.7091
X4.4803Y-2.8343
X4.4894Y-2.2634
X4.492Y-3.266
X4.4937Y-3.7524
X4.5012Y-3.1287
X4.5303Y-4.3764
X4.5315Y-4.4311
X4.5496Y-4.5741
X4.562Y-3.766
X4.574Y-5.142
X4.582Y-3.72
X4.5908Y-4.4793
X4.62Y-4.532
X4.6406Y-4.6164
X4.6626Y-2.25
X4.69Y-5.024
X4.696Y-4.58
X4.7166Y-3.085
X4.7441Y-4.7524
X4.75Y-2.584
X4.7512Y-4.6689
X4.756Y-4.904
X4.772Y-2.9349
X4.774Y-4.062
X4.781Y-2.7574
X4.7964Y-2.6587
X4.806Y-4.86
X4.8071Y-2.7915
X4.8276Y-3.9634
X4.8295Y-3.0866
X4.8441Y-2.3516
X4.858Y-3.3961
X4.8708Y-3.8725
X4.8747Y-4.5442
X4.89Y-4.888
X4.9146Y-2.1693
X4.93Y-5.152
X4.9396Y-2.3635
X4.9449Y-2.5961
X4.9469Y-2.6677
X4.9722Y-4.1015
X4.994Y-4.988
X5.004Y-5.166
X5.0302Y-3.9575
X5.0441Y-2.187
X5.1028Y-2.1846
X5.128Y-5.17
X5.138Y-3.39
X5.156Y-3.328
X5.2085Y-4.2812
T2
X3.0888Y-5.6626
X3.0928Y-2.01
X3.1147Y-5.6
X3.1147Y-5.7253
X3.1188Y-1.9474
X3.1188Y-2.0726
X3.1774Y-5.5741
X3.1774Y-5.7512
X3.1814Y-1.9214
X3.1814Y-2.0986
X3.24Y-5.6
X3.24Y-5.7253
X3.2441Y-1.9474
X3.2441Y-2.0726
X3.2659Y-5.6626
X3.27Y-2.01
X5.0388Y-2.0126
X5.0414Y-5.6586
X5.0647Y-1.95
X5.0647Y-2.0753
X5.0674Y-5.5959
X5.0674Y-5.7212
X5.1274Y-1.9241
X5.1274Y-2.1012
X5.13Y-5.57
X5.13Y-5.7472
X5.19Y-1.95
X5.19Y-2.0753
X5.1926Y-5.5959
X5.1926Y-5.7212
X5.2159Y-2.0126
X5.2186Y-5.6586
T3
X4.5772Y-2.7639
X4.6421Y-2.7933
X4.7029Y-2.7919
X4.9606Y-3.3268
X4.9756Y-3.272
T5
X3.966Y-2.278
X4.1219Y-3.9817
X4.1219Y-4.062
X4.1226Y-4.1451
X4.1238Y-4.2246
X4.1994Y-3.9825
X4.2002Y-4.062
X4.2018Y-4.1459
X4.2018Y-4.2234
T6
X3.4254Y-1.98
X3.4254Y-2.18
X3.4411Y-2.08
X3.4411Y-2.28
X3.9044Y-2.01
X4.0044Y-2.01
X4.1044Y-2.01
X4.2044Y-2.01
X4.3044Y-2.01
X4.4044Y-2.01
T7
X3.5284Y-5.6544
X3.6284Y-5.6544
X3.7284Y-5.6544
X3.8284Y-5.6544
T8
X3.1774Y-5.6626
X3.1814Y-2.01
X5.1274Y-2.0126
X5.13Y-5.6586
T4
G00X3.1256Y-3.1079
M15
G01X3.1571Y-3.1079
M16
G05
G00X3.1256Y-3.448
M15
G01X3.1571Y-3.448
M16
G05
G00X3.2843Y-3.1079
M15
G01X3.3276Y-3.1079
M16
G05
G00X3.2843Y-3.448
M15
G01X3.3276Y-3.448
M16
G05
M30
